ISO-10303-21;
HEADER;
FILE_DESCRIPTION(('STEP AP242'),'1');
FILE_NAME('d2f-01fl2.stp','2026-01-19T05:37:33',('TraceParts'),('TraceParts S.A.S.'),'Spatial InterOp 3D',' ',' ');
FILE_SCHEMA(('AP242_MANAGED_MODEL_BASED_3D_ENGINEERING_MIM_LF  {1 0 10303 442 1 1 4}'));
ENDSEC;
DATA;
#1=MECHANICAL_DESIGN_GEOMETRIC_PRESENTATION_REPRESENTATION(' ',(#10,#11,#12,#13,#14,#15,#16,#17,#18,#19,#20,#21,#22,#23,#24,#25,#26,#27,#28,#29,#30,#31,#32,#33,#34,#35,#36,#37,#38,#39,#40,#41,#42,#43,#44,#45,#46,#47,#48,#49,#50,#51,#52,#53,#54,#55,#56,#57,#58,#59,#60,#61,#62,#63,#64,#65,#66,#67),#6);
#2=PRODUCT_DEFINITION_CONTEXT('',#68,'design');
#3=APPLICATION_PROTOCOL_DEFINITION('INTERNATIONAL STANDARD','ap242_managed_model_based_3d_engineering',2014,#68);
#4=PRODUCT_CATEGORY_RELATIONSHIP('NONE','NONE',#69,#70);
#5=SHAPE_DEFINITION_REPRESENTATION(#71,#72);
#6= (GEOMETRIC_REPRESENTATION_CONTEXT(3)GLOBAL_UNCERTAINTY_ASSIGNED_CONTEXT((#75))GLOBAL_UNIT_ASSIGNED_CONTEXT((#77,#78,#79))REPRESENTATION_CONTEXT('NONE','WORKSPACE'));
#10=STYLED_ITEM('',(#81),#82);
#11=STYLED_ITEM('',(#83),#84);
#12=STYLED_ITEM('',(#85),#86);
#13=STYLED_ITEM('',(#87),#88);
#14=STYLED_ITEM('',(#89),#90);
#15=STYLED_ITEM('',(#91),#92);
#16=STYLED_ITEM('',(#93),#94);
#17=STYLED_ITEM('',(#95),#96);
#18=STYLED_ITEM('',(#97),#98);
#19=STYLED_ITEM('',(#99),#100);
#20=STYLED_ITEM('',(#101),#102);
#21=STYLED_ITEM('',(#103),#104);
#22=STYLED_ITEM('',(#105),#106);
#23=STYLED_ITEM('',(#107),#108);
#24=STYLED_ITEM('',(#109),#110);
#25=STYLED_ITEM('',(#111),#112);
#26=STYLED_ITEM('',(#113),#114);
#27=STYLED_ITEM('',(#115),#116);
#28=STYLED_ITEM('',(#117),#118);
#29=STYLED_ITEM('',(#119),#120);
#30=STYLED_ITEM('',(#121),#122);
#31=STYLED_ITEM('',(#123),#124);
#32=STYLED_ITEM('',(#125),#126);
#33=STYLED_ITEM('',(#127),#128);
#34=STYLED_ITEM('',(#129),#130);
#35=STYLED_ITEM('',(#131),#132);
#36=STYLED_ITEM('',(#133),#134);
#37=STYLED_ITEM('',(#135),#136);
#38=STYLED_ITEM('',(#137),#138);
#39=STYLED_ITEM('',(#139),#140);
#40=STYLED_ITEM('',(#141),#142);
#41=STYLED_ITEM('',(#143),#144);
#42=STYLED_ITEM('',(#145),#146);
#43=STYLED_ITEM('',(#147),#148);
#44=STYLED_ITEM('',(#149),#150);
#45=STYLED_ITEM('',(#151),#152);
#46=STYLED_ITEM('',(#153),#154);
#47=STYLED_ITEM('',(#155),#156);
#48=STYLED_ITEM('',(#157),#158);
#49=STYLED_ITEM('',(#159),#160);
#50=STYLED_ITEM('',(#161),#162);
#51=STYLED_ITEM('',(#163),#164);
#52=STYLED_ITEM('',(#165),#166);
#53=STYLED_ITEM('',(#167),#168);
#54=STYLED_ITEM('',(#169),#170);
#55=STYLED_ITEM('',(#171),#172);
#56=STYLED_ITEM('',(#173),#174);
#57=STYLED_ITEM('',(#175),#176);
#58=STYLED_ITEM('',(#177),#178);
#59=STYLED_ITEM('',(#179),#180);
#60=STYLED_ITEM('',(#181),#182);
#61=STYLED_ITEM('',(#183),#184);
#62=STYLED_ITEM('',(#185),#186);
#63=STYLED_ITEM('',(#187),#188);
#64=STYLED_ITEM('',(#189),#190);
#65=STYLED_ITEM('',(#191),#192);
#66=STYLED_ITEM('',(#193),#194);
#67=STYLED_ITEM('',(#195),#196);
#68=APPLICATION_CONTEXT('managed model based 3d engineering');
#69=PRODUCT_CATEGORY('part','NONE');
#70=PRODUCT_RELATED_PRODUCT_CATEGORY('detail',' ',(#197));
#71=PRODUCT_DEFINITION_SHAPE('NONE','NONE',#198);
#72=ADVANCED_BREP_SHAPE_REPRESENTATION('1',(#199,#200),#6);
#75=UNCERTAINTY_MEASURE_WITH_UNIT(LENGTH_MEASURE(1.0E-06),#77,'','');
#77= (CONVERSION_BASED_UNIT('MILLIMETRE',#203)LENGTH_UNIT()NAMED_UNIT(#206));
#78= (NAMED_UNIT(#208)PLANE_ANGLE_UNIT()SI_UNIT($,.RADIAN.));
#79= (NAMED_UNIT(#208)SOLID_ANGLE_UNIT()SI_UNIT($,.STERADIAN.));
#81=PRESENTATION_STYLE_ASSIGNMENT((#214));
#82=ADVANCED_FACE('',(#215),#216,.F.);
#83=PRESENTATION_STYLE_ASSIGNMENT((#217));
#84=ADVANCED_FACE('',(#218),#219,.F.);
#85=PRESENTATION_STYLE_ASSIGNMENT((#220));
#86=ADVANCED_FACE('',(#221),#222,.F.);
#87=PRESENTATION_STYLE_ASSIGNMENT((#223));
#88=ADVANCED_FACE('',(#224),#225,.T.);
#89=PRESENTATION_STYLE_ASSIGNMENT((#226));
#90=ADVANCED_FACE('',(#227),#228,.T.);
#91=PRESENTATION_STYLE_ASSIGNMENT((#229));
#92=ADVANCED_FACE('',(#230),#231,.T.);
#93=PRESENTATION_STYLE_ASSIGNMENT((#232));
#94=ADVANCED_FACE('',(#233),#234,.T.);
#95=PRESENTATION_STYLE_ASSIGNMENT((#235));
#96=ADVANCED_FACE('',(#236),#237,.T.);
#97=PRESENTATION_STYLE_ASSIGNMENT((#238));
#98=ADVANCED_FACE('',(#239),#240,.T.);
#99=PRESENTATION_STYLE_ASSIGNMENT((#241));
#100=ADVANCED_FACE('',(#242),#243,.T.);
#101=PRESENTATION_STYLE_ASSIGNMENT((#244));
#102=ADVANCED_FACE('',(#245),#246,.T.);
#103=PRESENTATION_STYLE_ASSIGNMENT((#247));
#104=ADVANCED_FACE('',(#248),#249,.F.);
#105=PRESENTATION_STYLE_ASSIGNMENT((#250));
#106=ADVANCED_FACE('',(#251),#252,.F.);
#107=PRESENTATION_STYLE_ASSIGNMENT((#253));
#108=ADVANCED_FACE('',(#254),#255,.T.);
#109=PRESENTATION_STYLE_ASSIGNMENT((#256));
#110=ADVANCED_FACE('',(#257),#258,.F.);
#111=PRESENTATION_STYLE_ASSIGNMENT((#259));
#112=ADVANCED_FACE('',(#260),#261,.F.);
#113=PRESENTATION_STYLE_ASSIGNMENT((#262));
#114=ADVANCED_FACE('',(#263),#264,.F.);
#115=PRESENTATION_STYLE_ASSIGNMENT((#265));
#116=ADVANCED_FACE('',(#266),#267,.F.);
#117=PRESENTATION_STYLE_ASSIGNMENT((#268));
#118=ADVANCED_FACE('',(#269),#270,.T.);
#119=PRESENTATION_STYLE_ASSIGNMENT((#271));
#120=ADVANCED_FACE('',(#272),#273,.F.);
#121=PRESENTATION_STYLE_ASSIGNMENT((#274));
#122=ADVANCED_FACE('',(#275),#276,.F.);
#123=PRESENTATION_STYLE_ASSIGNMENT((#277));
#124=ADVANCED_FACE('',(#278),#279,.F.);
#125=PRESENTATION_STYLE_ASSIGNMENT((#280));
#126=ADVANCED_FACE('',(#281),#282,.F.);
#127=PRESENTATION_STYLE_ASSIGNMENT((#283));
#128=ADVANCED_FACE('',(#284),#285,.T.);
#129=PRESENTATION_STYLE_ASSIGNMENT((#286));
#130=ADVANCED_FACE('',(#287),#288,.F.);
#131=PRESENTATION_STYLE_ASSIGNMENT((#289));
#132=ADVANCED_FACE('',(#290),#291,.F.);
#133=PRESENTATION_STYLE_ASSIGNMENT((#292));
#134=ADVANCED_FACE('',(#293,#294),#295,.F.);
#135=PRESENTATION_STYLE_ASSIGNMENT((#296));
#136=ADVANCED_FACE('',(#297),#298,.T.);
#137=PRESENTATION_STYLE_ASSIGNMENT((#299));
#138=ADVANCED_FACE('',(#300),#301,.T.);
#139=PRESENTATION_STYLE_ASSIGNMENT((#302));
#140=ADVANCED_FACE('',(#303),#304,.T.);
#141=PRESENTATION_STYLE_ASSIGNMENT((#305));
#142=ADVANCED_FACE('',(#306),#307,.T.);
#143=PRESENTATION_STYLE_ASSIGNMENT((#308));
#144=ADVANCED_FACE('',(#309),#310,.T.);
#145=PRESENTATION_STYLE_ASSIGNMENT((#311));
#146=ADVANCED_FACE('',(#312),#313,.T.);
#147=PRESENTATION_STYLE_ASSIGNMENT((#314));
#148=ADVANCED_FACE('',(#315),#316,.T.);
#149=PRESENTATION_STYLE_ASSIGNMENT((#317));
#150=ADVANCED_FACE('',(#318),#319,.T.);
#151=PRESENTATION_STYLE_ASSIGNMENT((#320));
#152=ADVANCED_FACE('',(#321),#322,.T.);
#153=PRESENTATION_STYLE_ASSIGNMENT((#323));
#154=ADVANCED_FACE('',(#324),#325,.T.);
#155=PRESENTATION_STYLE_ASSIGNMENT((#326));
#156=ADVANCED_FACE('',(#327),#328,.F.);
#157=PRESENTATION_STYLE_ASSIGNMENT((#329));
#158=ADVANCED_FACE('',(#330),#331,.T.);
#159=PRESENTATION_STYLE_ASSIGNMENT((#332));
#160=ADVANCED_FACE('',(#333),#334,.T.);
#161=PRESENTATION_STYLE_ASSIGNMENT((#335));
#162=ADVANCED_FACE('',(#336),#337,.T.);
#163=PRESENTATION_STYLE_ASSIGNMENT((#338));
#164=ADVANCED_FACE('',(#339),#340,.T.);
#165=PRESENTATION_STYLE_ASSIGNMENT((#341));
#166=ADVANCED_FACE('',(#342),#343,.T.);
#167=PRESENTATION_STYLE_ASSIGNMENT((#344));
#168=ADVANCED_FACE('',(#345),#346,.T.);
#169=PRESENTATION_STYLE_ASSIGNMENT((#347));
#170=ADVANCED_FACE('',(#348),#349,.T.);
#171=PRESENTATION_STYLE_ASSIGNMENT((#350));
#172=ADVANCED_FACE('',(#351),#352,.T.);
#173=PRESENTATION_STYLE_ASSIGNMENT((#353));
#174=ADVANCED_FACE('',(#354,#355),#356,.T.);
#175=PRESENTATION_STYLE_ASSIGNMENT((#357));
#176=ADVANCED_FACE('',(#358),#359,.T.);
#177=PRESENTATION_STYLE_ASSIGNMENT((#360));
#178=ADVANCED_FACE('',(#361),#362,.F.);
#179=PRESENTATION_STYLE_ASSIGNMENT((#363));
#180=ADVANCED_FACE('',(#364),#365,.T.);
#181=PRESENTATION_STYLE_ASSIGNMENT((#366));
#182=ADVANCED_FACE('',(#367),#368,.F.);
#183=PRESENTATION_STYLE_ASSIGNMENT((#369));
#184=ADVANCED_FACE('',(#370),#371,.F.);
#185=PRESENTATION_STYLE_ASSIGNMENT((#372));
#186=ADVANCED_FACE('',(#373,#374,#375),#376,.T.);
#187=PRESENTATION_STYLE_ASSIGNMENT((#377));
#188=ADVANCED_FACE('',(#378,#379,#380),#381,.F.);
#189=PRESENTATION_STYLE_ASSIGNMENT((#382));
#190=ADVANCED_FACE('',(#383,#384,#385,#386),#387,.F.);
#191=PRESENTATION_STYLE_ASSIGNMENT((#388));
#192=ADVANCED_FACE('',(#389),#390,.F.);
#193=PRESENTATION_STYLE_ASSIGNMENT((#391));
#194=ADVANCED_FACE('',(#392,#393,#394),#395,.F.);
#195=PRESENTATION_STYLE_ASSIGNMENT((#396));
#196=ADVANCED_FACE('',(#397),#398,.F.);
#197=PRODUCT('1','','PART--DESC',(#399));
#198=PRODUCT_DEFINITION('','NONE',#400,#2);
#199=MANIFOLD_SOLID_BREP('1',#401);
#200=AXIS2_PLACEMENT_3D('',#402,#403,#404);
#203=LENGTH_MEASURE_WITH_UNIT(LENGTH_MEASURE(1.0),#405);
#206=DIMENSIONAL_EXPONENTS(1.0,0.0,0.0,0.0,0.0,0.0,0.0);
#208=DIMENSIONAL_EXPONENTS(0.0,0.0,0.0,0.0,0.0,0.0,0.0);
#214=SURFACE_STYLE_USAGE(.BOTH.,#406);
#215=FACE_OUTER_BOUND('',#407,.T.);
#216=CYLINDRICAL_SURFACE('',#408,1.0);
#217=SURFACE_STYLE_USAGE(.BOTH.,#409);
#218=FACE_OUTER_BOUND('',#410,.T.);
#219=CYLINDRICAL_SURFACE('',#411,1.1);
#220=SURFACE_STYLE_USAGE(.BOTH.,#412);
#221=FACE_OUTER_BOUND('',#413,.T.);
#222=CYLINDRICAL_SURFACE('',#414,1.1);
#223=SURFACE_STYLE_USAGE(.BOTH.,#415);
#224=FACE_OUTER_BOUND('',#416,.T.);
#225=CYLINDRICAL_SURFACE('',#417,2.0);
#226=SURFACE_STYLE_USAGE(.BOTH.,#418);
#227=FACE_OUTER_BOUND('',#419,.T.);
#228=CYLINDRICAL_SURFACE('',#420,2.0);
#229=SURFACE_STYLE_USAGE(.BOTH.,#421);
#230=FACE_OUTER_BOUND('',#422,.T.);
#231=CYLINDRICAL_SURFACE('',#423,2.4);
#232=SURFACE_STYLE_USAGE(.BOTH.,#424);
#233=FACE_OUTER_BOUND('',#425,.T.);
#234=CYLINDRICAL_SURFACE('',#426,1.5);
#235=SURFACE_STYLE_USAGE(.BOTH.,#427);
#236=FACE_OUTER_BOUND('',#428,.T.);
#237=CYLINDRICAL_SURFACE('',#429,1.5);
#238=SURFACE_STYLE_USAGE(.BOTH.,#430);
#239=FACE_OUTER_BOUND('',#431,.T.);
#240=PLANE('',#432);
#241=SURFACE_STYLE_USAGE(.BOTH.,#433);
#242=FACE_OUTER_BOUND('',#434,.T.);
#243=CYLINDRICAL_SURFACE('',#435,0.61);
#244=SURFACE_STYLE_USAGE(.BOTH.,#436);
#245=FACE_OUTER_BOUND('',#437,.T.);
#246=PLANE('',#438);
#247=SURFACE_STYLE_USAGE(.BOTH.,#439);
#248=FACE_OUTER_BOUND('',#440,.T.);
#249=PLANE('',#441);
#250=SURFACE_STYLE_USAGE(.BOTH.,#442);
#251=FACE_OUTER_BOUND('',#443,.T.);
#252=PLANE('',#444);
#253=SURFACE_STYLE_USAGE(.BOTH.,#445);
#254=FACE_OUTER_BOUND('',#446,.T.);
#255=PLANE('',#447);
#256=SURFACE_STYLE_USAGE(.BOTH.,#448);
#257=FACE_OUTER_BOUND('',#449,.T.);
#258=PLANE('',#450);
#259=SURFACE_STYLE_USAGE(.BOTH.,#451);
#260=FACE_OUTER_BOUND('',#452,.T.);
#261=PLANE('',#453);
#262=SURFACE_STYLE_USAGE(.BOTH.,#454);
#263=FACE_OUTER_BOUND('',#455,.T.);
#264=PLANE('',#456);
#265=SURFACE_STYLE_USAGE(.BOTH.,#457);
#266=FACE_OUTER_BOUND('',#458,.T.);
#267=PLANE('',#459);
#268=SURFACE_STYLE_USAGE(.BOTH.,#460);
#269=FACE_OUTER_BOUND('',#461,.T.);
#270=PLANE('',#462);
#271=SURFACE_STYLE_USAGE(.BOTH.,#463);
#272=FACE_OUTER_BOUND('',#464,.T.);
#273=PLANE('',#465);
#274=SURFACE_STYLE_USAGE(.BOTH.,#466);
#275=FACE_OUTER_BOUND('',#467,.T.);
#276=PLANE('',#468);
#277=SURFACE_STYLE_USAGE(.BOTH.,#469);
#278=FACE_OUTER_BOUND('',#470,.T.);
#279=PLANE('',#471);
#280=SURFACE_STYLE_USAGE(.BOTH.,#472);
#281=FACE_OUTER_BOUND('',#473,.T.);
#282=PLANE('',#474);
#283=SURFACE_STYLE_USAGE(.BOTH.,#475);
#284=FACE_OUTER_BOUND('',#476,.T.);
#285=PLANE('',#477);
#286=SURFACE_STYLE_USAGE(.BOTH.,#478);
#287=FACE_OUTER_BOUND('',#479,.T.);
#288=PLANE('',#480);
#289=SURFACE_STYLE_USAGE(.BOTH.,#481);
#290=FACE_OUTER_BOUND('',#482,.T.);
#291=PLANE('',#483);
#292=SURFACE_STYLE_USAGE(.BOTH.,#484);
#293=FACE_OUTER_BOUND('',#485,.T.);
#294=FACE_BOUND('',#486,.T.);
#295=PLANE('',#487);
#296=SURFACE_STYLE_USAGE(.BOTH.,#488);
#297=FACE_OUTER_BOUND('',#489,.T.);
#298=PLANE('',#490);
#299=SURFACE_STYLE_USAGE(.BOTH.,#491);
#300=FACE_OUTER_BOUND('',#492,.T.);
#301=CYLINDRICAL_SURFACE('',#493,1.5);
#302=SURFACE_STYLE_USAGE(.BOTH.,#494);
#303=FACE_OUTER_BOUND('',#495,.T.);
#304=CYLINDRICAL_SURFACE('',#496,1.5);
#305=SURFACE_STYLE_USAGE(.BOTH.,#497);
#306=FACE_OUTER_BOUND('',#498,.T.);
#307=PLANE('',#499);
#308=SURFACE_STYLE_USAGE(.BOTH.,#500);
#309=FACE_OUTER_BOUND('',#501,.T.);
#310=PLANE('',#502);
#311=SURFACE_STYLE_USAGE(.BOTH.,#503);
#312=FACE_OUTER_BOUND('',#504,.T.);
#313=PLANE('',#505);
#314=SURFACE_STYLE_USAGE(.BOTH.,#506);
#315=FACE_OUTER_BOUND('',#507,.T.);
#316=CYLINDRICAL_SURFACE('',#508,2.4);
#317=SURFACE_STYLE_USAGE(.BOTH.,#509);
#318=FACE_OUTER_BOUND('',#510,.T.);
#319=PLANE('',#511);
#320=SURFACE_STYLE_USAGE(.BOTH.,#512);
#321=FACE_OUTER_BOUND('',#513,.T.);
#322=PLANE('',#514);
#323=SURFACE_STYLE_USAGE(.BOTH.,#515);
#324=FACE_OUTER_BOUND('',#516,.T.);
#325=PLANE('',#517);
#326=SURFACE_STYLE_USAGE(.BOTH.,#518);
#327=FACE_OUTER_BOUND('',#519,.T.);
#328=PLANE('',#520);
#329=SURFACE_STYLE_USAGE(.BOTH.,#521);
#330=FACE_OUTER_BOUND('',#522,.T.);
#331=PLANE('',#523);
#332=SURFACE_STYLE_USAGE(.BOTH.,#524);
#333=FACE_OUTER_BOUND('',#525,.T.);
#334=CYLINDRICAL_SURFACE('',#526,2.0);
#335=SURFACE_STYLE_USAGE(.BOTH.,#527);
#336=FACE_OUTER_BOUND('',#528,.T.);
#337=CYLINDRICAL_SURFACE('',#529,2.0);
#338=SURFACE_STYLE_USAGE(.BOTH.,#530);
#339=FACE_OUTER_BOUND('',#531,.T.);
#340=PLANE('',#532);
#341=SURFACE_STYLE_USAGE(.BOTH.,#533);
#342=FACE_OUTER_BOUND('',#534,.T.);
#343=PLANE('',#535);
#344=SURFACE_STYLE_USAGE(.BOTH.,#536);
#345=FACE_OUTER_BOUND('',#537,.T.);
#346=PLANE('',#538);
#347=SURFACE_STYLE_USAGE(.BOTH.,#539);
#348=FACE_OUTER_BOUND('',#540,.T.);
#349=PLANE('',#541);
#350=SURFACE_STYLE_USAGE(.BOTH.,#542);
#351=FACE_OUTER_BOUND('',#543,.T.);
#352=PLANE('',#544);
#353=SURFACE_STYLE_USAGE(.BOTH.,#545);
#354=FACE_OUTER_BOUND('',#546,.T.);
#355=FACE_BOUND('',#547,.T.);
#356=PLANE('',#548);
#357=SURFACE_STYLE_USAGE(.BOTH.,#549);
#358=FACE_OUTER_BOUND('',#550,.T.);
#359=PLANE('',#551);
#360=SURFACE_STYLE_USAGE(.BOTH.,#552);
#361=FACE_OUTER_BOUND('',#553,.T.);
#362=CYLINDRICAL_SURFACE('',#554,1.1);
#363=SURFACE_STYLE_USAGE(.BOTH.,#555);
#364=FACE_OUTER_BOUND('',#556,.T.);
#365=PLANE('',#557);
#366=SURFACE_STYLE_USAGE(.BOTH.,#558);
#367=FACE_OUTER_BOUND('',#559,.T.);
#368=CYLINDRICAL_SURFACE('',#560,1.1);
#369=SURFACE_STYLE_USAGE(.BOTH.,#561);
#370=FACE_OUTER_BOUND('',#562,.T.);
#371=CYLINDRICAL_SURFACE('',#563,1.0);
#372=SURFACE_STYLE_USAGE(.BOTH.,#564);
#373=FACE_BOUND('',#565,.T.);
#374=FACE_BOUND('',#566,.T.);
#375=FACE_OUTER_BOUND('',#567,.T.);
#376=PLANE('',#568);
#377=SURFACE_STYLE_USAGE(.BOTH.,#569);
#378=FACE_BOUND('',#570,.T.);
#379=FACE_BOUND('',#571,.T.);
#380=FACE_OUTER_BOUND('',#572,.T.);
#381=PLANE('',#573);
#382=SURFACE_STYLE_USAGE(.BOTH.,#574);
#383=FACE_BOUND('',#575,.T.);
#384=FACE_BOUND('',#576,.T.);
#385=FACE_BOUND('',#577,.T.);
#386=FACE_OUTER_BOUND('',#578,.T.);
#387=PLANE('',#579);
#388=SURFACE_STYLE_USAGE(.BOTH.,#580);
#389=FACE_OUTER_BOUND('',#581,.T.);
#390=PLANE('',#582);
#391=SURFACE_STYLE_USAGE(.BOTH.,#583);
#392=FACE_BOUND('',#584,.T.);
#393=FACE_BOUND('',#585,.T.);
#394=FACE_OUTER_BOUND('',#586,.T.);
#395=PLANE('',#587);
#396=SURFACE_STYLE_USAGE(.BOTH.,#588);
#397=FACE_OUTER_BOUND('',#589,.T.);
#398=PLANE('',#590);
#399=PRODUCT_CONTEXT('',#68,'mechanical');
#400=PRODUCT_DEFINITION_FORMATION_WITH_SPECIFIED_SOURCE(' ','NONE',#197,.NOT_KNOWN.);
#401=CLOSED_SHELL('',(#82,#84,#86,#88,#90,#92,#94,#96,#98,#100,#102,#104,#106,#108,#110,#112,#114,#116,#118,#120,#122,#124,#126,#128,#130,#132,#134,#136,#138,#140,#142,#144,#146,#148,#150,#152,#154,#156,#158,#160,#162,#164,#166,#168,#170,#172,#174,#176,#178,#180,#182,#184,#186,#188,#190,#192,#194,#196));
#402=CARTESIAN_POINT('',(0.0,0.0,0.0));
#403=DIRECTION('',(0.0,0.0,1.0));
#404=DIRECTION('',(1.0,0.0,0.0));
#405= (NAMED_UNIT(#206)LENGTH_UNIT()SI_UNIT(.MILLI.,.METRE.));
#406=SURFACE_SIDE_STYLE('',(#592));
#407=EDGE_LOOP('',(#593,#594,#595,#596));
#408=AXIS2_PLACEMENT_3D('',#597,#598,#599);
#409=SURFACE_SIDE_STYLE('',(#600));
#410=EDGE_LOOP('',(#601,#602,#603,#604));
#411=AXIS2_PLACEMENT_3D('',#605,#606,#607);
#412=SURFACE_SIDE_STYLE('',(#608));
#413=EDGE_LOOP('',(#609,#610,#611,#612));
#414=AXIS2_PLACEMENT_3D('',#613,#614,#615);
#415=SURFACE_SIDE_STYLE('',(#616));
#416=EDGE_LOOP('',(#617,#618,#619,#620));
#417=AXIS2_PLACEMENT_3D('',#621,#622,#623);
#418=SURFACE_SIDE_STYLE('',(#624));
#419=EDGE_LOOP('',(#625,#626,#627,#628));
#420=AXIS2_PLACEMENT_3D('',#629,#630,#631);
#421=SURFACE_SIDE_STYLE('',(#632));
#422=EDGE_LOOP('',(#633,#634,#635,#636));
#423=AXIS2_PLACEMENT_3D('',#637,#638,#639);
#424=SURFACE_SIDE_STYLE('',(#640));
#425=EDGE_LOOP('',(#641,#642,#643,#644));
#426=AXIS2_PLACEMENT_3D('',#645,#646,#647);
#427=SURFACE_SIDE_STYLE('',(#648));
#428=EDGE_LOOP('',(#649,#650,#651,#652));
#429=AXIS2_PLACEMENT_3D('',#653,#654,#655);
#430=SURFACE_SIDE_STYLE('',(#656));
#431=EDGE_LOOP('',(#657,#658));
#432=AXIS2_PLACEMENT_3D('',#659,#660,#661);
#433=SURFACE_SIDE_STYLE('',(#662));
#434=EDGE_LOOP('',(#663,#664,#665,#666));
#435=AXIS2_PLACEMENT_3D('',#667,#668,#669);
#436=SURFACE_SIDE_STYLE('',(#670));
#437=EDGE_LOOP('',(#671,#672));
#438=AXIS2_PLACEMENT_3D('',#673,#674,#675);
#439=SURFACE_SIDE_STYLE('',(#676));
#440=EDGE_LOOP('',(#677,#678,#679,#680));
#441=AXIS2_PLACEMENT_3D('',#681,#682,#683);
#442=SURFACE_SIDE_STYLE('',(#684));
#443=EDGE_LOOP('',(#685,#686,#687,#688));
#444=AXIS2_PLACEMENT_3D('',#689,#690,#691);
#445=SURFACE_SIDE_STYLE('',(#692));
#446=EDGE_LOOP('',(#693,#694,#695,#696));
#447=AXIS2_PLACEMENT_3D('',#697,#698,#699);
#448=SURFACE_SIDE_STYLE('',(#700));
#449=EDGE_LOOP('',(#701,#702,#703,#704));
#450=AXIS2_PLACEMENT_3D('',#705,#706,#707);
#451=SURFACE_SIDE_STYLE('',(#708));
#452=EDGE_LOOP('',(#709,#710,#711,#712));
#453=AXIS2_PLACEMENT_3D('',#713,#714,#715);
#454=SURFACE_SIDE_STYLE('',(#716));
#455=EDGE_LOOP('',(#717,#718,#719,#720));
#456=AXIS2_PLACEMENT_3D('',#721,#722,#723);
#457=SURFACE_SIDE_STYLE('',(#724));
#458=EDGE_LOOP('',(#725,#726,#727,#728));
#459=AXIS2_PLACEMENT_3D('',#729,#730,#731);
#460=SURFACE_SIDE_STYLE('',(#732));
#461=EDGE_LOOP('',(#733,#734,#735,#736));
#462=AXIS2_PLACEMENT_3D('',#737,#738,#739);
#463=SURFACE_SIDE_STYLE('',(#740));
#464=EDGE_LOOP('',(#741,#742,#743,#744));
#465=AXIS2_PLACEMENT_3D('',#745,#746,#747);
#466=SURFACE_SIDE_STYLE('',(#748));
#467=EDGE_LOOP('',(#749,#750,#751,#752));
#468=AXIS2_PLACEMENT_3D('',#753,#754,#755);
#469=SURFACE_SIDE_STYLE('',(#756));
#470=EDGE_LOOP('',(#757,#758,#759,#760));
#471=AXIS2_PLACEMENT_3D('',#761,#762,#763);
#472=SURFACE_SIDE_STYLE('',(#764));
#473=EDGE_LOOP('',(#765,#766,#767,#768));
#474=AXIS2_PLACEMENT_3D('',#769,#770,#771);
#475=SURFACE_SIDE_STYLE('',(#772));
#476=EDGE_LOOP('',(#773,#774,#775,#776));
#477=AXIS2_PLACEMENT_3D('',#777,#778,#779);
#478=SURFACE_SIDE_STYLE('',(#780));
#479=EDGE_LOOP('',(#781,#782,#783,#784));
#480=AXIS2_PLACEMENT_3D('',#785,#786,#787);
#481=SURFACE_SIDE_STYLE('',(#788));
#482=EDGE_LOOP('',(#789,#790,#791,#792));
#483=AXIS2_PLACEMENT_3D('',#793,#794,#795);
#484=SURFACE_SIDE_STYLE('',(#796));
#485=EDGE_LOOP('',(#797,#798,#799,#800,#801,#802,#803,#804,#805));
#486=EDGE_LOOP('',(#806,#807));
#487=AXIS2_PLACEMENT_3D('',#808,#809,#810);
#488=SURFACE_SIDE_STYLE('',(#811));
#489=EDGE_LOOP('',(#812,#813,#814,#815));
#490=AXIS2_PLACEMENT_3D('',#816,#817,#818);
#491=SURFACE_SIDE_STYLE('',(#819));
#492=EDGE_LOOP('',(#820,#821,#822,#823));
#493=AXIS2_PLACEMENT_3D('',#824,#825,#826);
#494=SURFACE_SIDE_STYLE('',(#827));
#495=EDGE_LOOP('',(#828,#829,#830,#831));
#496=AXIS2_PLACEMENT_3D('',#832,#833,#834);
#497=SURFACE_SIDE_STYLE('',(#835));
#498=EDGE_LOOP('',(#836,#837));
#499=AXIS2_PLACEMENT_3D('',#838,#839,#840);
#500=SURFACE_SIDE_STYLE('',(#841));
#501=EDGE_LOOP('',(#842,#843));
#502=AXIS2_PLACEMENT_3D('',#844,#845,#846);
#503=SURFACE_SIDE_STYLE('',(#847));
#504=EDGE_LOOP('',(#848,#849,#850,#851,#852,#853,#854));
#505=AXIS2_PLACEMENT_3D('',#855,#856,#857);
#506=SURFACE_SIDE_STYLE('',(#858));
#507=EDGE_LOOP('',(#859,#860,#861,#862,#863,#864,#865,#866,#867,#868,#869,#870));
#508=AXIS2_PLACEMENT_3D('',#871,#872,#873);
#509=SURFACE_SIDE_STYLE('',(#874));
#510=EDGE_LOOP('',(#875,#876,#877,#878,#879,#880,#881));
#511=AXIS2_PLACEMENT_3D('',#882,#883,#884);
#512=SURFACE_SIDE_STYLE('',(#885));
#513=EDGE_LOOP('',(#886,#887,#888,#889,#890));
#514=AXIS2_PLACEMENT_3D('',#891,#892,#893);
#515=SURFACE_SIDE_STYLE('',(#894));
#516=EDGE_LOOP('',(#895,#896,#897,#898,#899,#900));
#517=AXIS2_PLACEMENT_3D('',#901,#902,#903);
#518=SURFACE_SIDE_STYLE('',(#904));
#519=EDGE_LOOP('',(#905,#906,#907,#908,#909));
#520=AXIS2_PLACEMENT_3D('',#910,#911,#912);
#521=SURFACE_SIDE_STYLE('',(#913));
#522=EDGE_LOOP('',(#914,#915,#916,#917));
#523=AXIS2_PLACEMENT_3D('',#918,#919,#920);
#524=SURFACE_SIDE_STYLE('',(#921));
#525=EDGE_LOOP('',(#922,#923,#924,#925));
#526=AXIS2_PLACEMENT_3D('',#926,#927,#928);
#527=SURFACE_SIDE_STYLE('',(#929));
#528=EDGE_LOOP('',(#930,#931,#932,#933));
#529=AXIS2_PLACEMENT_3D('',#934,#935,#936);
#530=SURFACE_SIDE_STYLE('',(#937));
#531=EDGE_LOOP('',(#938,#939,#940,#941,#942,#943,#944,#945));
#532=AXIS2_PLACEMENT_3D('',#946,#947,#948);
#533=SURFACE_SIDE_STYLE('',(#949));
#534=EDGE_LOOP('',(#950,#951,#952,#953,#954,#955));
#535=AXIS2_PLACEMENT_3D('',#956,#957,#958);
#536=SURFACE_SIDE_STYLE('',(#959));
#537=EDGE_LOOP('',(#960,#961,#962,#963,#964,#965,#966,#967,#968,#969,#970,#971));
#538=AXIS2_PLACEMENT_3D('',#972,#973,#974);
#539=SURFACE_SIDE_STYLE('',(#975));
#540=EDGE_LOOP('',(#976,#977,#978,#979));
#541=AXIS2_PLACEMENT_3D('',#980,#981,#982);
#542=SURFACE_SIDE_STYLE('',(#983));
#543=EDGE_LOOP('',(#984,#985,#986,#987));
#544=AXIS2_PLACEMENT_3D('',#988,#989,#990);
#545=SURFACE_SIDE_STYLE('',(#991));
#546=EDGE_LOOP('',(#992,#993,#994,#995,#996,#997,#998,#999,#1000));
#547=EDGE_LOOP('',(#1001,#1002));
#548=AXIS2_PLACEMENT_3D('',#1003,#1004,#1005);
#549=SURFACE_SIDE_STYLE('',(#1006));
#550=EDGE_LOOP('',(#1007,#1008,#1009,#1010));
#551=AXIS2_PLACEMENT_3D('',#1011,#1012,#1013);
#552=SURFACE_SIDE_STYLE('',(#1014));
#553=EDGE_LOOP('',(#1015,#1016,#1017,#1018));
#554=AXIS2_PLACEMENT_3D('',#1019,#1020,#1021);
#555=SURFACE_SIDE_STYLE('',(#1022));
#556=EDGE_LOOP('',(#1023,#1024,#1025,#1026));
#557=AXIS2_PLACEMENT_3D('',#1027,#1028,#1029);
#558=SURFACE_SIDE_STYLE('',(#1030));
#559=EDGE_LOOP('',(#1031,#1032,#1033,#1034));
#560=AXIS2_PLACEMENT_3D('',#1035,#1036,#1037);
#561=SURFACE_SIDE_STYLE('',(#1038));
#562=EDGE_LOOP('',(#1039,#1040,#1041,#1042));
#563=AXIS2_PLACEMENT_3D('',#1043,#1044,#1045);
#564=SURFACE_SIDE_STYLE('',(#1046));
#565=EDGE_LOOP('',(#1047,#1048,#1049,#1050,#1051,#1052));
#566=EDGE_LOOP('',(#1053,#1054));
#567=EDGE_LOOP('',(#1055,#1056,#1057,#1058));
#568=AXIS2_PLACEMENT_3D('',#1059,#1060,#1061);
#569=SURFACE_SIDE_STYLE('',(#1062));
#570=EDGE_LOOP('',(#1063,#1064,#1065,#1066,#1067,#1068));
#571=EDGE_LOOP('',(#1069,#1070));
#572=EDGE_LOOP('',(#1071,#1072,#1073,#1074));
#573=AXIS2_PLACEMENT_3D('',#1075,#1076,#1077);
#574=SURFACE_SIDE_STYLE('',(#1078));
#575=EDGE_LOOP('',(#1079,#1080,#1081,#1082));
#576=EDGE_LOOP('',(#1083,#1084,#1085,#1086));
#577=EDGE_LOOP('',(#1087,#1088,#1089,#1090));
#578=EDGE_LOOP('',(#1091,#1092,#1093,#1094));
#579=AXIS2_PLACEMENT_3D('',#1095,#1096,#1097);
#580=SURFACE_SIDE_STYLE('',(#1098));
#581=EDGE_LOOP('',(#1099,#1100,#1101,#1102));
#582=AXIS2_PLACEMENT_3D('',#1103,#1104,#1105);
#583=SURFACE_SIDE_STYLE('',(#1106));
#584=EDGE_LOOP('',(#1107,#1108,#1109,#1110));
#585=EDGE_LOOP('',(#1111,#1112,#1113,#1114));
#586=EDGE_LOOP('',(#1115,#1116,#1117,#1118));
#587=AXIS2_PLACEMENT_3D('',#1119,#1120,#1121);
#588=SURFACE_SIDE_STYLE('',(#1122));
#589=EDGE_LOOP('',(#1123,#1124,#1125,#1126));
#590=AXIS2_PLACEMENT_3D('',#1127,#1128,#1129);
#592=SURFACE_STYLE_FILL_AREA(#1130);
#593=ORIENTED_EDGE('',*,*,#1131,.F.);
#594=ORIENTED_EDGE('',*,*,#1132,.F.);
#595=ORIENTED_EDGE('',*,*,#1133,.F.);
#596=ORIENTED_EDGE('',*,*,#1134,.F.);
#597=CARTESIAN_POINT('',(3.25,1.5,0.0));
#598=DIRECTION('',(0.0,0.0,1.0));
#599=DIRECTION('',(1.0,0.0,0.0));
#600=SURFACE_STYLE_FILL_AREA(#1135);
#601=ORIENTED_EDGE('',*,*,#1136,.F.);
#602=ORIENTED_EDGE('',*,*,#1137,.F.);
#603=ORIENTED_EDGE('',*,*,#1138,.T.);
#604=ORIENTED_EDGE('',*,*,#1139,.F.);
#605=CARTESIAN_POINT('',(-3.25,1.5,0.0));
#606=DIRECTION('',(0.0,0.0,1.0));
#607=DIRECTION('',(1.0,0.0,0.0));
#608=SURFACE_STYLE_FILL_AREA(#1140);
#609=ORIENTED_EDGE('',*,*,#1141,.F.);
#610=ORIENTED_EDGE('',*,*,#1142,.F.);
#611=ORIENTED_EDGE('',*,*,#1143,.T.);
#612=ORIENTED_EDGE('',*,*,#1144,.F.);
#613=CARTESIAN_POINT('',(-3.25,1.5,0.0));
#614=DIRECTION('',(0.0,0.0,1.0));
#615=DIRECTION('',(1.0,0.0,0.0));
#616=SURFACE_STYLE_FILL_AREA(#1145);
#617=ORIENTED_EDGE('',*,*,#1146,.F.);
#618=ORIENTED_EDGE('',*,*,#1147,.T.);
#619=ORIENTED_EDGE('',*,*,#1148,.F.);
#620=ORIENTED_EDGE('',*,*,#1149,.T.);
#621=CARTESIAN_POINT('',(4.79500290797534,15.6000000000001,-1.5));
#622=DIRECTION('',(0.0,0.0,1.0));
#623=DIRECTION('',(1.0,0.0,0.0));
#624=SURFACE_STYLE_FILL_AREA(#1150);
#625=ORIENTED_EDGE('',*,*,#1151,.F.);
#626=ORIENTED_EDGE('',*,*,#1152,.T.);
#627=ORIENTED_EDGE('',*,*,#1153,.F.);
#628=ORIENTED_EDGE('',*,*,#1154,.T.);
#629=CARTESIAN_POINT('',(4.79500290797534,15.6000000000001,-1.5));
#630=DIRECTION('',(0.0,0.0,1.0));
#631=DIRECTION('',(1.0,0.0,0.0));
#632=SURFACE_STYLE_FILL_AREA(#1155);
#633=ORIENTED_EDGE('',*,*,#1156,.F.);
#634=ORIENTED_EDGE('',*,*,#1157,.F.);
#635=ORIENTED_EDGE('',*,*,#1158,.F.);
#636=ORIENTED_EDGE('',*,*,#1159,.F.);
#637=CARTESIAN_POINT('',(4.8,15.6,0.0));
#638=DIRECTION('',(0.0,0.0,1.0));
#639=DIRECTION('',(1.0,0.0,0.0));
#640=SURFACE_STYLE_FILL_AREA(#1160);
#641=ORIENTED_EDGE('',*,*,#1161,.F.);
#642=ORIENTED_EDGE('',*,*,#1162,.F.);
#643=ORIENTED_EDGE('',*,*,#1163,.F.);
#644=ORIENTED_EDGE('',*,*,#1164,.F.);
#645=CARTESIAN_POINT('',(4.8,15.6,0.0));
#646=DIRECTION('',(0.0,0.0,1.0));
#647=DIRECTION('',(1.0,0.0,0.0));
#648=SURFACE_STYLE_FILL_AREA(#1165);
#649=ORIENTED_EDGE('',*,*,#1166,.F.);
#650=ORIENTED_EDGE('',*,*,#1167,.F.);
#651=ORIENTED_EDGE('',*,*,#1168,.F.);
#652=ORIENTED_EDGE('',*,*,#1169,.F.);
#653=CARTESIAN_POINT('',(4.8,15.6,0.0));
#654=DIRECTION('',(0.0,0.0,1.0));
#655=DIRECTION('',(1.0,0.0,0.0));
#656=SURFACE_STYLE_FILL_AREA(#1170);
#657=ORIENTED_EDGE('',*,*,#1171,.F.);
#658=ORIENTED_EDGE('',*,*,#1172,.T.);
#659=CARTESIAN_POINT('',(-1.95,6.39,1.45));
#660=DIRECTION('',(0.0,0.0,1.0));
#661=DIRECTION('',(1.0,0.0,0.0));
#662=SURFACE_STYLE_FILL_AREA(#1173);
#663=ORIENTED_EDGE('',*,*,#1174,.F.);
#664=ORIENTED_EDGE('',*,*,#1172,.F.);
#665=ORIENTED_EDGE('',*,*,#1175,.F.);
#666=ORIENTED_EDGE('',*,*,#1176,.F.);
#667=CARTESIAN_POINT('',(-1.95,6.39,0.0));
#668=DIRECTION('',(0.0,0.0,1.0));
#669=DIRECTION('',(1.0,0.0,0.0));
#670=SURFACE_STYLE_FILL_AREA(#1177);
#671=ORIENTED_EDGE('',*,*,#1178,.F.);
#672=ORIENTED_EDGE('',*,*,#1176,.T.);
#673=CARTESIAN_POINT('',(-1.95,6.39,-1.45));
#674=DIRECTION('',(0.0,0.0,-1.0));
#675=DIRECTION('',(-1.0,0.0,0.0));
#676=SURFACE_STYLE_FILL_AREA(#1179);
#677=ORIENTED_EDGE('',*,*,#1180,.F.);
#678=ORIENTED_EDGE('',*,*,#1181,.F.);
#679=ORIENTED_EDGE('',*,*,#1182,.F.);
#680=ORIENTED_EDGE('',*,*,#1183,.F.);
#681=CARTESIAN_POINT('',(4.63,-1.5,0.0));
#682=DIRECTION('',(1.0,0.0,0.0));
#683=DIRECTION('',(0.0,0.0,-1.0));
#684=SURFACE_STYLE_FILL_AREA(#1184);
#685=ORIENTED_EDGE('',*,*,#1185,.F.);
#686=ORIENTED_EDGE('',*,*,#1186,.T.);
#687=ORIENTED_EDGE('',*,*,#1187,.T.);
#688=ORIENTED_EDGE('',*,*,#1181,.T.);
#689=CARTESIAN_POINT('',(5.08,-1.5,-0.2));
#690=DIRECTION('',(0.0,0.0,1.0));
#691=DIRECTION('',(1.0,0.0,0.0));
#692=SURFACE_STYLE_FILL_AREA(#1188);
#693=ORIENTED_EDGE('',*,*,#1189,.F.);
#694=ORIENTED_EDGE('',*,*,#1183,.T.);
#695=ORIENTED_EDGE('',*,*,#1190,.T.);
#696=ORIENTED_EDGE('',*,*,#1191,.T.);
#697=CARTESIAN_POINT('',(5.08,-1.5,0.2));
#698=DIRECTION('',(0.0,0.0,1.0));
#699=DIRECTION('',(1.0,0.0,0.0));
#700=SURFACE_STYLE_FILL_AREA(#1192);
#701=ORIENTED_EDGE('',*,*,#1182,.T.);
#702=ORIENTED_EDGE('',*,*,#1187,.F.);
#703=ORIENTED_EDGE('',*,*,#1193,.F.);
#704=ORIENTED_EDGE('',*,*,#1190,.F.);
#705=CARTESIAN_POINT('',(5.08,-3.5,0.0));
#706=DIRECTION('',(0.0,1.0,0.0));
#707=DIRECTION('',(0.0,0.0,1.0));
#708=SURFACE_STYLE_FILL_AREA(#1194);
#709=ORIENTED_EDGE('',*,*,#1195,.F.);
#710=ORIENTED_EDGE('',*,*,#1191,.F.);
#711=ORIENTED_EDGE('',*,*,#1193,.T.);
#712=ORIENTED_EDGE('',*,*,#1186,.F.);
#713=CARTESIAN_POINT('',(5.53,-1.5,0.0));
#714=DIRECTION('',(-1.0,0.0,0.0));
#715=DIRECTION('',(0.0,0.0,1.0));
#716=SURFACE_STYLE_FILL_AREA(#1196);
#717=ORIENTED_EDGE('',*,*,#1197,.F.);
#718=ORIENTED_EDGE('',*,*,#1198,.F.);
#719=ORIENTED_EDGE('',*,*,#1199,.F.);
#720=ORIENTED_EDGE('',*,*,#1200,.F.);
#721=CARTESIAN_POINT('',(-0.45,-1.5,0.0));
#722=DIRECTION('',(1.0,0.0,0.0));
#723=DIRECTION('',(0.0,0.0,-1.0));
#724=SURFACE_STYLE_FILL_AREA(#1201);
#725=ORIENTED_EDGE('',*,*,#1202,.F.);
#726=ORIENTED_EDGE('',*,*,#1203,.T.);
#727=ORIENTED_EDGE('',*,*,#1204,.T.);
#728=ORIENTED_EDGE('',*,*,#1198,.T.);
#729=CARTESIAN_POINT('',(0.0,-1.5,-0.2));
#730=DIRECTION('',(0.0,0.0,1.0));
#731=DIRECTION('',(1.0,0.0,0.0));
#732=SURFACE_STYLE_FILL_AREA(#1205);
#733=ORIENTED_EDGE('',*,*,#1206,.F.);
#734=ORIENTED_EDGE('',*,*,#1200,.T.);
#735=ORIENTED_EDGE('',*,*,#1207,.T.);
#736=ORIENTED_EDGE('',*,*,#1208,.T.);
#737=CARTESIAN_POINT('',(0.0,-1.5,0.2));
#738=DIRECTION('',(0.0,0.0,1.0));
#739=DIRECTION('',(1.0,0.0,0.0));
#740=SURFACE_STYLE_FILL_AREA(#1209);
#741=ORIENTED_EDGE('',*,*,#1199,.T.);
#742=ORIENTED_EDGE('',*,*,#1204,.F.);
#743=ORIENTED_EDGE('',*,*,#1210,.F.);
#744=ORIENTED_EDGE('',*,*,#1207,.F.);
#745=CARTESIAN_POINT('',(0.0,-3.5,0.0));
#746=DIRECTION('',(0.0,1.0,0.0));
#747=DIRECTION('',(0.0,0.0,1.0));
#748=SURFACE_STYLE_FILL_AREA(#1211);
#749=ORIENTED_EDGE('',*,*,#1212,.F.);
#750=ORIENTED_EDGE('',*,*,#1208,.F.);
#751=ORIENTED_EDGE('',*,*,#1210,.T.);
#752=ORIENTED_EDGE('',*,*,#1203,.F.);
#753=CARTESIAN_POINT('',(0.45,-1.5,0.0));
#754=DIRECTION('',(-1.0,0.0,0.0));
#755=DIRECTION('',(0.0,0.0,1.0));
#756=SURFACE_STYLE_FILL_AREA(#1213);
#757=ORIENTED_EDGE('',*,*,#1214,.F.);
#758=ORIENTED_EDGE('',*,*,#1215,.F.);
#759=ORIENTED_EDGE('',*,*,#1216,.F.);
#760=ORIENTED_EDGE('',*,*,#1217,.F.);
#761=CARTESIAN_POINT('',(-5.53,-1.5,0.0));
#762=DIRECTION('',(1.0,0.0,0.0));
#763=DIRECTION('',(0.0,0.0,-1.0));
#764=SURFACE_STYLE_FILL_AREA(#1218);
#765=ORIENTED_EDGE('',*,*,#1219,.F.);
#766=ORIENTED_EDGE('',*,*,#1220,.T.);
#767=ORIENTED_EDGE('',*,*,#1221,.T.);
#768=ORIENTED_EDGE('',*,*,#1215,.T.);
#769=CARTESIAN_POINT('',(-5.08,-1.5,-0.2));
#770=DIRECTION('',(0.0,0.0,1.0));
#771=DIRECTION('',(1.0,0.0,0.0));
#772=SURFACE_STYLE_FILL_AREA(#1222);
#773=ORIENTED_EDGE('',*,*,#1223,.F.);
#774=ORIENTED_EDGE('',*,*,#1217,.T.);
#775=ORIENTED_EDGE('',*,*,#1224,.T.);
#776=ORIENTED_EDGE('',*,*,#1225,.T.);
#777=CARTESIAN_POINT('',(-5.08,-1.5,0.2));
#778=DIRECTION('',(0.0,0.0,1.0));
#779=DIRECTION('',(1.0,0.0,0.0));
#780=SURFACE_STYLE_FILL_AREA(#1226);
#781=ORIENTED_EDGE('',*,*,#1216,.T.);
#782=ORIENTED_EDGE('',*,*,#1221,.F.);
#783=ORIENTED_EDGE('',*,*,#1227,.F.);
#784=ORIENTED_EDGE('',*,*,#1224,.F.);
#785=CARTESIAN_POINT('',(-5.08,-3.5,0.0));
#786=DIRECTION('',(0.0,1.0,0.0));
#787=DIRECTION('',(0.0,0.0,1.0));
#788=SURFACE_STYLE_FILL_AREA(#1228);
#789=ORIENTED_EDGE('',*,*,#1229,.F.);
#790=ORIENTED_EDGE('',*,*,#1225,.F.);
#791=ORIENTED_EDGE('',*,*,#1227,.T.);
#792=ORIENTED_EDGE('',*,*,#1220,.F.);
#793=CARTESIAN_POINT('',(-4.63,-1.5,0.0));
#794=DIRECTION('',(-1.0,0.0,0.0));
#795=DIRECTION('',(0.0,0.0,1.0));
#796=SURFACE_STYLE_FILL_AREA(#1230);
#797=ORIENTED_EDGE('',*,*,#1231,.F.);
#798=ORIENTED_EDGE('',*,*,#1232,.T.);
#799=ORIENTED_EDGE('',*,*,#1233,.F.);
#800=ORIENTED_EDGE('',*,*,#1234,.F.);
#801=ORIENTED_EDGE('',*,*,#1235,.F.);
#802=ORIENTED_EDGE('',*,*,#1154,.F.);
#803=ORIENTED_EDGE('',*,*,#1236,.F.);
#804=ORIENTED_EDGE('',*,*,#1237,.T.);
#805=ORIENTED_EDGE('',*,*,#1238,.T.);
#806=ORIENTED_EDGE('',*,*,#1239,.T.);
#807=ORIENTED_EDGE('',*,*,#1164,.T.);
#808=CARTESIAN_POINT('',(2.12848626208133,11.3493980381795,-1.5));
#809=DIRECTION('',(0.0,0.0,1.0));
#810=DIRECTION('',(1.0,0.0,0.0));
#811=SURFACE_STYLE_FILL_AREA(#1240);
#812=ORIENTED_EDGE('',*,*,#1241,.F.);
#813=ORIENTED_EDGE('',*,*,#1242,.T.);
#814=ORIENTED_EDGE('',*,*,#1243,.F.);
#815=ORIENTED_EDGE('',*,*,#1232,.F.);
#816=CARTESIAN_POINT('',(-5.28552062570474,6.61196928684171,-1.5));
#817=DIRECTION('',(-0.983283603836785,0.182080626168039,0.0));
#818=DIRECTION('',(-0.182080626168039,-0.983283603836785,-0.0));
#819=SURFACE_STYLE_FILL_AREA(#1244);
#820=ORIENTED_EDGE('',*,*,#1166,.T.);
#821=ORIENTED_EDGE('',*,*,#1245,.F.);
#822=ORIENTED_EDGE('',*,*,#1168,.T.);
#823=ORIENTED_EDGE('',*,*,#1246,.F.);
#824=CARTESIAN_POINT('',(4.8,15.6,0.0));
#825=DIRECTION('',(0.0,0.0,1.0));
#826=DIRECTION('',(1.0,0.0,0.0));
#827=SURFACE_STYLE_FILL_AREA(#1247);
#828=ORIENTED_EDGE('',*,*,#1161,.T.);
#829=ORIENTED_EDGE('',*,*,#1239,.F.);
#830=ORIENTED_EDGE('',*,*,#1163,.T.);
#831=ORIENTED_EDGE('',*,*,#1248,.F.);
#832=CARTESIAN_POINT('',(4.8,15.6,0.0));
#833=DIRECTION('',(0.0,0.0,1.0));
#834=DIRECTION('',(1.0,0.0,0.0));
#835=SURFACE_STYLE_FILL_AREA(#1249);
#836=ORIENTED_EDGE('',*,*,#1248,.T.);
#837=ORIENTED_EDGE('',*,*,#1162,.T.);
#838=CARTESIAN_POINT('',(4.8,15.6,-2.3));
#839=DIRECTION('',(0.0,0.0,-1.0));
#840=DIRECTION('',(-1.0,0.0,0.0));
#841=SURFACE_STYLE_FILL_AREA(#1250);
#842=ORIENTED_EDGE('',*,*,#1169,.T.);
#843=ORIENTED_EDGE('',*,*,#1245,.T.);
#844=CARTESIAN_POINT('',(4.8,15.6,2.3));
#845=DIRECTION('',(0.0,0.0,1.0));
#846=DIRECTION('',(1.0,0.0,0.0));
#847=SURFACE_STYLE_FILL_AREA(#1251);
#848=ORIENTED_EDGE('',*,*,#1252,.F.);
#849=ORIENTED_EDGE('',*,*,#1152,.F.);
#850=ORIENTED_EDGE('',*,*,#1253,.F.);
#851=ORIENTED_EDGE('',*,*,#1254,.F.);
#852=ORIENTED_EDGE('',*,*,#1255,.T.);
#853=ORIENTED_EDGE('',*,*,#1157,.T.);
#854=ORIENTED_EDGE('',*,*,#1256,.T.);
#855=CARTESIAN_POINT('',(4.8,15.6,-1.2));
#856=DIRECTION('',(0.0,0.0,-1.0));
#857=DIRECTION('',(-1.0,0.0,0.0));
#858=SURFACE_STYLE_FILL_AREA(#1257);
#859=ORIENTED_EDGE('',*,*,#1156,.T.);
#860=ORIENTED_EDGE('',*,*,#1258,.F.);
#861=ORIENTED_EDGE('',*,*,#1259,.F.);
#862=ORIENTED_EDGE('',*,*,#1260,.F.);
#863=ORIENTED_EDGE('',*,*,#1261,.F.);
#864=ORIENTED_EDGE('',*,*,#1262,.F.);
#865=ORIENTED_EDGE('',*,*,#1158,.T.);
#866=ORIENTED_EDGE('',*,*,#1255,.F.);
#867=ORIENTED_EDGE('',*,*,#1263,.F.);
#868=ORIENTED_EDGE('',*,*,#1264,.F.);
#869=ORIENTED_EDGE('',*,*,#1265,.F.);
#870=ORIENTED_EDGE('',*,*,#1256,.F.);
#871=CARTESIAN_POINT('',(4.8,15.6,0.0));
#872=DIRECTION('',(0.0,0.0,1.0));
#873=DIRECTION('',(1.0,0.0,0.0));
#874=SURFACE_STYLE_FILL_AREA(#1266);
#875=ORIENTED_EDGE('',*,*,#1267,.F.);
#876=ORIENTED_EDGE('',*,*,#1268,.F.);
#877=ORIENTED_EDGE('',*,*,#1149,.F.);
#878=ORIENTED_EDGE('',*,*,#1269,.F.);
#879=ORIENTED_EDGE('',*,*,#1258,.T.);
#880=ORIENTED_EDGE('',*,*,#1159,.T.);
#881=ORIENTED_EDGE('',*,*,#1262,.T.);
#882=CARTESIAN_POINT('',(4.8,15.6,1.2));
#883=DIRECTION('',(0.0,0.0,1.0));
#884=DIRECTION('',(1.0,0.0,0.0));
#885=SURFACE_STYLE_FILL_AREA(#1270);
#886=ORIENTED_EDGE('',*,*,#1264,.T.);
#887=ORIENTED_EDGE('',*,*,#1271,.F.);
#888=ORIENTED_EDGE('',*,*,#1272,.F.);
#889=ORIENTED_EDGE('',*,*,#1273,.F.);
#890=ORIENTED_EDGE('',*,*,#1274,.F.);
#891=CARTESIAN_POINT('',(4.73402762169709,15.7365632167297,-1.19));
#892=DIRECTION('',(0.0,-0.0,1.0));
#893=DIRECTION('',(0.906381534033883,0.422460074755456,0.0));
#894=SURFACE_STYLE_FILL_AREA(#1275);
#895=ORIENTED_EDGE('',*,*,#1263,.T.);
#896=ORIENTED_EDGE('',*,*,#1254,.T.);
#897=ORIENTED_EDGE('',*,*,#1276,.F.);
#898=ORIENTED_EDGE('',*,*,#1234,.T.);
#899=ORIENTED_EDGE('',*,*,#1277,.T.);
#900=ORIENTED_EDGE('',*,*,#1271,.T.);
#901=CARTESIAN_POINT('',(3.76380993939876,13.0782662587898,-1.5));
#902=DIRECTION('',(-0.906378357479575,-0.422466889936512,0.0));
#903=DIRECTION('',(0.422466889936512,-0.906378357479575,0.0));
#904=SURFACE_STYLE_FILL_AREA(#1278);
#905=ORIENTED_EDGE('',*,*,#1260,.T.);
#906=ORIENTED_EDGE('',*,*,#1279,.F.);
#907=ORIENTED_EDGE('',*,*,#1280,.F.);
#908=ORIENTED_EDGE('',*,*,#1281,.F.);
#909=ORIENTED_EDGE('',*,*,#1282,.F.);
#910=CARTESIAN_POINT('',(4.73402762169709,15.7365632167297,1.19));
#911=DIRECTION('',(0.0,-0.0,1.0));
#912=DIRECTION('',(0.906381534033883,0.422460074755456,0.0));
#913=SURFACE_STYLE_FILL_AREA(#1283);
#914=ORIENTED_EDGE('',*,*,#1284,.F.);
#915=ORIENTED_EDGE('',*,*,#1273,.T.);
#916=ORIENTED_EDGE('',*,*,#1285,.F.);
#917=ORIENTED_EDGE('',*,*,#1280,.T.);
#918=CARTESIAN_POINT('',(6.3604989095056,12.2469943106993,0.0));
#919=DIRECTION('',(-0.422460074755456,0.906381534033883,0.0));
#920=DIRECTION('',(0.0,0.0,1.0));
#921=SURFACE_STYLE_FILL_AREA(#1286);
#922=ORIENTED_EDGE('',*,*,#1151,.T.);
#923=ORIENTED_EDGE('',*,*,#1235,.T.);
#924=ORIENTED_EDGE('',*,*,#1276,.T.);
#925=ORIENTED_EDGE('',*,*,#1253,.T.);
#926=CARTESIAN_POINT('',(4.79500290797534,15.6000000000001,-1.5));
#927=DIRECTION('',(0.0,0.0,1.0));
#928=DIRECTION('',(1.0,0.0,0.0));
#929=SURFACE_STYLE_FILL_AREA(#1287);
#930=ORIENTED_EDGE('',*,*,#1146,.T.);
#931=ORIENTED_EDGE('',*,*,#1268,.T.);
#932=ORIENTED_EDGE('',*,*,#1288,.T.);
#933=ORIENTED_EDGE('',*,*,#1289,.T.);
#934=CARTESIAN_POINT('',(4.79500290797534,15.6000000000001,-1.5));
#935=DIRECTION('',(0.0,0.0,1.0));
#936=DIRECTION('',(1.0,0.0,0.0));
#937=SURFACE_STYLE_FILL_AREA(#1290);
#938=ORIENTED_EDGE('',*,*,#1281,.T.);
#939=ORIENTED_EDGE('',*,*,#1285,.T.);
#940=ORIENTED_EDGE('',*,*,#1272,.T.);
#941=ORIENTED_EDGE('',*,*,#1277,.F.);
#942=ORIENTED_EDGE('',*,*,#1233,.T.);
#943=ORIENTED_EDGE('',*,*,#1243,.T.);
#944=ORIENTED_EDGE('',*,*,#1291,.T.);
#945=ORIENTED_EDGE('',*,*,#1292,.F.);
#946=CARTESIAN_POINT('',(-0.349069444608388,9.12014509179539,-1.5));
#947=DIRECTION('',(-0.422466889936515,0.906378357479573,0.0));
#948=DIRECTION('',(-0.906378357479573,-0.422466889936515,0.0));
#949=SURFACE_STYLE_FILL_AREA(#1293);
#950=ORIENTED_EDGE('',*,*,#1261,.T.);
#951=ORIENTED_EDGE('',*,*,#1282,.T.);
#952=ORIENTED_EDGE('',*,*,#1292,.T.);
#953=ORIENTED_EDGE('',*,*,#1294,.T.);
#954=ORIENTED_EDGE('',*,*,#1288,.F.);
#955=ORIENTED_EDGE('',*,*,#1267,.T.);
#956=CARTESIAN_POINT('',(3.76380993939876,13.0782662587898,-1.5));
#957=DIRECTION('',(-0.906378357479575,-0.422466889936512,0.0));
#958=DIRECTION('',(0.422466889936512,-0.906378357479575,0.0));
#959=SURFACE_STYLE_FILL_AREA(#1295);
#960=ORIENTED_EDGE('',*,*,#1265,.T.);
#961=ORIENTED_EDGE('',*,*,#1274,.T.);
#962=ORIENTED_EDGE('',*,*,#1284,.T.);
#963=ORIENTED_EDGE('',*,*,#1279,.T.);
#964=ORIENTED_EDGE('',*,*,#1259,.T.);
#965=ORIENTED_EDGE('',*,*,#1269,.T.);
#966=ORIENTED_EDGE('',*,*,#1148,.T.);
#967=ORIENTED_EDGE('',*,*,#1296,.T.);
#968=ORIENTED_EDGE('',*,*,#1297,.F.);
#969=ORIENTED_EDGE('',*,*,#1236,.T.);
#970=ORIENTED_EDGE('',*,*,#1153,.T.);
#971=ORIENTED_EDGE('',*,*,#1252,.T.);
#972=CARTESIAN_POINT('',(7.45269340280754,14.6321770649139,-1.5));
#973=DIRECTION('',(0.906378357479572,0.422466889936517,0.0));
#974=DIRECTION('',(-0.422466889936517,0.906378357479572,0.0));
#975=SURFACE_STYLE_FILL_AREA(#1298);
#976=ORIENTED_EDGE('',*,*,#1299,.T.);
#977=ORIENTED_EDGE('',*,*,#1300,.F.);
#978=ORIENTED_EDGE('',*,*,#1237,.F.);
#979=ORIENTED_EDGE('',*,*,#1297,.T.);
#980=CARTESIAN_POINT('',(1.66081534924743,9.72597352256014,-1.5));
#981=DIRECTION('',(0.422466889936514,-0.906378357479573,0.0));
#982=DIRECTION('',(0.906378357479573,0.422466889936514,0.0));
#983=SURFACE_STYLE_FILL_AREA(#1301);
#984=ORIENTED_EDGE('',*,*,#1302,.F.);
#985=ORIENTED_EDGE('',*,*,#1238,.F.);
#986=ORIENTED_EDGE('',*,*,#1300,.T.);
#987=ORIENTED_EDGE('',*,*,#1303,.T.);
#988=CARTESIAN_POINT('',(-4.99881630540778,6.50882069135535,-1.5));
#989=DIRECTION('',(0.983408015119792,-0.181407485507493,0.0));
#990=DIRECTION('',(0.181407485507493,0.983408015119792,0.0));
#991=SURFACE_STYLE_FILL_AREA(#1304);
#992=ORIENTED_EDGE('',*,*,#1305,.F.);
#993=ORIENTED_EDGE('',*,*,#1303,.F.);
#994=ORIENTED_EDGE('',*,*,#1299,.F.);
#995=ORIENTED_EDGE('',*,*,#1296,.F.);
#996=ORIENTED_EDGE('',*,*,#1147,.F.);
#997=ORIENTED_EDGE('',*,*,#1289,.F.);
#998=ORIENTED_EDGE('',*,*,#1294,.F.);
#999=ORIENTED_EDGE('',*,*,#1291,.F.);
#1000=ORIENTED_EDGE('',*,*,#1242,.F.);
#1001=ORIENTED_EDGE('',*,*,#1167,.T.);
#1002=ORIENTED_EDGE('',*,*,#1246,.T.);
#1003=CARTESIAN_POINT('',(2.12848626208133,11.3493980381795,1.5));
#1004=DIRECTION('',(0.0,0.0,1.0));
#1005=DIRECTION('',(1.0,0.0,0.0));
#1006=SURFACE_STYLE_FILL_AREA(#1306);
#1007=ORIENTED_EDGE('',*,*,#1307,.F.);
#1008=ORIENTED_EDGE('',*,*,#1308,.F.);
#1009=ORIENTED_EDGE('',*,*,#1309,.F.);
#1010=ORIENTED_EDGE('',*,*,#1310,.F.);
#1011=CARTESIAN_POINT('',(-2.5,0.5,0.0));
#1012=DIRECTION('',(0.0,1.0,0.0));
#1013=DIRECTION('',(0.0,0.0,1.0));
#1014=SURFACE_STYLE_FILL_AREA(#1311);
#1015=ORIENTED_EDGE('',*,*,#1141,.T.);
#1016=ORIENTED_EDGE('',*,*,#1312,.F.);
#1017=ORIENTED_EDGE('',*,*,#1310,.T.);
#1018=ORIENTED_EDGE('',*,*,#1313,.F.);
#1019=CARTESIAN_POINT('',(-3.25,1.5,0.0));
#1020=DIRECTION('',(0.0,0.0,1.0));
#1021=DIRECTION('',(1.0,0.0,0.0));
#1022=SURFACE_STYLE_FILL_AREA(#1314);
#1023=ORIENTED_EDGE('',*,*,#1315,.F.);
#1024=ORIENTED_EDGE('',*,*,#1143,.F.);
#1025=ORIENTED_EDGE('',*,*,#1316,.F.);
#1026=ORIENTED_EDGE('',*,*,#1138,.F.);
#1027=CARTESIAN_POINT('',(-2.5,2.5,0.0));
#1028=DIRECTION('',(0.0,-1.0,0.0));
#1029=DIRECTION('',(0.0,0.0,-1.0));
#1030=SURFACE_STYLE_FILL_AREA(#1317);
#1031=ORIENTED_EDGE('',*,*,#1136,.T.);
#1032=ORIENTED_EDGE('',*,*,#1318,.F.);
#1033=ORIENTED_EDGE('',*,*,#1308,.T.);
#1034=ORIENTED_EDGE('',*,*,#1319,.F.);
#1035=CARTESIAN_POINT('',(-3.25,1.5,0.0));
#1036=DIRECTION('',(0.0,0.0,1.0));
#1037=DIRECTION('',(1.0,0.0,0.0));
#1038=SURFACE_STYLE_FILL_AREA(#1320);
#1039=ORIENTED_EDGE('',*,*,#1131,.T.);
#1040=ORIENTED_EDGE('',*,*,#1321,.F.);
#1041=ORIENTED_EDGE('',*,*,#1133,.T.);
#1042=ORIENTED_EDGE('',*,*,#1322,.F.);
#1043=CARTESIAN_POINT('',(3.25,1.5,0.0));
#1044=DIRECTION('',(0.0,0.0,1.0));
#1045=DIRECTION('',(1.0,0.0,0.0));
#1046=SURFACE_STYLE_FILL_AREA(#1323);
#1047=ORIENTED_EDGE('',*,*,#1315,.T.);
#1048=ORIENTED_EDGE('',*,*,#1137,.T.);
#1049=ORIENTED_EDGE('',*,*,#1319,.T.);
#1050=ORIENTED_EDGE('',*,*,#1307,.T.);
#1051=ORIENTED_EDGE('',*,*,#1312,.T.);
#1052=ORIENTED_EDGE('',*,*,#1144,.T.);
#1053=ORIENTED_EDGE('',*,*,#1132,.T.);
#1054=ORIENTED_EDGE('',*,*,#1322,.T.);
#1055=ORIENTED_EDGE('',*,*,#1324,.T.);
#1056=ORIENTED_EDGE('',*,*,#1325,.T.);
#1057=ORIENTED_EDGE('',*,*,#1326,.T.);
#1058=ORIENTED_EDGE('',*,*,#1327,.T.);
#1059=CARTESIAN_POINT('',(0.0,3.25,2.9));
#1060=DIRECTION('',(0.0,0.0,1.0));
#1061=DIRECTION('',(1.0,0.0,0.0));
#1062=SURFACE_STYLE_FILL_AREA(#1328);
#1063=ORIENTED_EDGE('',*,*,#1316,.T.);
#1064=ORIENTED_EDGE('',*,*,#1142,.T.);
#1065=ORIENTED_EDGE('',*,*,#1313,.T.);
#1066=ORIENTED_EDGE('',*,*,#1309,.T.);
#1067=ORIENTED_EDGE('',*,*,#1318,.T.);
#1068=ORIENTED_EDGE('',*,*,#1139,.T.);
#1069=ORIENTED_EDGE('',*,*,#1321,.T.);
#1070=ORIENTED_EDGE('',*,*,#1134,.T.);
#1071=ORIENTED_EDGE('',*,*,#1329,.T.);
#1072=ORIENTED_EDGE('',*,*,#1330,.T.);
#1073=ORIENTED_EDGE('',*,*,#1331,.T.);
#1074=ORIENTED_EDGE('',*,*,#1332,.T.);
#1075=CARTESIAN_POINT('',(0.0,3.25,-2.9));
#1076=DIRECTION('',(0.0,0.0,1.0));
#1077=DIRECTION('',(1.0,0.0,0.0));
#1078=SURFACE_STYLE_FILL_AREA(#1333);
#1079=ORIENTED_EDGE('',*,*,#1185,.T.);
#1080=ORIENTED_EDGE('',*,*,#1180,.T.);
#1081=ORIENTED_EDGE('',*,*,#1189,.T.);
#1082=ORIENTED_EDGE('',*,*,#1195,.T.);
#1083=ORIENTED_EDGE('',*,*,#1202,.T.);
#1084=ORIENTED_EDGE('',*,*,#1197,.T.);
#1085=ORIENTED_EDGE('',*,*,#1206,.T.);
#1086=ORIENTED_EDGE('',*,*,#1212,.T.);
#1087=ORIENTED_EDGE('',*,*,#1219,.T.);
#1088=ORIENTED_EDGE('',*,*,#1214,.T.);
#1089=ORIENTED_EDGE('',*,*,#1223,.T.);
#1090=ORIENTED_EDGE('',*,*,#1229,.T.);
#1091=ORIENTED_EDGE('',*,*,#1334,.T.);
#1092=ORIENTED_EDGE('',*,*,#1330,.F.);
#1093=ORIENTED_EDGE('',*,*,#1335,.F.);
#1094=ORIENTED_EDGE('',*,*,#1327,.F.);
#1095=CARTESIAN_POINT('',(0.0,0.0,0.0));
#1096=DIRECTION('',(0.0,1.0,0.0));
#1097=DIRECTION('',(0.0,0.0,1.0));
#1098=SURFACE_STYLE_FILL_AREA(#1336);
#1099=ORIENTED_EDGE('',*,*,#1337,.T.);
#1100=ORIENTED_EDGE('',*,*,#1331,.F.);
#1101=ORIENTED_EDGE('',*,*,#1334,.F.);
#1102=ORIENTED_EDGE('',*,*,#1326,.F.);
#1103=CARTESIAN_POINT('',(-6.4,3.25,0.0));
#1104=DIRECTION('',(1.0,0.0,0.0));
#1105=DIRECTION('',(0.0,0.0,-1.0));
#1106=SURFACE_STYLE_FILL_AREA(#1338);
#1107=ORIENTED_EDGE('',*,*,#1175,.T.);
#1108=ORIENTED_EDGE('',*,*,#1171,.T.);
#1109=ORIENTED_EDGE('',*,*,#1174,.T.);
#1110=ORIENTED_EDGE('',*,*,#1178,.T.);
#1111=ORIENTED_EDGE('',*,*,#1241,.T.);
#1112=ORIENTED_EDGE('',*,*,#1231,.T.);
#1113=ORIENTED_EDGE('',*,*,#1302,.T.);
#1114=ORIENTED_EDGE('',*,*,#1305,.T.);
#1115=ORIENTED_EDGE('',*,*,#1339,.T.);
#1116=ORIENTED_EDGE('',*,*,#1332,.F.);
#1117=ORIENTED_EDGE('',*,*,#1337,.F.);
#1118=ORIENTED_EDGE('',*,*,#1325,.F.);
#1119=CARTESIAN_POINT('',(0.0,6.5,0.0));
#1120=DIRECTION('',(0.0,-1.0,0.0));
#1121=DIRECTION('',(0.0,0.0,-1.0));
#1122=SURFACE_STYLE_FILL_AREA(#1340);
#1123=ORIENTED_EDGE('',*,*,#1335,.T.);
#1124=ORIENTED_EDGE('',*,*,#1329,.F.);
#1125=ORIENTED_EDGE('',*,*,#1339,.F.);
#1126=ORIENTED_EDGE('',*,*,#1324,.F.);
#1127=CARTESIAN_POINT('',(6.4,3.25,0.0));
#1128=DIRECTION('',(-1.0,0.0,0.0));
#1129=DIRECTION('',(0.0,0.0,1.0));
#1130=FILL_AREA_STYLE('',(#1341));
#1131=EDGE_CURVE('',#1342,#1343,#1344,.T.);
#1132=EDGE_CURVE('',#1345,#1342,#1346,.T.);
#1133=EDGE_CURVE('',#1347,#1345,#1348,.T.);
#1134=EDGE_CURVE('',#1343,#1347,#1349,.T.);
#1135=FILL_AREA_STYLE('',(#1350));
#1136=EDGE_CURVE('',#1351,#1352,#1353,.T.);
#1137=EDGE_CURVE('',#1354,#1351,#1355,.T.);
#1138=EDGE_CURVE('',#1354,#1356,#1357,.T.);
#1139=EDGE_CURVE('',#1352,#1356,#1358,.T.);
#1140=FILL_AREA_STYLE('',(#1359));
#1141=EDGE_CURVE('',#1360,#1361,#1362,.T.);
#1142=EDGE_CURVE('',#1363,#1360,#1364,.T.);
#1143=EDGE_CURVE('',#1363,#1365,#1366,.T.);
#1144=EDGE_CURVE('',#1361,#1365,#1367,.T.);
#1145=FILL_AREA_STYLE('',(#1368));
#1146=EDGE_CURVE('',#1369,#1370,#1371,.T.);
#1147=EDGE_CURVE('',#1369,#1372,#1373,.T.);
#1148=EDGE_CURVE('',#1374,#1372,#1375,.T.);
#1149=EDGE_CURVE('',#1374,#1370,#1376,.T.);
#1150=FILL_AREA_STYLE('',(#1377));
#1151=EDGE_CURVE('',#1378,#1379,#1380,.T.);
#1152=EDGE_CURVE('',#1378,#1381,#1382,.T.);
#1153=EDGE_CURVE('',#1383,#1381,#1384,.T.);
#1154=EDGE_CURVE('',#1383,#1379,#1385,.T.);
#1155=FILL_AREA_STYLE('',(#1386));
#1156=EDGE_CURVE('',#1387,#1388,#1389,.T.);
#1157=EDGE_CURVE('',#1390,#1387,#1391,.T.);
#1158=EDGE_CURVE('',#1392,#1390,#1393,.T.);
#1159=EDGE_CURVE('',#1388,#1392,#1394,.T.);
#1160=FILL_AREA_STYLE('',(#1395));
#1161=EDGE_CURVE('',#1396,#1397,#1398,.T.);
#1162=EDGE_CURVE('',#1399,#1396,#1400,.T.);
#1163=EDGE_CURVE('',#1401,#1399,#1402,.T.);
#1164=EDGE_CURVE('',#1397,#1401,#1403,.T.);
#1165=FILL_AREA_STYLE('',(#1404));
#1166=EDGE_CURVE('',#1405,#1406,#1407,.T.);
#1167=EDGE_CURVE('',#1408,#1405,#1409,.T.);
#1168=EDGE_CURVE('',#1410,#1408,#1411,.T.);
#1169=EDGE_CURVE('',#1406,#1410,#1412,.T.);
#1170=FILL_AREA_STYLE('',(#1413));
#1171=EDGE_CURVE('',#1414,#1415,#1416,.T.);
#1172=EDGE_CURVE('',#1414,#1415,#1417,.T.);
#1173=FILL_AREA_STYLE('',(#1418));
#1174=EDGE_CURVE('',#1415,#1419,#1420,.T.);
#1175=EDGE_CURVE('',#1421,#1414,#1422,.T.);
#1176=EDGE_CURVE('',#1419,#1421,#1423,.T.);
#1177=FILL_AREA_STYLE('',(#1424));
#1178=EDGE_CURVE('',#1419,#1421,#1425,.T.);
#1179=FILL_AREA_STYLE('',(#1426));
#1180=EDGE_CURVE('',#1427,#1428,#1429,.T.);
#1181=EDGE_CURVE('',#1430,#1427,#1431,.T.);
#1182=EDGE_CURVE('',#1432,#1430,#1433,.T.);
#1183=EDGE_CURVE('',#1428,#1432,#1434,.T.);
#1184=FILL_AREA_STYLE('',(#1435));
#1185=EDGE_CURVE('',#1436,#1427,#1437,.T.);
#1186=EDGE_CURVE('',#1436,#1438,#1439,.T.);
#1187=EDGE_CURVE('',#1438,#1430,#1440,.T.);
#1188=FILL_AREA_STYLE('',(#1441));
#1189=EDGE_CURVE('',#1428,#1442,#1443,.T.);
#1190=EDGE_CURVE('',#1432,#1444,#1445,.T.);
#1191=EDGE_CURVE('',#1444,#1442,#1446,.T.);
#1192=FILL_AREA_STYLE('',(#1447));
#1193=EDGE_CURVE('',#1444,#1438,#1448,.T.);
#1194=FILL_AREA_STYLE('',(#1449));
#1195=EDGE_CURVE('',#1442,#1436,#1450,.T.);
#1196=FILL_AREA_STYLE('',(#1451));
#1197=EDGE_CURVE('',#1452,#1453,#1454,.T.);
#1198=EDGE_CURVE('',#1455,#1452,#1456,.T.);
#1199=EDGE_CURVE('',#1457,#1455,#1458,.T.);
#1200=EDGE_CURVE('',#1453,#1457,#1459,.T.);
#1201=FILL_AREA_STYLE('',(#1460));
#1202=EDGE_CURVE('',#1461,#1452,#1462,.T.);
#1203=EDGE_CURVE('',#1461,#1463,#1464,.T.);
#1204=EDGE_CURVE('',#1463,#1455,#1465,.T.);
#1205=FILL_AREA_STYLE('',(#1466));
#1206=EDGE_CURVE('',#1453,#1467,#1468,.T.);
#1207=EDGE_CURVE('',#1457,#1469,#1470,.T.);
#1208=EDGE_CURVE('',#1469,#1467,#1471,.T.);
#1209=FILL_AREA_STYLE('',(#1472));
#1210=EDGE_CURVE('',#1469,#1463,#1473,.T.);
#1211=FILL_AREA_STYLE('',(#1474));
#1212=EDGE_CURVE('',#1467,#1461,#1475,.T.);
#1213=FILL_AREA_STYLE('',(#1476));
#1214=EDGE_CURVE('',#1477,#1478,#1479,.T.);
#1215=EDGE_CURVE('',#1480,#1477,#1481,.T.);
#1216=EDGE_CURVE('',#1482,#1480,#1483,.T.);
#1217=EDGE_CURVE('',#1478,#1482,#1484,.T.);
#1218=FILL_AREA_STYLE('',(#1485));
#1219=EDGE_CURVE('',#1486,#1477,#1487,.T.);
#1220=EDGE_CURVE('',#1486,#1488,#1489,.T.);
#1221=EDGE_CURVE('',#1488,#1480,#1490,.T.);
#1222=FILL_AREA_STYLE('',(#1491));
#1223=EDGE_CURVE('',#1478,#1492,#1493,.T.);
#1224=EDGE_CURVE('',#1482,#1494,#1495,.T.);
#1225=EDGE_CURVE('',#1494,#1492,#1496,.T.);
#1226=FILL_AREA_STYLE('',(#1497));
#1227=EDGE_CURVE('',#1494,#1488,#1498,.T.);
#1228=FILL_AREA_STYLE('',(#1499));
#1229=EDGE_CURVE('',#1492,#1486,#1500,.T.);
#1230=FILL_AREA_STYLE('',(#1501));
#1231=EDGE_CURVE('',#1502,#1503,#1504,.T.);
#1232=EDGE_CURVE('',#1502,#1505,#1506,.T.);
#1233=EDGE_CURVE('',#1507,#1505,#1508,.T.);
#1234=EDGE_CURVE('',#1509,#1507,#1510,.T.);
#1235=EDGE_CURVE('',#1379,#1509,#1511,.T.);
#1236=EDGE_CURVE('',#1512,#1383,#1513,.T.);
#1237=EDGE_CURVE('',#1512,#1514,#1515,.T.);
#1238=EDGE_CURVE('',#1514,#1503,#1516,.T.);
#1239=EDGE_CURVE('',#1401,#1397,#1517,.T.);
#1240=FILL_AREA_STYLE('',(#1518));
#1241=EDGE_CURVE('',#1519,#1502,#1520,.T.);
#1242=EDGE_CURVE('',#1519,#1521,#1522,.T.);
#1243=EDGE_CURVE('',#1505,#1521,#1523,.T.);
#1244=FILL_AREA_STYLE('',(#1524));
#1245=EDGE_CURVE('',#1410,#1406,#1525,.T.);
#1246=EDGE_CURVE('',#1405,#1408,#1526,.T.);
#1247=FILL_AREA_STYLE('',(#1527));
#1248=EDGE_CURVE('',#1396,#1399,#1528,.T.);
#1249=FILL_AREA_STYLE('',(#1529));
#1250=FILL_AREA_STYLE('',(#1530));
#1251=FILL_AREA_STYLE('',(#1531));
#1252=EDGE_CURVE('',#1381,#1532,#1533,.T.);
#1253=EDGE_CURVE('',#1534,#1378,#1535,.T.);
#1254=EDGE_CURVE('',#1536,#1534,#1537,.T.);
#1255=EDGE_CURVE('',#1536,#1390,#1538,.T.);
#1256=EDGE_CURVE('',#1387,#1532,#1539,.T.);
#1257=FILL_AREA_STYLE('',(#1540));
#1258=EDGE_CURVE('',#1541,#1388,#1542,.T.);
#1259=EDGE_CURVE('',#1543,#1541,#1544,.T.);
#1260=EDGE_CURVE('',#1545,#1543,#1546,.T.);
#1261=EDGE_CURVE('',#1547,#1545,#1548,.T.);
#1262=EDGE_CURVE('',#1392,#1547,#1549,.T.);
#1263=EDGE_CURVE('',#1550,#1536,#1551,.T.);
#1264=EDGE_CURVE('',#1552,#1550,#1553,.T.);
#1265=EDGE_CURVE('',#1532,#1552,#1554,.T.);
#1266=FILL_AREA_STYLE('',(#1555));
#1267=EDGE_CURVE('',#1556,#1547,#1557,.T.);
#1268=EDGE_CURVE('',#1370,#1556,#1558,.T.);
#1269=EDGE_CURVE('',#1541,#1374,#1559,.T.);
#1270=FILL_AREA_STYLE('',(#1560));
#1271=EDGE_CURVE('',#1561,#1550,#1562,.T.);
#1272=EDGE_CURVE('',#1563,#1561,#1564,.T.);
#1273=EDGE_CURVE('',#1565,#1563,#1566,.T.);
#1274=EDGE_CURVE('',#1552,#1565,#1567,.T.);
#1275=FILL_AREA_STYLE('',(#1568));
#1276=EDGE_CURVE('',#1509,#1534,#1569,.T.);
#1277=EDGE_CURVE('',#1507,#1561,#1570,.T.);
#1278=FILL_AREA_STYLE('',(#1571));
#1279=EDGE_CURVE('',#1572,#1543,#1573,.T.);
#1280=EDGE_CURVE('',#1574,#1572,#1575,.T.);
#1281=EDGE_CURVE('',#1576,#1574,#1577,.T.);
#1282=EDGE_CURVE('',#1545,#1576,#1578,.T.);
#1283=FILL_AREA_STYLE('',(#1579));
#1284=EDGE_CURVE('',#1565,#1572,#1580,.T.);
#1285=EDGE_CURVE('',#1574,#1563,#1581,.T.);
#1286=FILL_AREA_STYLE('',(#1582));
#1287=FILL_AREA_STYLE('',(#1583));
#1288=EDGE_CURVE('',#1556,#1584,#1585,.T.);
#1289=EDGE_CURVE('',#1584,#1369,#1586,.T.);
#1290=FILL_AREA_STYLE('',(#1587));
#1291=EDGE_CURVE('',#1521,#1588,#1589,.T.);
#1292=EDGE_CURVE('',#1576,#1588,#1590,.T.);
#1293=FILL_AREA_STYLE('',(#1591));
#1294=EDGE_CURVE('',#1588,#1584,#1592,.T.);
#1295=FILL_AREA_STYLE('',(#1593));
#1296=EDGE_CURVE('',#1372,#1594,#1595,.T.);
#1297=EDGE_CURVE('',#1512,#1594,#1596,.T.);
#1298=FILL_AREA_STYLE('',(#1597));
#1299=EDGE_CURVE('',#1594,#1598,#1599,.T.);
#1300=EDGE_CURVE('',#1514,#1598,#1600,.T.);
#1301=FILL_AREA_STYLE('',(#1601));
#1302=EDGE_CURVE('',#1503,#1602,#1603,.T.);
#1303=EDGE_CURVE('',#1598,#1602,#1604,.T.);
#1304=FILL_AREA_STYLE('',(#1605));
#1305=EDGE_CURVE('',#1602,#1519,#1606,.T.);
#1306=FILL_AREA_STYLE('',(#1607));
#1307=EDGE_CURVE('',#1608,#1609,#1610,.T.);
#1308=EDGE_CURVE('',#1611,#1608,#1612,.T.);
#1309=EDGE_CURVE('',#1613,#1611,#1614,.T.);
#1310=EDGE_CURVE('',#1609,#1613,#1615,.T.);
#1311=FILL_AREA_STYLE('',(#1616));
#1312=EDGE_CURVE('',#1609,#1361,#1617,.T.);
#1313=EDGE_CURVE('',#1360,#1613,#1618,.T.);
#1314=FILL_AREA_STYLE('',(#1619));
#1315=EDGE_CURVE('',#1365,#1354,#1620,.T.);
#1316=EDGE_CURVE('',#1356,#1363,#1621,.T.);
#1317=FILL_AREA_STYLE('',(#1622));
#1318=EDGE_CURVE('',#1611,#1352,#1623,.T.);
#1319=EDGE_CURVE('',#1351,#1608,#1624,.T.);
#1320=FILL_AREA_STYLE('',(#1625));
#1321=EDGE_CURVE('',#1347,#1343,#1626,.T.);
#1322=EDGE_CURVE('',#1342,#1345,#1627,.T.);
#1323=FILL_AREA_STYLE('',(#1628));
#1324=EDGE_CURVE('',#1629,#1630,#1631,.T.);
#1325=EDGE_CURVE('',#1630,#1632,#1633,.T.);
#1326=EDGE_CURVE('',#1632,#1634,#1635,.T.);
#1327=EDGE_CURVE('',#1634,#1629,#1636,.T.);
#1328=FILL_AREA_STYLE('',(#1637));
#1329=EDGE_CURVE('',#1638,#1639,#1640,.T.);
#1330=EDGE_CURVE('',#1639,#1641,#1642,.T.);
#1331=EDGE_CURVE('',#1641,#1643,#1644,.T.);
#1332=EDGE_CURVE('',#1643,#1638,#1645,.T.);
#1333=FILL_AREA_STYLE('',(#1646));
#1334=EDGE_CURVE('',#1634,#1641,#1647,.T.);
#1335=EDGE_CURVE('',#1629,#1639,#1648,.T.);
#1336=FILL_AREA_STYLE('',(#1649));
#1337=EDGE_CURVE('',#1632,#1643,#1650,.T.);
#1338=FILL_AREA_STYLE('',(#1651));
#1339=EDGE_CURVE('',#1630,#1638,#1652,.T.);
#1340=FILL_AREA_STYLE('',(#1653));
#1341=FILL_AREA_STYLE_COLOUR('',#1654);
#1342=VERTEX_POINT('',#1655);
#1343=VERTEX_POINT('',#1656);
#1344=LINE('',#1657,#1658);
#1345=VERTEX_POINT('',#1659);
#1346=CIRCLE('',#1660,1.0);
#1347=VERTEX_POINT('',#1661);
#1348=LINE('',#1662,#1663);
#1349=CIRCLE('',#1664,1.0);
#1350=FILL_AREA_STYLE_COLOUR('',#1665);
#1351=VERTEX_POINT('',#1666);
#1352=VERTEX_POINT('',#1667);
#1353=LINE('',#1668,#1669);
#1354=VERTEX_POINT('',#1670);
#1355=CIRCLE('',#1671,1.1);
#1356=VERTEX_POINT('',#1672);
#1357=LINE('',#1673,#1674);
#1358=CIRCLE('',#1675,1.1);
#1359=FILL_AREA_STYLE_COLOUR('',#1676);
#1360=VERTEX_POINT('',#1677);
#1361=VERTEX_POINT('',#1678);
#1362=LINE('',#1679,#1680);
#1363=VERTEX_POINT('',#1681);
#1364=CIRCLE('',#1682,1.1);
#1365=VERTEX_POINT('',#1683);
#1366=LINE('',#1684,#1685);
#1367=CIRCLE('',#1686,1.1);
#1368=FILL_AREA_STYLE_COLOUR('',#1687);
#1369=VERTEX_POINT('',#1688);
#1370=VERTEX_POINT('',#1689);
#1371=LINE('',#1690,#1691);
#1372=VERTEX_POINT('',#1692);
#1373=CIRCLE('',#1693,2.0);
#1374=VERTEX_POINT('',#1694);
#1375=LINE('',#1695,#1696);
#1376=CIRCLE('',#1697,2.0);
#1377=FILL_AREA_STYLE_COLOUR('',#1698);
#1378=VERTEX_POINT('',#1699);
#1379=VERTEX_POINT('',#1700);
#1380=LINE('',#1701,#1702);
#1381=VERTEX_POINT('',#1703);
#1382=CIRCLE('',#1704,2.0);
#1383=VERTEX_POINT('',#1705);
#1384=LINE('',#1706,#1707);
#1385=CIRCLE('',#1708,2.0);
#1386=FILL_AREA_STYLE_COLOUR('',#1709);
#1387=VERTEX_POINT('',#1710);
#1388=VERTEX_POINT('',#1711);
#1389=LINE('',#1712,#1713);
#1390=VERTEX_POINT('',#1714);
#1391=CIRCLE('',#1715,2.4);
#1392=VERTEX_POINT('',#1716);
#1393=LINE('',#1717,#1718);
#1394=CIRCLE('',#1719,2.4);
#1395=FILL_AREA_STYLE_COLOUR('',#1720);
#1396=VERTEX_POINT('',#1721);
#1397=VERTEX_POINT('',#1722);
#1398=LINE('',#1723,#1724);
#1399=VERTEX_POINT('',#1725);
#1400=CIRCLE('',#1726,1.5);
#1401=VERTEX_POINT('',#1727);
#1402=LINE('',#1728,#1729);
#1403=CIRCLE('',#1730,1.5);
#1404=FILL_AREA_STYLE_COLOUR('',#1731);
#1405=VERTEX_POINT('',#1732);
#1406=VERTEX_POINT('',#1733);
#1407=LINE('',#1734,#1735);
#1408=VERTEX_POINT('',#1736);
#1409=CIRCLE('',#1737,1.5);
#1410=VERTEX_POINT('',#1738);
#1411=LINE('',#1739,#1740);
#1412=CIRCLE('',#1741,1.5);
#1413=FILL_AREA_STYLE_COLOUR('',#1742);
#1414=VERTEX_POINT('',#1743);
#1415=VERTEX_POINT('',#1744);
#1416=LINE('',#1745,#1746);
#1417=CIRCLE('',#1747,0.61);
#1418=FILL_AREA_STYLE_COLOUR('',#1748);
#1419=VERTEX_POINT('',#1749);
#1420=LINE('',#1750,#1751);
#1421=VERTEX_POINT('',#1752);
#1422=LINE('',#1753,#1754);
#1423=CIRCLE('',#1755,0.61);
#1424=FILL_AREA_STYLE_COLOUR('',#1756);
#1425=LINE('',#1757,#1758);
#1426=FILL_AREA_STYLE_COLOUR('',#1759);
#1427=VERTEX_POINT('',#1760);
#1428=VERTEX_POINT('',#1761);
#1429=LINE('',#1762,#1763);
#1430=VERTEX_POINT('',#1764);
#1431=LINE('',#1765,#1766);
#1432=VERTEX_POINT('',#1767);
#1433=LINE('',#1768,#1769);
#1434=LINE('',#1770,#1771);
#1435=FILL_AREA_STYLE_COLOUR('',#1772);
#1436=VERTEX_POINT('',#1773);
#1437=LINE('',#1774,#1775);
#1438=VERTEX_POINT('',#1776);
#1439=LINE('',#1777,#1778);
#1440=LINE('',#1779,#1780);
#1441=FILL_AREA_STYLE_COLOUR('',#1781);
#1442=VERTEX_POINT('',#1782);
#1443=LINE('',#1783,#1784);
#1444=VERTEX_POINT('',#1785);
#1445=LINE('',#1786,#1787);
#1446=LINE('',#1788,#1789);
#1447=FILL_AREA_STYLE_COLOUR('',#1790);
#1448=LINE('',#1791,#1792);
#1449=FILL_AREA_STYLE_COLOUR('',#1793);
#1450=LINE('',#1794,#1795);
#1451=FILL_AREA_STYLE_COLOUR('',#1796);
#1452=VERTEX_POINT('',#1797);
#1453=VERTEX_POINT('',#1798);
#1454=LINE('',#1799,#1800);
#1455=VERTEX_POINT('',#1801);
#1456=LINE('',#1802,#1803);
#1457=VERTEX_POINT('',#1804);
#1458=LINE('',#1805,#1806);
#1459=LINE('',#1807,#1808);
#1460=FILL_AREA_STYLE_COLOUR('',#1809);
#1461=VERTEX_POINT('',#1810);
#1462=LINE('',#1811,#1812);
#1463=VERTEX_POINT('',#1813);
#1464=LINE('',#1814,#1815);
#1465=LINE('',#1816,#1817);
#1466=FILL_AREA_STYLE_COLOUR('',#1818);
#1467=VERTEX_POINT('',#1819);
#1468=LINE('',#1820,#1821);
#1469=VERTEX_POINT('',#1822);
#1470=LINE('',#1823,#1824);
#1471=LINE('',#1825,#1826);
#1472=FILL_AREA_STYLE_COLOUR('',#1827);
#1473=LINE('',#1828,#1829);
#1474=FILL_AREA_STYLE_COLOUR('',#1830);
#1475=LINE('',#1831,#1832);
#1476=FILL_AREA_STYLE_COLOUR('',#1833);
#1477=VERTEX_POINT('',#1834);
#1478=VERTEX_POINT('',#1835);
#1479=LINE('',#1836,#1837);
#1480=VERTEX_POINT('',#1838);
#1481=LINE('',#1839,#1840);
#1482=VERTEX_POINT('',#1841);
#1483=LINE('',#1842,#1843);
#1484=LINE('',#1844,#1845);
#1485=FILL_AREA_STYLE_COLOUR('',#1846);
#1486=VERTEX_POINT('',#1847);
#1487=LINE('',#1848,#1849);
#1488=VERTEX_POINT('',#1850);
#1489=LINE('',#1851,#1852);
#1490=LINE('',#1853,#1854);
#1491=FILL_AREA_STYLE_COLOUR('',#1855);
#1492=VERTEX_POINT('',#1856);
#1493=LINE('',#1857,#1858);
#1494=VERTEX_POINT('',#1859);
#1495=LINE('',#1860,#1861);
#1496=LINE('',#1862,#1863);
#1497=FILL_AREA_STYLE_COLOUR('',#1864);
#1498=LINE('',#1865,#1866);
#1499=FILL_AREA_STYLE_COLOUR('',#1867);
#1500=LINE('',#1868,#1869);
#1501=FILL_AREA_STYLE_COLOUR('',#1870);
#1502=VERTEX_POINT('',#1871);
#1503=VERTEX_POINT('',#1872);
#1504=LINE('',#1873,#1874);
#1505=VERTEX_POINT('',#1875);
#1506=LINE('',#1876,#1877);
#1507=VERTEX_POINT('',#1878);
#1508=LINE('',#1879,#1880);
#1509=VERTEX_POINT('',#1881);
#1510=LINE('',#1882,#1883);
#1511=CIRCLE('',#1884,2.0);
#1512=VERTEX_POINT('',#1885);
#1513=LINE('',#1886,#1887);
#1514=VERTEX_POINT('',#1888);
#1515=LINE('',#1889,#1890);
#1516=LINE('',#1891,#1892);
#1517=CIRCLE('',#1893,1.5);
#1518=FILL_AREA_STYLE_COLOUR('',#1894);
#1519=VERTEX_POINT('',#1895);
#1520=LINE('',#1896,#1897);
#1521=VERTEX_POINT('',#1898);
#1522=LINE('',#1899,#1900);
#1523=LINE('',#1901,#1902);
#1524=FILL_AREA_STYLE_COLOUR('',#1903);
#1525=CIRCLE('',#1904,1.5);
#1526=CIRCLE('',#1905,1.5);
#1527=FILL_AREA_STYLE_COLOUR('',#1906);
#1528=CIRCLE('',#1907,1.5);
#1529=FILL_AREA_STYLE_COLOUR('',#1908);
#1530=FILL_AREA_STYLE_COLOUR('',#1909);
#1531=FILL_AREA_STYLE_COLOUR('',#1910);
#1532=VERTEX_POINT('',#1911);
#1533=LINE('',#1912,#1913);
#1534=VERTEX_POINT('',#1914);
#1535=CIRCLE('',#1915,2.0);
#1536=VERTEX_POINT('',#1916);
#1537=LINE('',#1917,#1918);
#1538=CIRCLE('',#1919,2.4);
#1539=CIRCLE('',#1920,2.4);
#1540=FILL_AREA_STYLE_COLOUR('',#1921);
#1541=VERTEX_POINT('',#1922);
#1542=CIRCLE('',#1923,2.4);
#1543=VERTEX_POINT('',#1924);
#1544=LINE('',#1925,#1926);
#1545=VERTEX_POINT('',#1927);
#1546=CIRCLE('',#1928,2.4);
#1547=VERTEX_POINT('',#1929);
#1548=LINE('',#1930,#1931);
#1549=CIRCLE('',#1932,2.4);
#1550=VERTEX_POINT('',#1933);
#1551=LINE('',#1934,#1935);
#1552=VERTEX_POINT('',#1936);
#1553=CIRCLE('',#1937,2.4);
#1554=LINE('',#1938,#1939);
#1555=FILL_AREA_STYLE_COLOUR('',#1940);
#1556=VERTEX_POINT('',#1941);
#1557=LINE('',#1942,#1943);
#1558=CIRCLE('',#1944,2.0);
#1559=LINE('',#1945,#1946);
#1560=FILL_AREA_STYLE_COLOUR('',#1947);
#1561=VERTEX_POINT('',#1948);
#1562=LINE('',#1949,#1950);
#1563=VERTEX_POINT('',#1951);
#1564=LINE('',#1952,#1953);
#1565=VERTEX_POINT('',#1954);
#1566=LINE('',#1955,#1956);
#1567=LINE('',#1957,#1958);
#1568=FILL_AREA_STYLE_COLOUR('',#1959);
#1569=LINE('',#1960,#1961);
#1570=LINE('',#1962,#1963);
#1571=FILL_AREA_STYLE_COLOUR('',#1964);
#1572=VERTEX_POINT('',#1965);
#1573=LINE('',#1966,#1967);
#1574=VERTEX_POINT('',#1968);
#1575=LINE('',#1969,#1970);
#1576=VERTEX_POINT('',#1971);
#1577=LINE('',#1972,#1973);
#1578=LINE('',#1974,#1975);
#1579=FILL_AREA_STYLE_COLOUR('',#1976);
#1580=LINE('',#1977,#1978);
#1581=LINE('',#1979,#1980);
#1582=FILL_AREA_STYLE_COLOUR('',#1981);
#1583=FILL_AREA_STYLE_COLOUR('',#1982);
#1584=VERTEX_POINT('',#1983);
#1585=LINE('',#1984,#1985);
#1586=CIRCLE('',#1986,2.0);
#1587=FILL_AREA_STYLE_COLOUR('',#1987);
#1588=VERTEX_POINT('',#1988);
#1589=LINE('',#1989,#1990);
#1590=LINE('',#1991,#1992);
#1591=FILL_AREA_STYLE_COLOUR('',#1993);
#1592=LINE('',#1994,#1995);
#1593=FILL_AREA_STYLE_COLOUR('',#1996);
#1594=VERTEX_POINT('',#1997);
#1595=LINE('',#1998,#1999);
#1596=LINE('',#2000,#2001);
#1597=FILL_AREA_STYLE_COLOUR('',#2002);
#1598=VERTEX_POINT('',#2003);
#1599=LINE('',#2004,#2005);
#1600=LINE('',#2006,#2007);
#1601=FILL_AREA_STYLE_COLOUR('',#2008);
#1602=VERTEX_POINT('',#2009);
#1603=LINE('',#2010,#2011);
#1604=LINE('',#2012,#2013);
#1605=FILL_AREA_STYLE_COLOUR('',#2014);
#1606=LINE('',#2015,#2016);
#1607=FILL_AREA_STYLE_COLOUR('',#2017);
#1608=VERTEX_POINT('',#2018);
#1609=VERTEX_POINT('',#2019);
#1610=LINE('',#2020,#2021);
#1611=VERTEX_POINT('',#2022);
#1612=LINE('',#2023,#2024);
#1613=VERTEX_POINT('',#2025);
#1614=LINE('',#2026,#2027);
#1615=LINE('',#2028,#2029);
#1616=FILL_AREA_STYLE_COLOUR('',#2030);
#1617=CIRCLE('',#2031,1.1);
#1618=CIRCLE('',#2032,1.1);
#1619=FILL_AREA_STYLE_COLOUR('',#2033);
#1620=LINE('',#2034,#2035);
#1621=LINE('',#2036,#2037);
#1622=FILL_AREA_STYLE_COLOUR('',#2038);
#1623=CIRCLE('',#2039,1.1);
#1624=CIRCLE('',#2040,1.1);
#1625=FILL_AREA_STYLE_COLOUR('',#2041);
#1626=CIRCLE('',#2042,1.0);
#1627=CIRCLE('',#2043,1.0);
#1628=FILL_AREA_STYLE_COLOUR('',#2044);
#1629=VERTEX_POINT('',#2045);
#1630=VERTEX_POINT('',#2046);
#1631=LINE('',#2047,#2048);
#1632=VERTEX_POINT('',#2049);
#1633=LINE('',#2050,#2051);
#1634=VERTEX_POINT('',#2052);
#1635=LINE('',#2053,#2054);
#1636=LINE('',#2055,#2056);
#1637=FILL_AREA_STYLE_COLOUR('',#2057);
#1638=VERTEX_POINT('',#2058);
#1639=VERTEX_POINT('',#2059);
#1640=LINE('',#2060,#2061);
#1641=VERTEX_POINT('',#2062);
#1642=LINE('',#2063,#2064);
#1643=VERTEX_POINT('',#2065);
#1644=LINE('',#2066,#2067);
#1645=LINE('',#2068,#2069);
#1646=FILL_AREA_STYLE_COLOUR('',#2070);
#1647=LINE('',#2071,#2072);
#1648=LINE('',#2073,#2074);
#1649=FILL_AREA_STYLE_COLOUR('',#2075);
#1650=LINE('',#2076,#2077);
#1651=FILL_AREA_STYLE_COLOUR('',#2078);
#1652=LINE('',#2079,#2080);
#1653=FILL_AREA_STYLE_COLOUR('',#2081);
#1654=COLOUR_RGB('',0.121568627655506,0.121568627655506,0.121568627655506);
#1655=CARTESIAN_POINT('',(4.25,1.5,2.9));
#1656=CARTESIAN_POINT('',(4.25,1.5,-2.9));
#1657=CARTESIAN_POINT('',(4.25,1.5,0.0));
#1658=VECTOR('',#2082,1.0);
#1659=CARTESIAN_POINT('',(2.25,1.5,2.9));
#1660=AXIS2_PLACEMENT_3D('',#2083,#2084,#2085);
#1661=CARTESIAN_POINT('',(2.25,1.5,-2.9));
#1662=CARTESIAN_POINT('',(2.25,1.5,0.0));
#1663=VECTOR('',#2086,1.0);
#1664=AXIS2_PLACEMENT_3D('',#2087,#2088,#2089);
#1665=COLOUR_RGB('',0.121568627655506,0.121568627655506,0.121568627655506);
#1666=CARTESIAN_POINT('',(-2.15,1.5,2.9));
#1667=CARTESIAN_POINT('',(-2.15,1.5,-2.9));
#1668=CARTESIAN_POINT('',(-2.15,1.5,0.0));
#1669=VECTOR('',#2090,1.0);
#1670=CARTESIAN_POINT('',(-2.79174243050442,2.5,2.9));
#1671=AXIS2_PLACEMENT_3D('',#2091,#2092,#2093);
#1672=CARTESIAN_POINT('',(-2.79174243050442,2.5,-2.9));
#1673=CARTESIAN_POINT('',(-2.79174243050442,2.5,0.0));
#1674=VECTOR('',#2094,1.0);
#1675=AXIS2_PLACEMENT_3D('',#2095,#2096,#2097);
#1676=COLOUR_RGB('',0.121568627655506,0.121568627655506,0.121568627655506);
#1677=CARTESIAN_POINT('',(-4.35,1.5,-2.9));
#1678=CARTESIAN_POINT('',(-4.35,1.5,2.9));
#1679=CARTESIAN_POINT('',(-4.35,1.5,0.0));
#1680=VECTOR('',#2098,1.0);
#1681=CARTESIAN_POINT('',(-3.70825756949558,2.5,-2.9));
#1682=AXIS2_PLACEMENT_3D('',#2099,#2100,#2101);
#1683=CARTESIAN_POINT('',(-3.70825756949558,2.5,2.9));
#1684=CARTESIAN_POINT('',(-3.70825756949558,2.5,0.0));
#1685=VECTOR('',#2102,1.0);
#1686=AXIS2_PLACEMENT_3D('',#2103,#2104,#2105);
#1687=COLOUR_RGB('',0.811764717102051,0.811764717102051,0.811764717102051);
#1688=CARTESIAN_POINT('',(2.79500290797534,15.6000000000001,1.5));
#1689=CARTESIAN_POINT('',(2.79500290797534,15.6000000000001,1.2));
#1690=CARTESIAN_POINT('',(2.79500290797534,15.6000000000001,1.35));
#1691=VECTOR('',#2106,1.0);
#1692=CARTESIAN_POINT('',(6.60775962293451,16.4449337798731,1.5));
#1693=AXIS2_PLACEMENT_3D('',#2107,#2108,#2109);
#1694=CARTESIAN_POINT('',(6.60775962293451,16.4449337798731,1.2));
#1695=CARTESIAN_POINT('',(6.60775962293451,16.4449337798731,-1.5));
#1696=VECTOR('',#2110,1.0);
#1697=AXIS2_PLACEMENT_3D('',#2111,#2112,#2113);
#1698=COLOUR_RGB('',0.811764717102051,0.811764717102051,0.811764717102051);
#1699=CARTESIAN_POINT('',(2.79500290797534,15.6000000000001,-1.2));
#1700=CARTESIAN_POINT('',(2.79500290797534,15.6000000000001,-1.5));
#1701=CARTESIAN_POINT('',(2.79500290797534,15.6000000000001,-1.5));
#1702=VECTOR('',#2114,1.0);
#1703=CARTESIAN_POINT('',(6.60775962293451,16.4449337798731,-1.2));
#1704=AXIS2_PLACEMENT_3D('',#2115,#2116,#2117);
#1705=CARTESIAN_POINT('',(6.60775962293451,16.4449337798731,-1.5));
#1706=CARTESIAN_POINT('',(6.60775962293451,16.4449337798731,-1.5));
#1707=VECTOR('',#2118,1.0);
#1708=AXIS2_PLACEMENT_3D('',#2119,#2120,#2121);
#1709=COLOUR_RGB('',0.811764717102051,0.811764717102051,0.811764717102051);
#1710=CARTESIAN_POINT('',(7.2,15.6,-1.2));
#1711=CARTESIAN_POINT('',(7.2,15.6,1.2));
#1712=CARTESIAN_POINT('',(7.2,15.6,0.0));
#1713=VECTOR('',#2122,1.0);
#1714=CARTESIAN_POINT('',(2.4,15.6,-1.2));
#1715=AXIS2_PLACEMENT_3D('',#2123,#2124,#2125);
#1716=CARTESIAN_POINT('',(2.4,15.6,1.2));
#1717=CARTESIAN_POINT('',(2.4,15.6,0.0));
#1718=VECTOR('',#2126,1.0);
#1719=AXIS2_PLACEMENT_3D('',#2127,#2128,#2129);
#1720=COLOUR_RGB('',0.811764717102051,0.811764717102051,0.811764717102051);
#1721=CARTESIAN_POINT('',(6.3,15.6,-2.3));
#1722=CARTESIAN_POINT('',(6.3,15.6,-1.5));
#1723=CARTESIAN_POINT('',(6.3,15.6,-1.9));
#1724=VECTOR('',#2130,1.0);
#1725=CARTESIAN_POINT('',(3.3,15.6,-2.3));
#1726=AXIS2_PLACEMENT_3D('',#2131,#2132,#2133);
#1727=CARTESIAN_POINT('',(3.3,15.6,-1.5));
#1728=CARTESIAN_POINT('',(3.3,15.6,-1.9));
#1729=VECTOR('',#2134,1.0);
#1730=AXIS2_PLACEMENT_3D('',#2135,#2136,#2137);
#1731=COLOUR_RGB('',0.811764717102051,0.811764717102051,0.811764717102051);
#1732=CARTESIAN_POINT('',(6.3,15.6,1.5));
#1733=CARTESIAN_POINT('',(6.3,15.6,2.3));
#1734=CARTESIAN_POINT('',(6.3,15.6,1.9));
#1735=VECTOR('',#2138,1.0);
#1736=CARTESIAN_POINT('',(3.3,15.6,1.5));
#1737=AXIS2_PLACEMENT_3D('',#2139,#2140,#2141);
#1738=CARTESIAN_POINT('',(3.3,15.6,2.3));
#1739=CARTESIAN_POINT('',(3.3,15.6,1.9));
#1740=VECTOR('',#2142,1.0);
#1741=AXIS2_PLACEMENT_3D('',#2143,#2144,#2145);
#1742=COLOUR_RGB('',0.811764717102051,0.811764717102051,0.811764717102051);
#1743=CARTESIAN_POINT('',(-1.35,6.5,1.45));
#1744=CARTESIAN_POINT('',(-2.55,6.5,1.45));
#1745=CARTESIAN_POINT('',(-0.975,6.5,1.45));
#1746=VECTOR('',#2146,1.0);
#1747=AXIS2_PLACEMENT_3D('',#2147,#2148,#2149);
#1748=COLOUR_RGB('',0.811764717102051,0.811764717102051,0.811764717102051);
#1749=CARTESIAN_POINT('',(-2.55,6.5,-1.45));
#1750=CARTESIAN_POINT('',(-2.55,6.5,0.0));
#1751=VECTOR('',#2150,1.0);
#1752=CARTESIAN_POINT('',(-1.35,6.5,-1.45));
#1753=CARTESIAN_POINT('',(-1.35,6.5,0.0));
#1754=VECTOR('',#2151,1.0);
#1755=AXIS2_PLACEMENT_3D('',#2152,#2153,#2154);
#1756=COLOUR_RGB('',0.811764717102051,0.811764717102051,0.811764717102051);
#1757=CARTESIAN_POINT('',(-0.975,6.5,-1.45));
#1758=VECTOR('',#2155,1.0);
#1759=COLOUR_RGB('',0.811764717102051,0.811764717102051,0.811764717102051);
#1760=CARTESIAN_POINT('',(4.63,0.0,-0.2));
#1761=CARTESIAN_POINT('',(4.63,0.0,0.2));
#1762=CARTESIAN_POINT('',(4.63,0.0,0.0));
#1763=VECTOR('',#2156,1.0);
#1764=CARTESIAN_POINT('',(4.63,-3.5,-0.2));
#1765=CARTESIAN_POINT('',(4.63,-1.5,-0.2));
#1766=VECTOR('',#2157,1.0);
#1767=CARTESIAN_POINT('',(4.63,-3.5,0.2));
#1768=CARTESIAN_POINT('',(4.63,-3.5,0.0));
#1769=VECTOR('',#2158,1.0);
#1770=CARTESIAN_POINT('',(4.63,-1.5,0.2));
#1771=VECTOR('',#2159,1.0);
#1772=COLOUR_RGB('',0.811764717102051,0.811764717102051,0.811764717102051);
#1773=CARTESIAN_POINT('',(5.53,0.0,-0.2));
#1774=CARTESIAN_POINT('',(2.54,0.0,-0.2));
#1775=VECTOR('',#2160,1.0);
#1776=CARTESIAN_POINT('',(5.53,-3.5,-0.2));
#1777=CARTESIAN_POINT('',(5.53,-1.5,-0.2));
#1778=VECTOR('',#2161,1.0);
#1779=CARTESIAN_POINT('',(5.08,-3.5,-0.2));
#1780=VECTOR('',#2162,1.0);
#1781=COLOUR_RGB('',0.811764717102051,0.811764717102051,0.811764717102051);
#1782=CARTESIAN_POINT('',(5.53,0.0,0.2));
#1783=CARTESIAN_POINT('',(2.54,0.0,0.2));
#1784=VECTOR('',#2163,1.0);
#1785=CARTESIAN_POINT('',(5.53,-3.5,0.2));
#1786=CARTESIAN_POINT('',(5.08,-3.5,0.2));
#1787=VECTOR('',#2164,1.0);
#1788=CARTESIAN_POINT('',(5.53,-1.5,0.2));
#1789=VECTOR('',#2165,1.0);
#1790=COLOUR_RGB('',0.811764717102051,0.811764717102051,0.811764717102051);
#1791=CARTESIAN_POINT('',(5.53,-3.5,0.0));
#1792=VECTOR('',#2166,1.0);
#1793=COLOUR_RGB('',0.811764717102051,0.811764717102051,0.811764717102051);
#1794=CARTESIAN_POINT('',(5.53,0.0,0.0));
#1795=VECTOR('',#2167,1.0);
#1796=COLOUR_RGB('',0.811764717102051,0.811764717102051,0.811764717102051);
#1797=CARTESIAN_POINT('',(-0.45,0.0,-0.2));
#1798=CARTESIAN_POINT('',(-0.45,0.0,0.2));
#1799=CARTESIAN_POINT('',(-0.45,0.0,0.0));
#1800=VECTOR('',#2168,1.0);
#1801=CARTESIAN_POINT('',(-0.45,-3.5,-0.2));
#1802=CARTESIAN_POINT('',(-0.45,-1.5,-0.2));
#1803=VECTOR('',#2169,1.0);
#1804=CARTESIAN_POINT('',(-0.45,-3.5,0.2));
#1805=CARTESIAN_POINT('',(-0.45,-3.5,0.0));
#1806=VECTOR('',#2170,1.0);
#1807=CARTESIAN_POINT('',(-0.45,-1.5,0.2));
#1808=VECTOR('',#2171,1.0);
#1809=COLOUR_RGB('',0.811764717102051,0.811764717102051,0.811764717102051);
#1810=CARTESIAN_POINT('',(0.45,0.0,-0.2));
#1811=CARTESIAN_POINT('',(0.0,0.0,-0.2));
#1812=VECTOR('',#2172,1.0);
#1813=CARTESIAN_POINT('',(0.45,-3.5,-0.2));
#1814=CARTESIAN_POINT('',(0.45,-1.5,-0.2));
#1815=VECTOR('',#2173,1.0);
#1816=CARTESIAN_POINT('',(0.0,-3.5,-0.2));
#1817=VECTOR('',#2174,1.0);
#1818=COLOUR_RGB('',0.811764717102051,0.811764717102051,0.811764717102051);
#1819=CARTESIAN_POINT('',(0.45,0.0,0.2));
#1820=CARTESIAN_POINT('',(0.0,0.0,0.2));
#1821=VECTOR('',#2175,1.0);
#1822=CARTESIAN_POINT('',(0.45,-3.5,0.2));
#1823=CARTESIAN_POINT('',(0.0,-3.5,0.2));
#1824=VECTOR('',#2176,1.0);
#1825=CARTESIAN_POINT('',(0.45,-1.5,0.2));
#1826=VECTOR('',#2177,1.0);
#1827=COLOUR_RGB('',0.811764717102051,0.811764717102051,0.811764717102051);
#1828=CARTESIAN_POINT('',(0.45,-3.5,0.0));
#1829=VECTOR('',#2178,1.0);
#1830=COLOUR_RGB('',0.811764717102051,0.811764717102051,0.811764717102051);
#1831=CARTESIAN_POINT('',(0.45,0.0,0.0));
#1832=VECTOR('',#2179,1.0);
#1833=COLOUR_RGB('',0.811764717102051,0.811764717102051,0.811764717102051);
#1834=CARTESIAN_POINT('',(-5.53,0.0,-0.2));
#1835=CARTESIAN_POINT('',(-5.53,0.0,0.2));
#1836=CARTESIAN_POINT('',(-5.53,0.0,0.0));
#1837=VECTOR('',#2180,1.0);
#1838=CARTESIAN_POINT('',(-5.53,-3.5,-0.2));
#1839=CARTESIAN_POINT('',(-5.53,-1.5,-0.2));
#1840=VECTOR('',#2181,1.0);
#1841=CARTESIAN_POINT('',(-5.53,-3.5,0.2));
#1842=CARTESIAN_POINT('',(-5.53,-3.5,0.0));
#1843=VECTOR('',#2182,1.0);
#1844=CARTESIAN_POINT('',(-5.53,-1.5,0.2));
#1845=VECTOR('',#2183,1.0);
#1846=COLOUR_RGB('',0.811764717102051,0.811764717102051,0.811764717102051);
#1847=CARTESIAN_POINT('',(-4.63,0.0,-0.2));
#1848=CARTESIAN_POINT('',(-2.54,0.0,-0.2));
#1849=VECTOR('',#2184,1.0);
#1850=CARTESIAN_POINT('',(-4.63,-3.5,-0.2));
#1851=CARTESIAN_POINT('',(-4.63,-1.5,-0.2));
#1852=VECTOR('',#2185,1.0);
#1853=CARTESIAN_POINT('',(-5.08,-3.5,-0.2));
#1854=VECTOR('',#2186,1.0);
#1855=COLOUR_RGB('',0.811764717102051,0.811764717102051,0.811764717102051);
#1856=CARTESIAN_POINT('',(-4.63,0.0,0.2));
#1857=CARTESIAN_POINT('',(-2.54,0.0,0.2));
#1858=VECTOR('',#2187,1.0);
#1859=CARTESIAN_POINT('',(-4.63,-3.5,0.2));
#1860=CARTESIAN_POINT('',(-5.08,-3.5,0.2));
#1861=VECTOR('',#2188,1.0);
#1862=CARTESIAN_POINT('',(-4.63,-1.5,0.2));
#1863=VECTOR('',#2189,1.0);
#1864=COLOUR_RGB('',0.811764717102051,0.811764717102051,0.811764717102051);
#1865=CARTESIAN_POINT('',(-4.63,-3.5,0.0));
#1866=VECTOR('',#2190,1.0);
#1867=COLOUR_RGB('',0.811764717102051,0.811764717102051,0.811764717102051);
#1868=CARTESIAN_POINT('',(-4.63,0.0,0.0));
#1869=VECTOR('',#2191,1.0);
#1870=COLOUR_RGB('',0.811764717102051,0.811764717102051,0.811764717102051);
#1871=CARTESIAN_POINT('',(-5.30625466192804,6.5,-1.5));
#1872=CARTESIAN_POINT('',(-5.00044344227733,6.5,-1.5));
#1873=CARTESIAN_POINT('',(1.06424313104067,6.5,-1.5));
#1874=VECTOR('',#2192,1.0);
#1875=CARTESIAN_POINT('',(-5.24351257499808,6.83882388613821,-1.5));
#1876=CARTESIAN_POINT('',(-5.32752867641141,6.38511468754521,-1.5));
#1877=VECTOR('',#2193,1.0);
#1878=CARTESIAN_POINT('',(4.5453736857813,11.4014662974526,-1.5));
#1879=CARTESIAN_POINT('',(4.5453736857813,11.4014662974526,-1.5));
#1880=VECTOR('',#2194,1.0);
#1881=CARTESIAN_POINT('',(2.98224619301622,14.755066220127,-1.5));
#1882=CARTESIAN_POINT('',(2.98224619301621,14.755066220127,-1.5));
#1883=VECTOR('',#2195,1.0);
#1884=AXIS2_PLACEMENT_3D('',#2196,#2197,#2198);
#1885=CARTESIAN_POINT('',(8.29762718268057,12.8194203499548,-1.5));
#1886=CARTESIAN_POINT('',(8.29762718268057,12.8194203499548,-1.5));
#1887=VECTOR('',#2199,1.0);
#1888=CARTESIAN_POINT('',(-4.97599648418571,6.6325266951655,-1.5));
#1889=CARTESIAN_POINT('',(8.29762718268057,12.8194203499548,-1.5));
#1890=VECTOR('',#2200,1.0);
#1891=CARTESIAN_POINT('',(-4.97599648418571,6.6325266951655,-1.5));
#1892=VECTOR('',#2201,1.0);
#1893=AXIS2_PLACEMENT_3D('',#2202,#2203,#2204);
#1894=COLOUR_RGB('',0.811764717102051,0.811764717102051,0.811764717102051);
#1895=CARTESIAN_POINT('',(-5.30625466192804,6.5,1.5));
#1896=CARTESIAN_POINT('',(-5.30625466192804,6.5,-0.75));
#1897=VECTOR('',#2205,1.0);
#1898=CARTESIAN_POINT('',(-5.24351257499808,6.83882388613821,1.5));
#1899=CARTESIAN_POINT('',(-5.32752867641141,6.38511468754521,1.5));
#1900=VECTOR('',#2206,1.0);
#1901=CARTESIAN_POINT('',(-5.24351257499808,6.83882388613821,-1.5));
#1902=VECTOR('',#2207,1.0);
#1903=COLOUR_RGB('',0.811764717102051,0.811764717102051,0.811764717102051);
#1904=AXIS2_PLACEMENT_3D('',#2208,#2209,#2210);
#1905=AXIS2_PLACEMENT_3D('',#2211,#2212,#2213);
#1906=COLOUR_RGB('',0.811764717102051,0.811764717102051,0.811764717102051);
#1907=AXIS2_PLACEMENT_3D('',#2214,#2215,#2216);
#1908=COLOUR_RGB('',0.811764717102051,0.811764717102051,0.811764717102051);
#1909=COLOUR_RGB('',0.811764717102051,0.811764717102051,0.811764717102051);
#1910=COLOUR_RGB('',0.811764717102051,0.811764717102051,0.811764717102051);
#1911=CARTESIAN_POINT('',(7.17199117480101,15.2344075128424,-1.2));
#1912=CARTESIAN_POINT('',(7.03067244904855,15.5375986920325,-1.2));
#1913=VECTOR('',#2217,1.0);
#1914=CARTESIAN_POINT('',(2.98224619301622,14.755066220127,-1.2));
#1915=AXIS2_PLACEMENT_3D('',#2218,#2219,#2220);
#1916=CARTESIAN_POINT('',(3.54070833368738,13.5569178922139,-1.2));
#1917=CARTESIAN_POINT('',(3.37347400238501,13.9157095090974,-1.2));
#1918=VECTOR('',#2221,1.0);
#1919=AXIS2_PLACEMENT_3D('',#2222,#2223,#2224);
#1920=AXIS2_PLACEMENT_3D('',#2225,#2226,#2227);
#1921=COLOUR_RGB('',0.811764717102051,0.811764717102051,0.811764717102051);
#1922=CARTESIAN_POINT('',(7.17199117480101,15.2344075128424,1.2));
#1923=AXIS2_PLACEMENT_3D('',#2228,#2229,#2230);
#1924=CARTESIAN_POINT('',(7.17199117480101,15.2344075128424,1.19));
#1925=CARTESIAN_POINT('',(7.17199117480101,15.2344075128424,0.0));
#1926=VECTOR('',#2231,1.0);
#1927=CARTESIAN_POINT('',(3.54070833368738,13.5569178922139,1.19));
#1928=AXIS2_PLACEMENT_3D('',#2232,#2233,#2234);
#1929=CARTESIAN_POINT('',(3.54070833368738,13.5569178922139,1.2));
#1930=CARTESIAN_POINT('',(3.54070833368738,13.5569178922139,1.195));
#1931=VECTOR('',#2235,1.0);
#1932=AXIS2_PLACEMENT_3D('',#2236,#2237,#2238);
#1933=CARTESIAN_POINT('',(3.54070833368738,13.5569178922139,-1.19));
#1934=CARTESIAN_POINT('',(3.54070833368738,13.5569178922139,-1.195));
#1935=VECTOR('',#2239,1.0);
#1936=CARTESIAN_POINT('',(7.17199117480101,15.2344075128424,-1.19));
#1937=AXIS2_PLACEMENT_3D('',#2240,#2241,#2242);
#1938=CARTESIAN_POINT('',(7.17199117480101,15.2344075128424,0.0));
#1939=VECTOR('',#2243,1.0);
#1940=COLOUR_RGB('',0.811764717102051,0.811764717102051,0.811764717102051);
#1941=CARTESIAN_POINT('',(2.98224619301622,14.755066220127,1.2));
#1942=CARTESIAN_POINT('',(3.37347400238501,13.9157095090974,1.2));
#1943=VECTOR('',#2244,1.0);
#1944=AXIS2_PLACEMENT_3D('',#2245,#2246,#2247);
#1945=CARTESIAN_POINT('',(7.03067244904855,15.5375986920325,1.2));
#1946=VECTOR('',#2248,1.0);
#1947=COLOUR_RGB('',0.811764717102051,0.811764717102051,0.811764717102051);
#1948=CARTESIAN_POINT('',(4.5453736857813,11.4014662974526,-1.19));
#1949=CARTESIAN_POINT('',(3.34144064277202,13.9844352354494,-1.19));
#1950=VECTOR('',#2249,1.0);
#1951=CARTESIAN_POINT('',(4.09445145336932,11.1910449863238,-1.19));
#1952=CARTESIAN_POINT('',(3.00563025836237,10.6837851969343,-1.19));
#1953=VECTOR('',#2250,1.0);
#1954=CARTESIAN_POINT('',(8.17108864781623,13.0909014816606,-1.19));
#1955=CARTESIAN_POINT('',(6.3604989095056,12.2469943106993,-1.19));
#1956=VECTOR('',#2251,1.0);
#1957=CARTESIAN_POINT('',(6.99863908943556,15.6063244183845,-1.19));
#1958=VECTOR('',#2252,1.0);
#1959=COLOUR_RGB('',0.811764717102051,0.811764717102051,0.811764717102051);
#1960=CARTESIAN_POINT('',(2.98224619301622,14.755066220127,-1.5));
#1961=VECTOR('',#2253,1.0);
#1962=CARTESIAN_POINT('',(4.5453736857813,11.4014662974526,-1.5));
#1963=VECTOR('',#2254,1.0);
#1964=COLOUR_RGB('',0.811764717102051,0.811764717102051,0.811764717102051);
#1965=CARTESIAN_POINT('',(8.17108864781623,13.0909014816606,1.19));
#1966=CARTESIAN_POINT('',(6.99863908943556,15.6063244183845,1.19));
#1967=VECTOR('',#2255,1.0);
#1968=CARTESIAN_POINT('',(4.09445145336932,11.1910449863238,1.19));
#1969=CARTESIAN_POINT('',(6.3604989095056,12.2469943106993,1.19));
#1970=VECTOR('',#2256,1.0);
#1971=CARTESIAN_POINT('',(4.5453736857813,11.4014662974526,1.19));
#1972=CARTESIAN_POINT('',(3.00563025836237,10.6837851969343,1.19));
#1973=VECTOR('',#2257,1.0);
#1974=CARTESIAN_POINT('',(3.34144064277202,13.9844352354494,1.19));
#1975=VECTOR('',#2258,1.0);
#1976=COLOUR_RGB('',0.811764717102051,0.811764717102051,0.811764717102051);
#1977=CARTESIAN_POINT('',(8.17108864781623,13.0909014816606,-0.75));
#1978=VECTOR('',#2259,1.0);
#1979=CARTESIAN_POINT('',(4.09454507442089,11.1908441238106,0.0));
#1980=VECTOR('',#2260,1.0);
#1981=COLOUR_RGB('',0.811764717102051,0.811764717102051,0.811764717102051);
#1982=COLOUR_RGB('',0.811764717102051,0.811764717102051,0.811764717102051);
#1983=CARTESIAN_POINT('',(2.98224619301622,14.755066220127,1.5));
#1984=CARTESIAN_POINT('',(2.98224619301622,14.755066220127,-1.5));
#1985=VECTOR('',#2261,1.0);
#1986=AXIS2_PLACEMENT_3D('',#2262,#2263,#2264);
#1987=COLOUR_RGB('',0.811764717102051,0.811764717102051,0.811764717102051);
#1988=CARTESIAN_POINT('',(4.5453736857813,11.4014662974526,1.5));
#1989=CARTESIAN_POINT('',(4.5453736857813,11.4014662974526,1.5));
#1990=VECTOR('',#2265,1.0);
#1991=CARTESIAN_POINT('',(4.5453736857813,11.4014662974526,-1.5));
#1992=VECTOR('',#2266,1.0);
#1993=COLOUR_RGB('',0.811764717102051,0.811764717102051,0.811764717102051);
#1994=CARTESIAN_POINT('',(2.98224619301621,14.755066220127,1.5));
#1995=VECTOR('',#2267,1.0);
#1996=COLOUR_RGB('',0.811764717102051,0.811764717102051,0.811764717102051);
#1997=CARTESIAN_POINT('',(8.29762718268057,12.8194203499548,1.5));
#1998=CARTESIAN_POINT('',(8.29762718268057,12.8194203499548,1.5));
#1999=VECTOR('',#2268,1.0);
#2000=CARTESIAN_POINT('',(8.29762718268057,12.8194203499548,-1.5));
#2001=VECTOR('',#2269,1.0);
#2002=COLOUR_RGB('',0.811764717102051,0.811764717102051,0.811764717102051);
#2003=CARTESIAN_POINT('',(-4.97599648418571,6.6325266951655,1.5));
#2004=CARTESIAN_POINT('',(8.29762718268057,12.8194203499548,1.5));
#2005=VECTOR('',#2270,1.0);
#2006=CARTESIAN_POINT('',(-4.97599648418571,6.6325266951655,-1.5));
#2007=VECTOR('',#2271,1.0);
#2008=COLOUR_RGB('',0.811764717102051,0.811764717102051,0.811764717102051);
#2009=CARTESIAN_POINT('',(-5.00044344227733,6.5,1.5));
#2010=CARTESIAN_POINT('',(-5.00044344227733,6.5,-0.75));
#2011=VECTOR('',#2272,1.0);
#2012=CARTESIAN_POINT('',(-4.97599648418571,6.6325266951655,1.5));
#2013=VECTOR('',#2273,1.0);
#2014=COLOUR_RGB('',0.811764717102051,0.811764717102051,0.811764717102051);
#2015=CARTESIAN_POINT('',(1.06424313104067,6.5,1.5));
#2016=VECTOR('',#2274,1.0);
#2017=COLOUR_RGB('',0.121568627655506,0.121568627655506,0.121568627655506);
#2018=CARTESIAN_POINT('',(-2.79174243050442,0.5,2.9));
#2019=CARTESIAN_POINT('',(-3.70825756949558,0.5,2.9));
#2020=CARTESIAN_POINT('',(-1.25,0.5,2.9));
#2021=VECTOR('',#2275,1.0);
#2022=CARTESIAN_POINT('',(-2.79174243050442,0.5,-2.9));
#2023=CARTESIAN_POINT('',(-2.79174243050442,0.5,0.0));
#2024=VECTOR('',#2276,1.0);
#2025=CARTESIAN_POINT('',(-3.70825756949558,0.5,-2.9));
#2026=CARTESIAN_POINT('',(-1.25,0.5,-2.9));
#2027=VECTOR('',#2277,1.0);
#2028=CARTESIAN_POINT('',(-3.70825756949558,0.5,0.0));
#2029=VECTOR('',#2278,1.0);
#2030=COLOUR_RGB('',0.121568627655506,0.121568627655506,0.121568627655506);
#2031=AXIS2_PLACEMENT_3D('',#2279,#2280,#2281);
#2032=AXIS2_PLACEMENT_3D('',#2282,#2283,#2284);
#2033=COLOUR_RGB('',0.121568627655506,0.121568627655506,0.121568627655506);
#2034=CARTESIAN_POINT('',(-1.25,2.5,2.9));
#2035=VECTOR('',#2285,1.0);
#2036=CARTESIAN_POINT('',(-1.25,2.5,-2.9));
#2037=VECTOR('',#2286,1.0);
#2038=COLOUR_RGB('',0.121568627655506,0.121568627655506,0.121568627655506);
#2039=AXIS2_PLACEMENT_3D('',#2287,#2288,#2289);
#2040=AXIS2_PLACEMENT_3D('',#2290,#2291,#2292);
#2041=COLOUR_RGB('',0.121568627655506,0.121568627655506,0.121568627655506);
#2042=AXIS2_PLACEMENT_3D('',#2293,#2294,#2295);
#2043=AXIS2_PLACEMENT_3D('',#2296,#2297,#2298);
#2044=COLOUR_RGB('',0.121568627655506,0.121568627655506,0.121568627655506);
#2045=CARTESIAN_POINT('',(6.4,0.0,2.9));
#2046=CARTESIAN_POINT('',(6.4,6.5,2.9));
#2047=CARTESIAN_POINT('',(6.4,3.25,2.9));
#2048=VECTOR('',#2299,1.0);
#2049=CARTESIAN_POINT('',(-6.4,6.5,2.9));
#2050=CARTESIAN_POINT('',(0.0,6.5,2.9));
#2051=VECTOR('',#2300,1.0);
#2052=CARTESIAN_POINT('',(-6.4,0.0,2.9));
#2053=CARTESIAN_POINT('',(-6.4,3.25,2.9));
#2054=VECTOR('',#2301,1.0);
#2055=CARTESIAN_POINT('',(0.0,0.0,2.9));
#2056=VECTOR('',#2302,1.0);
#2057=COLOUR_RGB('',0.121568627655506,0.121568627655506,0.121568627655506);
#2058=CARTESIAN_POINT('',(6.4,6.5,-2.9));
#2059=CARTESIAN_POINT('',(6.4,0.0,-2.9));
#2060=CARTESIAN_POINT('',(6.4,3.25,-2.9));
#2061=VECTOR('',#2303,1.0);
#2062=CARTESIAN_POINT('',(-6.4,0.0,-2.9));
#2063=CARTESIAN_POINT('',(0.0,0.0,-2.9));
#2064=VECTOR('',#2304,1.0);
#2065=CARTESIAN_POINT('',(-6.4,6.5,-2.9));
#2066=CARTESIAN_POINT('',(-6.4,3.25,-2.9));
#2067=VECTOR('',#2305,1.0);
#2068=CARTESIAN_POINT('',(0.0,6.5,-2.9));
#2069=VECTOR('',#2306,1.0);
#2070=COLOUR_RGB('',0.121568627655506,0.121568627655506,0.121568627655506);
#2071=CARTESIAN_POINT('',(-6.4,0.0,0.0));
#2072=VECTOR('',#2307,1.0);
#2073=CARTESIAN_POINT('',(6.4,0.0,0.0));
#2074=VECTOR('',#2308,1.0);
#2075=COLOUR_RGB('',0.121568627655506,0.121568627655506,0.121568627655506);
#2076=CARTESIAN_POINT('',(-6.4,6.5,0.0));
#2077=VECTOR('',#2309,1.0);
#2078=COLOUR_RGB('',0.121568627655506,0.121568627655506,0.121568627655506);
#2079=CARTESIAN_POINT('',(6.4,6.5,0.0));
#2080=VECTOR('',#2310,1.0);
#2081=COLOUR_RGB('',0.121568627655506,0.121568627655506,0.121568627655506);
#2082=DIRECTION('',(-0.0,0.0,-1.0));
#2083=CARTESIAN_POINT('',(3.25,1.5,2.9));
#2084=DIRECTION('',(0.0,0.0,-1.0));
#2085=DIRECTION('',(1.0,0.0,0.0));
#2086=DIRECTION('',(-0.0,0.0,1.0));
#2087=CARTESIAN_POINT('',(3.25,1.5,-2.9));
#2088=DIRECTION('',(0.0,0.0,1.0));
#2089=DIRECTION('',(1.0,0.0,0.0));
#2090=DIRECTION('',(-0.0,0.0,-1.0));
#2091=CARTESIAN_POINT('',(-3.25,1.5,2.9));
#2092=DIRECTION('',(0.0,0.0,-1.0));
#2093=DIRECTION('',(1.0,0.0,0.0));
#2094=DIRECTION('',(-0.0,-0.0,-1.0));
#2095=CARTESIAN_POINT('',(-3.25,1.5,-2.9));
#2096=DIRECTION('',(0.0,0.0,1.0));
#2097=DIRECTION('',(1.0,0.0,0.0));
#2098=DIRECTION('',(-0.0,0.0,1.0));
#2099=CARTESIAN_POINT('',(-3.25,1.5,-2.9));
#2100=DIRECTION('',(0.0,0.0,1.0));
#2101=DIRECTION('',(1.0,0.0,0.0));
#2102=DIRECTION('',(0.0,0.0,1.0));
#2103=CARTESIAN_POINT('',(-3.25,1.5,2.9));
#2104=DIRECTION('',(0.0,0.0,-1.0));
#2105=DIRECTION('',(1.0,0.0,0.0));
#2106=DIRECTION('',(-0.0,-0.0,-1.0));
#2107=CARTESIAN_POINT('',(4.79500290797534,15.6000000000001,1.5));
#2108=DIRECTION('',(0.0,0.0,-1.0));
#2109=DIRECTION('',(1.0,0.0,0.0));
#2110=DIRECTION('',(0.0,0.0,1.0));
#2111=CARTESIAN_POINT('',(4.79500290797534,15.6000000000001,1.2));
#2112=DIRECTION('',(0.0,0.0,1.0));
#2113=DIRECTION('',(1.0,0.0,0.0));
#2114=DIRECTION('',(-0.0,-0.0,-1.0));
#2115=CARTESIAN_POINT('',(4.79500290797534,15.6000000000001,-1.2));
#2116=DIRECTION('',(0.0,0.0,-1.0));
#2117=DIRECTION('',(1.0,0.0,0.0));
#2118=DIRECTION('',(0.0,0.0,1.0));
#2119=CARTESIAN_POINT('',(4.79500290797534,15.6000000000001,-1.5));
#2120=DIRECTION('',(0.0,0.0,1.0));
#2121=DIRECTION('',(1.0,0.0,0.0));
#2122=DIRECTION('',(0.0,0.0,1.0));
#2123=CARTESIAN_POINT('',(4.8,15.6,-1.2));
#2124=DIRECTION('',(0.0,0.0,-1.0));
#2125=DIRECTION('',(1.0,0.0,0.0));
#2126=DIRECTION('',(-0.0,-0.0,-1.0));
#2127=CARTESIAN_POINT('',(4.8,15.6,1.2));
#2128=DIRECTION('',(0.0,0.0,1.0));
#2129=DIRECTION('',(1.0,0.0,0.0));
#2130=DIRECTION('',(0.0,0.0,1.0));
#2131=CARTESIAN_POINT('',(4.8,15.6,-2.3));
#2132=DIRECTION('',(0.0,0.0,-1.0));
#2133=DIRECTION('',(1.0,0.0,0.0));
#2134=DIRECTION('',(-0.0,-0.0,-1.0));
#2135=CARTESIAN_POINT('',(4.8,15.6,-1.5));
#2136=DIRECTION('',(0.0,0.0,1.0));
#2137=DIRECTION('',(1.0,0.0,0.0));
#2138=DIRECTION('',(0.0,0.0,1.0));
#2139=CARTESIAN_POINT('',(4.8,15.6,1.5));
#2140=DIRECTION('',(0.0,0.0,-1.0));
#2141=DIRECTION('',(1.0,0.0,0.0));
#2142=DIRECTION('',(-0.0,-0.0,-1.0));
#2143=CARTESIAN_POINT('',(4.8,15.6,2.3));
#2144=DIRECTION('',(0.0,0.0,1.0));
#2145=DIRECTION('',(1.0,0.0,0.0));
#2146=DIRECTION('',(-1.0,0.0,0.0));
#2147=CARTESIAN_POINT('',(-1.95,6.39,1.45));
#2148=DIRECTION('',(0.0,0.0,1.0));
#2149=DIRECTION('',(1.0,0.0,0.0));
#2150=DIRECTION('',(-0.0,-0.0,-1.0));
#2151=DIRECTION('',(0.0,0.0,1.0));
#2152=CARTESIAN_POINT('',(-1.95,6.39,-1.45));
#2153=DIRECTION('',(0.0,0.0,-1.0));
#2154=DIRECTION('',(1.0,0.0,0.0));
#2155=DIRECTION('',(1.0,0.0,0.0));
#2156=DIRECTION('',(0.0,0.0,1.0));
#2157=DIRECTION('',(0.0,1.0,0.0));
#2158=DIRECTION('',(0.0,0.0,-1.0));
#2159=DIRECTION('',(0.0,-1.0,0.0));
#2160=DIRECTION('',(-1.0,0.0,0.0));
#2161=DIRECTION('',(0.0,-1.0,0.0));
#2162=DIRECTION('',(-1.0,0.0,0.0));
#2163=DIRECTION('',(1.0,0.0,0.0));
#2164=DIRECTION('',(1.0,0.0,0.0));
#2165=DIRECTION('',(0.0,1.0,0.0));
#2166=DIRECTION('',(0.0,0.0,-1.0));
#2167=DIRECTION('',(0.0,0.0,-1.0));
#2168=DIRECTION('',(0.0,0.0,1.0));
#2169=DIRECTION('',(0.0,1.0,0.0));
#2170=DIRECTION('',(0.0,0.0,-1.0));
#2171=DIRECTION('',(0.0,-1.0,0.0));
#2172=DIRECTION('',(-1.0,0.0,0.0));
#2173=DIRECTION('',(0.0,-1.0,0.0));
#2174=DIRECTION('',(-1.0,0.0,0.0));
#2175=DIRECTION('',(1.0,0.0,0.0));
#2176=DIRECTION('',(1.0,0.0,0.0));
#2177=DIRECTION('',(0.0,1.0,0.0));
#2178=DIRECTION('',(0.0,0.0,-1.0));
#2179=DIRECTION('',(0.0,0.0,-1.0));
#2180=DIRECTION('',(0.0,0.0,1.0));
#2181=DIRECTION('',(0.0,1.0,0.0));
#2182=DIRECTION('',(0.0,0.0,-1.0));
#2183=DIRECTION('',(0.0,-1.0,0.0));
#2184=DIRECTION('',(-1.0,0.0,0.0));
#2185=DIRECTION('',(0.0,-1.0,0.0));
#2186=DIRECTION('',(-1.0,0.0,0.0));
#2187=DIRECTION('',(1.0,0.0,0.0));
#2188=DIRECTION('',(1.0,0.0,0.0));
#2189=DIRECTION('',(0.0,1.0,0.0));
#2190=DIRECTION('',(0.0,0.0,-1.0));
#2191=DIRECTION('',(0.0,0.0,-1.0));
#2192=DIRECTION('',(1.0,0.0,-0.0));
#2193=DIRECTION('',(0.182080626168039,0.983283603836785,0.0));
#2194=DIRECTION('',(-0.906378357479573,-0.422466889936515,0.0));
#2195=DIRECTION('',(0.422466889936512,-0.906378357479575,0.0));
#2196=CARTESIAN_POINT('',(4.79500290797534,15.6000000000001,-1.5));
#2197=DIRECTION('',(0.0,0.0,1.0));
#2198=DIRECTION('',(1.0,0.0,0.0));
#2199=DIRECTION('',(-0.422466889936517,0.906378357479572,0.0));
#2200=DIRECTION('',(-0.906378357479573,-0.422466889936514,0.0));
#2201=DIRECTION('',(-0.181407485507493,-0.983408015119792,0.0));
#2202=CARTESIAN_POINT('',(4.8,15.6,-1.5));
#2203=DIRECTION('',(0.0,0.0,1.0));
#2204=DIRECTION('',(1.0,0.0,0.0));
#2205=DIRECTION('',(-0.0,-0.0,-1.0));
#2206=DIRECTION('',(0.182080626168039,0.983283603836785,0.0));
#2207=DIRECTION('',(0.0,0.0,1.0));
#2208=CARTESIAN_POINT('',(4.8,15.6,2.3));
#2209=DIRECTION('',(0.0,0.0,1.0));
#2210=DIRECTION('',(1.0,0.0,0.0));
#2211=CARTESIAN_POINT('',(4.8,15.6,1.5));
#2212=DIRECTION('',(0.0,0.0,-1.0));
#2213=DIRECTION('',(1.0,0.0,0.0));
#2214=CARTESIAN_POINT('',(4.8,15.6,-2.3));
#2215=DIRECTION('',(0.0,0.0,-1.0));
#2216=DIRECTION('',(1.0,0.0,0.0));
#2217=DIRECTION('',(0.422466889936517,-0.906378357479572,0.0));
#2218=CARTESIAN_POINT('',(4.79500290797534,15.6000000000001,-1.2));
#2219=DIRECTION('',(0.0,0.0,-1.0));
#2220=DIRECTION('',(1.0,0.0,0.0));
#2221=DIRECTION('',(-0.422466889936512,0.906378357479575,0.0));
#2222=CARTESIAN_POINT('',(4.8,15.6,-1.2));
#2223=DIRECTION('',(0.0,0.0,-1.0));
#2224=DIRECTION('',(1.0,0.0,0.0));
#2225=CARTESIAN_POINT('',(4.8,15.6,-1.2));
#2226=DIRECTION('',(0.0,0.0,-1.0));
#2227=DIRECTION('',(1.0,0.0,0.0));
#2228=CARTESIAN_POINT('',(4.8,15.6,1.2));
#2229=DIRECTION('',(0.0,0.0,1.0));
#2230=DIRECTION('',(1.0,0.0,0.0));
#2231=DIRECTION('',(0.0,0.0,1.0));
#2232=CARTESIAN_POINT('',(4.8,15.6,1.19));
#2233=DIRECTION('',(0.0,0.0,1.0));
#2234=DIRECTION('',(1.0,0.0,0.0));
#2235=DIRECTION('',(-0.0,-0.0,-1.0));
#2236=CARTESIAN_POINT('',(4.8,15.6,1.2));
#2237=DIRECTION('',(0.0,0.0,1.0));
#2238=DIRECTION('',(1.0,0.0,0.0));
#2239=DIRECTION('',(-0.0,-0.0,-1.0));
#2240=CARTESIAN_POINT('',(4.8,15.6,-1.19));
#2241=DIRECTION('',(0.0,0.0,-1.0));
#2242=DIRECTION('',(1.0,0.0,0.0));
#2243=DIRECTION('',(0.0,0.0,1.0));
#2244=DIRECTION('',(0.422466889936512,-0.906378357479575,0.0));
#2245=CARTESIAN_POINT('',(4.79500290797534,15.6000000000001,1.2));
#2246=DIRECTION('',(0.0,0.0,1.0));
#2247=DIRECTION('',(1.0,0.0,0.0));
#2248=DIRECTION('',(-0.422466889936517,0.906378357479572,0.0));
#2249=DIRECTION('',(-0.422466889936512,0.906378357479575,0.0));
#2250=DIRECTION('',(0.906378357479573,0.422466889936515,-0.0));
#2251=DIRECTION('',(-0.906381534033883,-0.422460074755456,0.0));
#2252=DIRECTION('',(0.422466889936517,-0.906378357479572,0.0));
#2253=DIRECTION('',(0.0,0.0,1.0));
#2254=DIRECTION('',(0.0,0.0,1.0));
#2255=DIRECTION('',(-0.422466889936517,0.906378357479572,0.0));
#2256=DIRECTION('',(0.906381534033883,0.422460074755456,0.0));
#2257=DIRECTION('',(-0.906378357479573,-0.422466889936515,0.0));
#2258=DIRECTION('',(0.422466889936512,-0.906378357479575,0.0));
#2259=DIRECTION('',(0.0,-0.0,1.0));
#2260=DIRECTION('',(0.0,0.0,-1.0));
#2261=DIRECTION('',(0.0,0.0,1.0));
#2262=CARTESIAN_POINT('',(4.79500290797534,15.6000000000001,1.5));
#2263=DIRECTION('',(0.0,0.0,-1.0));
#2264=DIRECTION('',(1.0,0.0,0.0));
#2265=DIRECTION('',(0.906378357479573,0.422466889936515,0.0));
#2266=DIRECTION('',(0.0,0.0,1.0));
#2267=DIRECTION('',(-0.422466889936512,0.906378357479575,0.0));
#2268=DIRECTION('',(0.422466889936517,-0.906378357479572,0.0));
#2269=DIRECTION('',(0.0,0.0,1.0));
#2270=DIRECTION('',(-0.906378357479573,-0.422466889936514,0.0));
#2271=DIRECTION('',(0.0,0.0,1.0));
#2272=DIRECTION('',(0.0,0.0,1.0));
#2273=DIRECTION('',(-0.181407485507493,-0.983408015119792,0.0));
#2274=DIRECTION('',(-1.0,0.0,0.0));
#2275=DIRECTION('',(-1.0,0.0,0.0));
#2276=DIRECTION('',(0.0,0.0,1.0));
#2277=DIRECTION('',(1.0,0.0,0.0));
#2278=DIRECTION('',(-0.0,-0.0,-1.0));
#2279=CARTESIAN_POINT('',(-3.25,1.5,2.9));
#2280=DIRECTION('',(0.0,0.0,-1.0));
#2281=DIRECTION('',(1.0,0.0,0.0));
#2282=CARTESIAN_POINT('',(-3.25,1.5,-2.9));
#2283=DIRECTION('',(0.0,0.0,1.0));
#2284=DIRECTION('',(1.0,0.0,0.0));
#2285=DIRECTION('',(1.0,0.0,-0.0));
#2286=DIRECTION('',(-1.0,0.0,0.0));
#2287=CARTESIAN_POINT('',(-3.25,1.5,-2.9));
#2288=DIRECTION('',(0.0,0.0,1.0));
#2289=DIRECTION('',(1.0,0.0,0.0));
#2290=CARTESIAN_POINT('',(-3.25,1.5,2.9));
#2291=DIRECTION('',(0.0,0.0,-1.0));
#2292=DIRECTION('',(1.0,0.0,0.0));
#2293=CARTESIAN_POINT('',(3.25,1.5,-2.9));
#2294=DIRECTION('',(0.0,0.0,1.0));
#2295=DIRECTION('',(1.0,0.0,0.0));
#2296=CARTESIAN_POINT('',(3.25,1.5,2.9));
#2297=DIRECTION('',(0.0,0.0,-1.0));
#2298=DIRECTION('',(1.0,0.0,0.0));
#2299=DIRECTION('',(0.0,1.0,0.0));
#2300=DIRECTION('',(-1.0,0.0,0.0));
#2301=DIRECTION('',(0.0,-1.0,0.0));
#2302=DIRECTION('',(1.0,0.0,0.0));
#2303=DIRECTION('',(0.0,-1.0,0.0));
#2304=DIRECTION('',(-1.0,0.0,0.0));
#2305=DIRECTION('',(0.0,1.0,0.0));
#2306=DIRECTION('',(1.0,0.0,0.0));
#2307=DIRECTION('',(0.0,0.0,-1.0));
#2308=DIRECTION('',(0.0,0.0,-1.0));
#2309=DIRECTION('',(0.0,0.0,-1.0));
#2310=DIRECTION('',(0.0,0.0,-1.0));
ENDSEC;
END-ISO-10303-21;
