M48
INCH,TZ
T10C0.016
%
T10
X000249Y-00457
X-00249Y000457
X-04058Y-02422
X-03480Y-01671
X-01522Y001713
X-00994Y002398
X000969Y002425
X001547Y001675
X003505Y-01709
X004033Y-02395
X005030Y-02948
X005030Y002948
X004058Y002422
X003480Y001671
X002765Y000459
X002267Y-00455
X001522Y-01713
X000994Y-02398
X-00969Y-02425
X-01547Y-01675
X-02267Y-00455
X-02765Y000459
X-03505Y001709
X-04033Y002395
X000000Y003401
X-07746Y-02979
X-07746Y002979
X-08022Y-03381
X-08022Y003381
X-08297Y-02979
X-08297Y002979
X-08573Y-03381
X-08573Y003381
M30

