ISO-10303-21;
HEADER;
FILE_DESCRIPTION(('STEP AP242'),'1');
FILE_NAME('d2f-01fl30.stp','2025-07-17T07:33:25',('TraceParts'),('TraceParts S.A.'),'Spatial InterOp 3D',' ',' ');
FILE_SCHEMA(('AP242_MANAGED_MODEL_BASED_3D_ENGINEERING_MIM_LF  {1 0 10303 442 1 1 4}'));
ENDSEC;
DATA;
#1=MECHANICAL_DESIGN_GEOMETRIC_PRESENTATION_REPRESENTATION(' ',(#10,#11,#12,#13,#14,#15,#16,#17,#18,#19,#20,#21,#22,#23,#24,#25,#26,#27,#28,#29,#30,#31,#32,#33,#34,#35,#36,#37,#38,#39,#40,#41,#42,#43,#44,#45,#46,#47,#48,#49,#50,#51,#52),#6);
#2=PRODUCT_DEFINITION_CONTEXT('',#53,'design');
#3=APPLICATION_PROTOCOL_DEFINITION('INTERNATIONAL STANDARD','ap242_managed_model_based_3d_engineering',2014,#53);
#4=PRODUCT_CATEGORY_RELATIONSHIP('NONE','NONE',#54,#55);
#5=SHAPE_DEFINITION_REPRESENTATION(#56,#57);
#6= (GEOMETRIC_REPRESENTATION_CONTEXT(3)GLOBAL_UNCERTAINTY_ASSIGNED_CONTEXT((#60))GLOBAL_UNIT_ASSIGNED_CONTEXT((#62,#63,#64))REPRESENTATION_CONTEXT('NONE','WORKSPACE'));
#10=STYLED_ITEM('',(#66),#67);
#11=STYLED_ITEM('',(#68),#69);
#12=STYLED_ITEM('',(#70),#71);
#13=STYLED_ITEM('',(#72),#73);
#14=STYLED_ITEM('',(#74),#75);
#15=STYLED_ITEM('',(#76),#77);
#16=STYLED_ITEM('',(#78),#79);
#17=STYLED_ITEM('',(#80),#81);
#18=STYLED_ITEM('',(#82),#83);
#19=STYLED_ITEM('',(#84),#85);
#20=STYLED_ITEM('',(#86),#87);
#21=STYLED_ITEM('',(#88),#89);
#22=STYLED_ITEM('',(#90),#91);
#23=STYLED_ITEM('',(#92),#93);
#24=STYLED_ITEM('',(#94),#95);
#25=STYLED_ITEM('',(#96),#97);
#26=STYLED_ITEM('',(#98),#99);
#27=STYLED_ITEM('',(#100),#101);
#28=STYLED_ITEM('',(#102),#103);
#29=STYLED_ITEM('',(#104),#105);
#30=STYLED_ITEM('',(#106),#107);
#31=STYLED_ITEM('',(#108),#109);
#32=STYLED_ITEM('',(#110),#111);
#33=STYLED_ITEM('',(#112),#113);
#34=STYLED_ITEM('',(#114),#115);
#35=STYLED_ITEM('',(#116),#117);
#36=STYLED_ITEM('',(#118),#119);
#37=STYLED_ITEM('',(#120),#121);
#38=STYLED_ITEM('',(#122),#123);
#39=STYLED_ITEM('',(#124),#125);
#40=STYLED_ITEM('',(#126),#127);
#41=STYLED_ITEM('',(#128),#129);
#42=STYLED_ITEM('',(#130),#131);
#43=STYLED_ITEM('',(#132),#133);
#44=STYLED_ITEM('',(#134),#135);
#45=STYLED_ITEM('',(#136),#137);
#46=STYLED_ITEM('',(#138),#139);
#47=STYLED_ITEM('',(#140),#141);
#48=STYLED_ITEM('',(#142),#143);
#49=STYLED_ITEM('',(#144),#145);
#50=STYLED_ITEM('',(#146),#147);
#51=STYLED_ITEM('',(#148),#149);
#52=STYLED_ITEM('',(#150),#151);
#53=APPLICATION_CONTEXT('managed model based 3d engineering');
#54=PRODUCT_CATEGORY('part','NONE');
#55=PRODUCT_RELATED_PRODUCT_CATEGORY('detail',' ',(#152));
#56=PRODUCT_DEFINITION_SHAPE('NONE','NONE',#153);
#57=ADVANCED_BREP_SHAPE_REPRESENTATION('1',(#154,#155),#6);
#60=UNCERTAINTY_MEASURE_WITH_UNIT(LENGTH_MEASURE(1.0E-06),#62,'','');
#62= (CONVERSION_BASED_UNIT('MILLIMETRE',#158)LENGTH_UNIT()NAMED_UNIT(#161));
#63= (NAMED_UNIT(#163)PLANE_ANGLE_UNIT()SI_UNIT($,.RADIAN.));
#64= (NAMED_UNIT(#163)SOLID_ANGLE_UNIT()SI_UNIT($,.STERADIAN.));
#66=PRESENTATION_STYLE_ASSIGNMENT((#169));
#67=ADVANCED_FACE('',(#170),#171,.F.);
#68=PRESENTATION_STYLE_ASSIGNMENT((#172));
#69=ADVANCED_FACE('',(#173),#174,.F.);
#70=PRESENTATION_STYLE_ASSIGNMENT((#175));
#71=ADVANCED_FACE('',(#176),#177,.F.);
#72=PRESENTATION_STYLE_ASSIGNMENT((#178));
#73=ADVANCED_FACE('',(#179),#180,.F.);
#74=PRESENTATION_STYLE_ASSIGNMENT((#181));
#75=ADVANCED_FACE('',(#182),#183,.T.);
#76=PRESENTATION_STYLE_ASSIGNMENT((#184));
#77=ADVANCED_FACE('',(#185),#186,.T.);
#78=PRESENTATION_STYLE_ASSIGNMENT((#187));
#79=ADVANCED_FACE('',(#188),#189,.T.);
#80=PRESENTATION_STYLE_ASSIGNMENT((#190));
#81=ADVANCED_FACE('',(#191),#192,.T.);
#82=PRESENTATION_STYLE_ASSIGNMENT((#193));
#83=ADVANCED_FACE('',(#194),#195,.F.);
#84=PRESENTATION_STYLE_ASSIGNMENT((#196));
#85=ADVANCED_FACE('',(#197),#198,.F.);
#86=PRESENTATION_STYLE_ASSIGNMENT((#199));
#87=ADVANCED_FACE('',(#200),#201,.T.);
#88=PRESENTATION_STYLE_ASSIGNMENT((#202));
#89=ADVANCED_FACE('',(#203),#204,.F.);
#90=PRESENTATION_STYLE_ASSIGNMENT((#205));
#91=ADVANCED_FACE('',(#206),#207,.F.);
#92=PRESENTATION_STYLE_ASSIGNMENT((#208));
#93=ADVANCED_FACE('',(#209),#210,.F.);
#94=PRESENTATION_STYLE_ASSIGNMENT((#211));
#95=ADVANCED_FACE('',(#212),#213,.F.);
#96=PRESENTATION_STYLE_ASSIGNMENT((#214));
#97=ADVANCED_FACE('',(#215),#216,.T.);
#98=PRESENTATION_STYLE_ASSIGNMENT((#217));
#99=ADVANCED_FACE('',(#218),#219,.F.);
#100=PRESENTATION_STYLE_ASSIGNMENT((#220));
#101=ADVANCED_FACE('',(#221),#222,.F.);
#102=PRESENTATION_STYLE_ASSIGNMENT((#223));
#103=ADVANCED_FACE('',(#224),#225,.F.);
#104=PRESENTATION_STYLE_ASSIGNMENT((#226));
#105=ADVANCED_FACE('',(#227),#228,.F.);
#106=PRESENTATION_STYLE_ASSIGNMENT((#229));
#107=ADVANCED_FACE('',(#230),#231,.T.);
#108=PRESENTATION_STYLE_ASSIGNMENT((#232));
#109=ADVANCED_FACE('',(#233),#234,.F.);
#110=PRESENTATION_STYLE_ASSIGNMENT((#235));
#111=ADVANCED_FACE('',(#236),#237,.F.);
#112=PRESENTATION_STYLE_ASSIGNMENT((#238));
#113=ADVANCED_FACE('',(#239),#240,.F.);
#114=PRESENTATION_STYLE_ASSIGNMENT((#241));
#115=ADVANCED_FACE('',(#242),#243,.T.);
#116=PRESENTATION_STYLE_ASSIGNMENT((#244));
#117=ADVANCED_FACE('',(#245),#246,.T.);
#118=PRESENTATION_STYLE_ASSIGNMENT((#247));
#119=ADVANCED_FACE('',(#248),#249,.T.);
#120=PRESENTATION_STYLE_ASSIGNMENT((#250));
#121=ADVANCED_FACE('',(#251),#252,.T.);
#122=PRESENTATION_STYLE_ASSIGNMENT((#253));
#123=ADVANCED_FACE('',(#254),#255,.F.);
#124=PRESENTATION_STYLE_ASSIGNMENT((#256));
#125=ADVANCED_FACE('',(#257),#258,.T.);
#126=PRESENTATION_STYLE_ASSIGNMENT((#259));
#127=ADVANCED_FACE('',(#260),#261,.T.);
#128=PRESENTATION_STYLE_ASSIGNMENT((#262));
#129=ADVANCED_FACE('',(#263),#264,.T.);
#130=PRESENTATION_STYLE_ASSIGNMENT((#265));
#131=ADVANCED_FACE('',(#266),#267,.T.);
#132=PRESENTATION_STYLE_ASSIGNMENT((#268));
#133=ADVANCED_FACE('',(#269),#270,.F.);
#134=PRESENTATION_STYLE_ASSIGNMENT((#271));
#135=ADVANCED_FACE('',(#272),#273,.T.);
#136=PRESENTATION_STYLE_ASSIGNMENT((#274));
#137=ADVANCED_FACE('',(#275),#276,.F.);
#138=PRESENTATION_STYLE_ASSIGNMENT((#277));
#139=ADVANCED_FACE('',(#278),#279,.F.);
#140=PRESENTATION_STYLE_ASSIGNMENT((#280));
#141=ADVANCED_FACE('',(#281,#282,#283),#284,.T.);
#142=PRESENTATION_STYLE_ASSIGNMENT((#285));
#143=ADVANCED_FACE('',(#286,#287,#288),#289,.F.);
#144=PRESENTATION_STYLE_ASSIGNMENT((#290));
#145=ADVANCED_FACE('',(#291,#292,#293,#294),#295,.F.);
#146=PRESENTATION_STYLE_ASSIGNMENT((#296));
#147=ADVANCED_FACE('',(#297),#298,.F.);
#148=PRESENTATION_STYLE_ASSIGNMENT((#299));
#149=ADVANCED_FACE('',(#300,#301,#302),#303,.F.);
#150=PRESENTATION_STYLE_ASSIGNMENT((#304));
#151=ADVANCED_FACE('',(#305),#306,.F.);
#152=PRODUCT('1','','PART--DESC',(#307));
#153=PRODUCT_DEFINITION('','NONE',#308,#2);
#154=MANIFOLD_SOLID_BREP('1',#309);
#155=AXIS2_PLACEMENT_3D('',#310,#311,#312);
#158=LENGTH_MEASURE_WITH_UNIT(LENGTH_MEASURE(1.0),#313);
#161=DIMENSIONAL_EXPONENTS(1.0,0.0,0.0,0.0,0.0,0.0,0.0);
#163=DIMENSIONAL_EXPONENTS(0.0,0.0,0.0,0.0,0.0,0.0,0.0);
#169=SURFACE_STYLE_USAGE(.BOTH.,#314);
#170=FACE_OUTER_BOUND('',#315,.T.);
#171=CYLINDRICAL_SURFACE('',#316,1.0);
#172=SURFACE_STYLE_USAGE(.BOTH.,#317);
#173=FACE_OUTER_BOUND('',#318,.T.);
#174=CYLINDRICAL_SURFACE('',#319,1.1);
#175=SURFACE_STYLE_USAGE(.BOTH.,#320);
#176=FACE_OUTER_BOUND('',#321,.T.);
#177=CYLINDRICAL_SURFACE('',#322,1.1);
#178=SURFACE_STYLE_USAGE(.BOTH.,#323);
#179=FACE_OUTER_BOUND('',#324,.T.);
#180=CYLINDRICAL_SURFACE('',#325,2.2);
#181=SURFACE_STYLE_USAGE(.BOTH.,#326);
#182=FACE_OUTER_BOUND('',#327,.T.);
#183=CYLINDRICAL_SURFACE('',#328,2.5);
#184=SURFACE_STYLE_USAGE(.BOTH.,#329);
#185=FACE_OUTER_BOUND('',#330,.T.);
#186=PLANE('',#331);
#187=SURFACE_STYLE_USAGE(.BOTH.,#332);
#188=FACE_OUTER_BOUND('',#333,.T.);
#189=CYLINDRICAL_SURFACE('',#334,0.61);
#190=SURFACE_STYLE_USAGE(.BOTH.,#335);
#191=FACE_OUTER_BOUND('',#336,.T.);
#192=PLANE('',#337);
#193=SURFACE_STYLE_USAGE(.BOTH.,#338);
#194=FACE_OUTER_BOUND('',#339,.T.);
#195=PLANE('',#340);
#196=SURFACE_STYLE_USAGE(.BOTH.,#341);
#197=FACE_OUTER_BOUND('',#342,.T.);
#198=PLANE('',#343);
#199=SURFACE_STYLE_USAGE(.BOTH.,#344);
#200=FACE_OUTER_BOUND('',#345,.T.);
#201=PLANE('',#346);
#202=SURFACE_STYLE_USAGE(.BOTH.,#347);
#203=FACE_OUTER_BOUND('',#348,.T.);
#204=PLANE('',#349);
#205=SURFACE_STYLE_USAGE(.BOTH.,#350);
#206=FACE_OUTER_BOUND('',#351,.T.);
#207=PLANE('',#352);
#208=SURFACE_STYLE_USAGE(.BOTH.,#353);
#209=FACE_OUTER_BOUND('',#354,.T.);
#210=PLANE('',#355);
#211=SURFACE_STYLE_USAGE(.BOTH.,#356);
#212=FACE_OUTER_BOUND('',#357,.T.);
#213=PLANE('',#358);
#214=SURFACE_STYLE_USAGE(.BOTH.,#359);
#215=FACE_OUTER_BOUND('',#360,.T.);
#216=PLANE('',#361);
#217=SURFACE_STYLE_USAGE(.BOTH.,#362);
#218=FACE_OUTER_BOUND('',#363,.T.);
#219=PLANE('',#364);
#220=SURFACE_STYLE_USAGE(.BOTH.,#365);
#221=FACE_OUTER_BOUND('',#366,.T.);
#222=PLANE('',#367);
#223=SURFACE_STYLE_USAGE(.BOTH.,#368);
#224=FACE_OUTER_BOUND('',#369,.T.);
#225=PLANE('',#370);
#226=SURFACE_STYLE_USAGE(.BOTH.,#371);
#227=FACE_OUTER_BOUND('',#372,.T.);
#228=PLANE('',#373);
#229=SURFACE_STYLE_USAGE(.BOTH.,#374);
#230=FACE_OUTER_BOUND('',#375,.T.);
#231=PLANE('',#376);
#232=SURFACE_STYLE_USAGE(.BOTH.,#377);
#233=FACE_OUTER_BOUND('',#378,.T.);
#234=PLANE('',#379);
#235=SURFACE_STYLE_USAGE(.BOTH.,#380);
#236=FACE_OUTER_BOUND('',#381,.T.);
#237=PLANE('',#382);
#238=SURFACE_STYLE_USAGE(.BOTH.,#383);
#239=FACE_OUTER_BOUND('',#384,.T.);
#240=PLANE('',#385);
#241=SURFACE_STYLE_USAGE(.BOTH.,#386);
#242=FACE_OUTER_BOUND('',#387,.T.);
#243=PLANE('',#388);
#244=SURFACE_STYLE_USAGE(.BOTH.,#389);
#245=FACE_OUTER_BOUND('',#390,.T.);
#246=PLANE('',#391);
#247=SURFACE_STYLE_USAGE(.BOTH.,#392);
#248=FACE_OUTER_BOUND('',#393,.T.);
#249=CYLINDRICAL_SURFACE('',#394,2.5);
#250=SURFACE_STYLE_USAGE(.BOTH.,#395);
#251=FACE_OUTER_BOUND('',#396,.T.);
#252=PLANE('',#397);
#253=SURFACE_STYLE_USAGE(.BOTH.,#398);
#254=FACE_OUTER_BOUND('',#399,.T.);
#255=CYLINDRICAL_SURFACE('',#400,2.2);
#256=SURFACE_STYLE_USAGE(.BOTH.,#401);
#257=FACE_OUTER_BOUND('',#402,.T.);
#258=PLANE('',#403);
#259=SURFACE_STYLE_USAGE(.BOTH.,#404);
#260=FACE_OUTER_BOUND('',#405,.T.);
#261=PLANE('',#406);
#262=SURFACE_STYLE_USAGE(.BOTH.,#407);
#263=FACE_OUTER_BOUND('',#408,.T.);
#264=PLANE('',#409);
#265=SURFACE_STYLE_USAGE(.BOTH.,#410);
#266=FACE_OUTER_BOUND('',#411,.T.);
#267=PLANE('',#412);
#268=SURFACE_STYLE_USAGE(.BOTH.,#413);
#269=FACE_OUTER_BOUND('',#414,.T.);
#270=CYLINDRICAL_SURFACE('',#415,1.1);
#271=SURFACE_STYLE_USAGE(.BOTH.,#416);
#272=FACE_OUTER_BOUND('',#417,.T.);
#273=PLANE('',#418);
#274=SURFACE_STYLE_USAGE(.BOTH.,#419);
#275=FACE_OUTER_BOUND('',#420,.T.);
#276=CYLINDRICAL_SURFACE('',#421,1.1);
#277=SURFACE_STYLE_USAGE(.BOTH.,#422);
#278=FACE_OUTER_BOUND('',#423,.T.);
#279=CYLINDRICAL_SURFACE('',#424,1.0);
#280=SURFACE_STYLE_USAGE(.BOTH.,#425);
#281=FACE_BOUND('',#426,.T.);
#282=FACE_BOUND('',#427,.T.);
#283=FACE_OUTER_BOUND('',#428,.T.);
#284=PLANE('',#429);
#285=SURFACE_STYLE_USAGE(.BOTH.,#430);
#286=FACE_BOUND('',#431,.T.);
#287=FACE_BOUND('',#432,.T.);
#288=FACE_OUTER_BOUND('',#433,.T.);
#289=PLANE('',#434);
#290=SURFACE_STYLE_USAGE(.BOTH.,#435);
#291=FACE_BOUND('',#436,.T.);
#292=FACE_BOUND('',#437,.T.);
#293=FACE_BOUND('',#438,.T.);
#294=FACE_OUTER_BOUND('',#439,.T.);
#295=PLANE('',#440);
#296=SURFACE_STYLE_USAGE(.BOTH.,#441);
#297=FACE_OUTER_BOUND('',#442,.T.);
#298=PLANE('',#443);
#299=SURFACE_STYLE_USAGE(.BOTH.,#444);
#300=FACE_BOUND('',#445,.T.);
#301=FACE_BOUND('',#446,.T.);
#302=FACE_OUTER_BOUND('',#447,.T.);
#303=PLANE('',#448);
#304=SURFACE_STYLE_USAGE(.BOTH.,#449);
#305=FACE_OUTER_BOUND('',#450,.T.);
#306=PLANE('',#451);
#307=PRODUCT_CONTEXT('',#53,'mechanical');
#308=PRODUCT_DEFINITION_FORMATION_WITH_SPECIFIED_SOURCE(' ','NONE',#152,.NOT_KNOWN.);
#309=CLOSED_SHELL('',(#67,#69,#71,#73,#75,#77,#79,#81,#83,#85,#87,#89,#91,#93,#95,#97,#99,#101,#103,#105,#107,#109,#111,#113,#115,#117,#119,#121,#123,#125,#127,#129,#131,#133,#135,#137,#139,#141,#143,#145,#147,#149,#151));
#310=CARTESIAN_POINT('',(0.0,0.0,0.0));
#311=DIRECTION('',(0.0,0.0,1.0));
#312=DIRECTION('',(1.0,0.0,0.0));
#313= (NAMED_UNIT(#161)LENGTH_UNIT()SI_UNIT(.MILLI.,.METRE.));
#314=SURFACE_SIDE_STYLE('',(#453));
#315=EDGE_LOOP('',(#454,#455,#456,#457));
#316=AXIS2_PLACEMENT_3D('',#458,#459,#460);
#317=SURFACE_SIDE_STYLE('',(#461));
#318=EDGE_LOOP('',(#462,#463,#464,#465));
#319=AXIS2_PLACEMENT_3D('',#466,#467,#468);
#320=SURFACE_SIDE_STYLE('',(#469));
#321=EDGE_LOOP('',(#470,#471,#472,#473));
#322=AXIS2_PLACEMENT_3D('',#474,#475,#476);
#323=SURFACE_SIDE_STYLE('',(#477));
#324=EDGE_LOOP('',(#478,#479,#480,#481));
#325=AXIS2_PLACEMENT_3D('',#482,#483,#484);
#326=SURFACE_SIDE_STYLE('',(#485));
#327=EDGE_LOOP('',(#486,#487,#488,#489));
#328=AXIS2_PLACEMENT_3D('',#490,#491,#492);
#329=SURFACE_SIDE_STYLE('',(#493));
#330=EDGE_LOOP('',(#494,#495));
#331=AXIS2_PLACEMENT_3D('',#496,#497,#498);
#332=SURFACE_SIDE_STYLE('',(#499));
#333=EDGE_LOOP('',(#500,#501,#502,#503));
#334=AXIS2_PLACEMENT_3D('',#504,#505,#506);
#335=SURFACE_SIDE_STYLE('',(#507));
#336=EDGE_LOOP('',(#508,#509));
#337=AXIS2_PLACEMENT_3D('',#510,#511,#512);
#338=SURFACE_SIDE_STYLE('',(#513));
#339=EDGE_LOOP('',(#514,#515,#516,#517));
#340=AXIS2_PLACEMENT_3D('',#518,#519,#520);
#341=SURFACE_SIDE_STYLE('',(#521));
#342=EDGE_LOOP('',(#522,#523,#524,#525));
#343=AXIS2_PLACEMENT_3D('',#526,#527,#528);
#344=SURFACE_SIDE_STYLE('',(#529));
#345=EDGE_LOOP('',(#530,#531,#532,#533));
#346=AXIS2_PLACEMENT_3D('',#534,#535,#536);
#347=SURFACE_SIDE_STYLE('',(#537));
#348=EDGE_LOOP('',(#538,#539,#540,#541));
#349=AXIS2_PLACEMENT_3D('',#542,#543,#544);
#350=SURFACE_SIDE_STYLE('',(#545));
#351=EDGE_LOOP('',(#546,#547,#548,#549));
#352=AXIS2_PLACEMENT_3D('',#550,#551,#552);
#353=SURFACE_SIDE_STYLE('',(#553));
#354=EDGE_LOOP('',(#554,#555,#556,#557));
#355=AXIS2_PLACEMENT_3D('',#558,#559,#560);
#356=SURFACE_SIDE_STYLE('',(#561));
#357=EDGE_LOOP('',(#562,#563,#564,#565));
#358=AXIS2_PLACEMENT_3D('',#566,#567,#568);
#359=SURFACE_SIDE_STYLE('',(#569));
#360=EDGE_LOOP('',(#570,#571,#572,#573));
#361=AXIS2_PLACEMENT_3D('',#574,#575,#576);
#362=SURFACE_SIDE_STYLE('',(#577));
#363=EDGE_LOOP('',(#578,#579,#580,#581));
#364=AXIS2_PLACEMENT_3D('',#582,#583,#584);
#365=SURFACE_SIDE_STYLE('',(#585));
#366=EDGE_LOOP('',(#586,#587,#588,#589));
#367=AXIS2_PLACEMENT_3D('',#590,#591,#592);
#368=SURFACE_SIDE_STYLE('',(#593));
#369=EDGE_LOOP('',(#594,#595,#596,#597));
#370=AXIS2_PLACEMENT_3D('',#598,#599,#600);
#371=SURFACE_SIDE_STYLE('',(#601));
#372=EDGE_LOOP('',(#602,#603,#604,#605));
#373=AXIS2_PLACEMENT_3D('',#606,#607,#608);
#374=SURFACE_SIDE_STYLE('',(#609));
#375=EDGE_LOOP('',(#610,#611,#612,#613));
#376=AXIS2_PLACEMENT_3D('',#614,#615,#616);
#377=SURFACE_SIDE_STYLE('',(#617));
#378=EDGE_LOOP('',(#618,#619,#620,#621));
#379=AXIS2_PLACEMENT_3D('',#622,#623,#624);
#380=SURFACE_SIDE_STYLE('',(#625));
#381=EDGE_LOOP('',(#626,#627,#628,#629));
#382=AXIS2_PLACEMENT_3D('',#630,#631,#632);
#383=SURFACE_SIDE_STYLE('',(#633));
#384=EDGE_LOOP('',(#634,#635,#636,#637,#638,#639,#640,#641,#642,#643));
#385=AXIS2_PLACEMENT_3D('',#644,#645,#646);
#386=SURFACE_SIDE_STYLE('',(#647));
#387=EDGE_LOOP('',(#648,#649,#650,#651));
#388=AXIS2_PLACEMENT_3D('',#652,#653,#654);
#389=SURFACE_SIDE_STYLE('',(#655));
#390=EDGE_LOOP('',(#656,#657,#658,#659));
#391=AXIS2_PLACEMENT_3D('',#660,#661,#662);
#392=SURFACE_SIDE_STYLE('',(#663));
#393=EDGE_LOOP('',(#664,#665,#666,#667));
#394=AXIS2_PLACEMENT_3D('',#668,#669,#670);
#395=SURFACE_SIDE_STYLE('',(#671));
#396=EDGE_LOOP('',(#672,#673,#674,#675));
#397=AXIS2_PLACEMENT_3D('',#676,#677,#678);
#398=SURFACE_SIDE_STYLE('',(#679));
#399=EDGE_LOOP('',(#680,#681,#682,#683));
#400=AXIS2_PLACEMENT_3D('',#684,#685,#686);
#401=SURFACE_SIDE_STYLE('',(#687));
#402=EDGE_LOOP('',(#688,#689,#690,#691));
#403=AXIS2_PLACEMENT_3D('',#692,#693,#694);
#404=SURFACE_SIDE_STYLE('',(#695));
#405=EDGE_LOOP('',(#696,#697,#698,#699));
#406=AXIS2_PLACEMENT_3D('',#700,#701,#702);
#407=SURFACE_SIDE_STYLE('',(#703));
#408=EDGE_LOOP('',(#704,#705,#706,#707,#708,#709,#710,#711,#712,#713));
#409=AXIS2_PLACEMENT_3D('',#714,#715,#716);
#410=SURFACE_SIDE_STYLE('',(#717));
#411=EDGE_LOOP('',(#718,#719,#720,#721));
#412=AXIS2_PLACEMENT_3D('',#722,#723,#724);
#413=SURFACE_SIDE_STYLE('',(#725));
#414=EDGE_LOOP('',(#726,#727,#728,#729));
#415=AXIS2_PLACEMENT_3D('',#730,#731,#732);
#416=SURFACE_SIDE_STYLE('',(#733));
#417=EDGE_LOOP('',(#734,#735,#736,#737));
#418=AXIS2_PLACEMENT_3D('',#738,#739,#740);
#419=SURFACE_SIDE_STYLE('',(#741));
#420=EDGE_LOOP('',(#742,#743,#744,#745));
#421=AXIS2_PLACEMENT_3D('',#746,#747,#748);
#422=SURFACE_SIDE_STYLE('',(#749));
#423=EDGE_LOOP('',(#750,#751,#752,#753));
#424=AXIS2_PLACEMENT_3D('',#754,#755,#756);
#425=SURFACE_SIDE_STYLE('',(#757));
#426=EDGE_LOOP('',(#758,#759,#760,#761,#762,#763));
#427=EDGE_LOOP('',(#764,#765));
#428=EDGE_LOOP('',(#766,#767,#768,#769));
#429=AXIS2_PLACEMENT_3D('',#770,#771,#772);
#430=SURFACE_SIDE_STYLE('',(#773));
#431=EDGE_LOOP('',(#774,#775,#776,#777,#778,#779));
#432=EDGE_LOOP('',(#780,#781));
#433=EDGE_LOOP('',(#782,#783,#784,#785));
#434=AXIS2_PLACEMENT_3D('',#786,#787,#788);
#435=SURFACE_SIDE_STYLE('',(#789));
#436=EDGE_LOOP('',(#790,#791,#792,#793));
#437=EDGE_LOOP('',(#794,#795,#796,#797));
#438=EDGE_LOOP('',(#798,#799,#800,#801));
#439=EDGE_LOOP('',(#802,#803,#804,#805));
#440=AXIS2_PLACEMENT_3D('',#806,#807,#808);
#441=SURFACE_SIDE_STYLE('',(#809));
#442=EDGE_LOOP('',(#810,#811,#812,#813));
#443=AXIS2_PLACEMENT_3D('',#814,#815,#816);
#444=SURFACE_SIDE_STYLE('',(#817));
#445=EDGE_LOOP('',(#818,#819,#820,#821));
#446=EDGE_LOOP('',(#822,#823,#824,#825));
#447=EDGE_LOOP('',(#826,#827,#828,#829));
#448=AXIS2_PLACEMENT_3D('',#830,#831,#832);
#449=SURFACE_SIDE_STYLE('',(#833));
#450=EDGE_LOOP('',(#834,#835,#836,#837));
#451=AXIS2_PLACEMENT_3D('',#838,#839,#840);
#453=SURFACE_STYLE_FILL_AREA(#841);
#454=ORIENTED_EDGE('',*,*,#842,.F.);
#455=ORIENTED_EDGE('',*,*,#843,.F.);
#456=ORIENTED_EDGE('',*,*,#844,.F.);
#457=ORIENTED_EDGE('',*,*,#845,.F.);
#458=CARTESIAN_POINT('',(3.25,1.5,0.0));
#459=DIRECTION('',(0.0,0.0,1.0));
#460=DIRECTION('',(1.0,0.0,0.0));
#461=SURFACE_STYLE_FILL_AREA(#846);
#462=ORIENTED_EDGE('',*,*,#847,.F.);
#463=ORIENTED_EDGE('',*,*,#848,.F.);
#464=ORIENTED_EDGE('',*,*,#849,.T.);
#465=ORIENTED_EDGE('',*,*,#850,.F.);
#466=CARTESIAN_POINT('',(-3.25,1.5,0.0));
#467=DIRECTION('',(0.0,0.0,1.0));
#468=DIRECTION('',(1.0,0.0,0.0));
#469=SURFACE_STYLE_FILL_AREA(#851);
#470=ORIENTED_EDGE('',*,*,#852,.F.);
#471=ORIENTED_EDGE('',*,*,#853,.F.);
#472=ORIENTED_EDGE('',*,*,#854,.T.);
#473=ORIENTED_EDGE('',*,*,#855,.F.);
#474=CARTESIAN_POINT('',(-3.25,1.5,0.0));
#475=DIRECTION('',(0.0,0.0,1.0));
#476=DIRECTION('',(1.0,0.0,0.0));
#477=SURFACE_STYLE_FILL_AREA(#856);
#478=ORIENTED_EDGE('',*,*,#857,.F.);
#479=ORIENTED_EDGE('',*,*,#858,.T.);
#480=ORIENTED_EDGE('',*,*,#859,.F.);
#481=ORIENTED_EDGE('',*,*,#860,.F.);
#482=CARTESIAN_POINT('',(6.55,14.1,-1.5));
#483=DIRECTION('',(0.0,0.0,1.0));
#484=DIRECTION('',(1.0,0.0,0.0));
#485=SURFACE_STYLE_FILL_AREA(#861);
#486=ORIENTED_EDGE('',*,*,#862,.F.);
#487=ORIENTED_EDGE('',*,*,#863,.T.);
#488=ORIENTED_EDGE('',*,*,#864,.F.);
#489=ORIENTED_EDGE('',*,*,#865,.T.);
#490=CARTESIAN_POINT('',(6.55,14.1,-1.5));
#491=DIRECTION('',(0.0,0.0,1.0));
#492=DIRECTION('',(1.0,0.0,0.0));
#493=SURFACE_STYLE_FILL_AREA(#866);
#494=ORIENTED_EDGE('',*,*,#867,.F.);
#495=ORIENTED_EDGE('',*,*,#868,.T.);
#496=CARTESIAN_POINT('',(-1.95,6.39,1.45));
#497=DIRECTION('',(0.0,0.0,1.0));
#498=DIRECTION('',(1.0,0.0,0.0));
#499=SURFACE_STYLE_FILL_AREA(#869);
#500=ORIENTED_EDGE('',*,*,#870,.F.);
#501=ORIENTED_EDGE('',*,*,#868,.F.);
#502=ORIENTED_EDGE('',*,*,#871,.F.);
#503=ORIENTED_EDGE('',*,*,#872,.F.);
#504=CARTESIAN_POINT('',(-1.95,6.39,0.0));
#505=DIRECTION('',(0.0,0.0,1.0));
#506=DIRECTION('',(1.0,0.0,0.0));
#507=SURFACE_STYLE_FILL_AREA(#873);
#508=ORIENTED_EDGE('',*,*,#874,.F.);
#509=ORIENTED_EDGE('',*,*,#872,.T.);
#510=CARTESIAN_POINT('',(-1.95,6.39,-1.45));
#511=DIRECTION('',(0.0,0.0,-1.0));
#512=DIRECTION('',(-1.0,0.0,0.0));
#513=SURFACE_STYLE_FILL_AREA(#875);
#514=ORIENTED_EDGE('',*,*,#876,.F.);
#515=ORIENTED_EDGE('',*,*,#877,.F.);
#516=ORIENTED_EDGE('',*,*,#878,.F.);
#517=ORIENTED_EDGE('',*,*,#879,.F.);
#518=CARTESIAN_POINT('',(4.63,-1.5,0.0));
#519=DIRECTION('',(1.0,0.0,0.0));
#520=DIRECTION('',(0.0,0.0,-1.0));
#521=SURFACE_STYLE_FILL_AREA(#880);
#522=ORIENTED_EDGE('',*,*,#881,.F.);
#523=ORIENTED_EDGE('',*,*,#882,.T.);
#524=ORIENTED_EDGE('',*,*,#883,.T.);
#525=ORIENTED_EDGE('',*,*,#877,.T.);
#526=CARTESIAN_POINT('',(5.08,-1.5,-0.2));
#527=DIRECTION('',(0.0,0.0,1.0));
#528=DIRECTION('',(1.0,0.0,0.0));
#529=SURFACE_STYLE_FILL_AREA(#884);
#530=ORIENTED_EDGE('',*,*,#885,.F.);
#531=ORIENTED_EDGE('',*,*,#879,.T.);
#532=ORIENTED_EDGE('',*,*,#886,.T.);
#533=ORIENTED_EDGE('',*,*,#887,.T.);
#534=CARTESIAN_POINT('',(5.08,-1.5,0.2));
#535=DIRECTION('',(0.0,0.0,1.0));
#536=DIRECTION('',(1.0,0.0,0.0));
#537=SURFACE_STYLE_FILL_AREA(#888);
#538=ORIENTED_EDGE('',*,*,#878,.T.);
#539=ORIENTED_EDGE('',*,*,#883,.F.);
#540=ORIENTED_EDGE('',*,*,#889,.F.);
#541=ORIENTED_EDGE('',*,*,#886,.F.);
#542=CARTESIAN_POINT('',(5.08,-3.5,0.0));
#543=DIRECTION('',(0.0,1.0,0.0));
#544=DIRECTION('',(0.0,0.0,1.0));
#545=SURFACE_STYLE_FILL_AREA(#890);
#546=ORIENTED_EDGE('',*,*,#891,.F.);
#547=ORIENTED_EDGE('',*,*,#887,.F.);
#548=ORIENTED_EDGE('',*,*,#889,.T.);
#549=ORIENTED_EDGE('',*,*,#882,.F.);
#550=CARTESIAN_POINT('',(5.53,-1.5,0.0));
#551=DIRECTION('',(-1.0,0.0,0.0));
#552=DIRECTION('',(0.0,0.0,1.0));
#553=SURFACE_STYLE_FILL_AREA(#892);
#554=ORIENTED_EDGE('',*,*,#893,.F.);
#555=ORIENTED_EDGE('',*,*,#894,.F.);
#556=ORIENTED_EDGE('',*,*,#895,.F.);
#557=ORIENTED_EDGE('',*,*,#896,.F.);
#558=CARTESIAN_POINT('',(-0.45,-1.5,0.0));
#559=DIRECTION('',(1.0,0.0,0.0));
#560=DIRECTION('',(0.0,0.0,-1.0));
#561=SURFACE_STYLE_FILL_AREA(#897);
#562=ORIENTED_EDGE('',*,*,#898,.F.);
#563=ORIENTED_EDGE('',*,*,#899,.T.);
#564=ORIENTED_EDGE('',*,*,#900,.T.);
#565=ORIENTED_EDGE('',*,*,#894,.T.);
#566=CARTESIAN_POINT('',(0.0,-1.5,-0.2));
#567=DIRECTION('',(0.0,0.0,1.0));
#568=DIRECTION('',(1.0,0.0,0.0));
#569=SURFACE_STYLE_FILL_AREA(#901);
#570=ORIENTED_EDGE('',*,*,#902,.F.);
#571=ORIENTED_EDGE('',*,*,#896,.T.);
#572=ORIENTED_EDGE('',*,*,#903,.T.);
#573=ORIENTED_EDGE('',*,*,#904,.T.);
#574=CARTESIAN_POINT('',(0.0,-1.5,0.2));
#575=DIRECTION('',(0.0,0.0,1.0));
#576=DIRECTION('',(1.0,0.0,0.0));
#577=SURFACE_STYLE_FILL_AREA(#905);
#578=ORIENTED_EDGE('',*,*,#895,.T.);
#579=ORIENTED_EDGE('',*,*,#900,.F.);
#580=ORIENTED_EDGE('',*,*,#906,.F.);
#581=ORIENTED_EDGE('',*,*,#903,.F.);
#582=CARTESIAN_POINT('',(0.0,-3.5,0.0));
#583=DIRECTION('',(0.0,1.0,0.0));
#584=DIRECTION('',(0.0,0.0,1.0));
#585=SURFACE_STYLE_FILL_AREA(#907);
#586=ORIENTED_EDGE('',*,*,#908,.F.);
#587=ORIENTED_EDGE('',*,*,#904,.F.);
#588=ORIENTED_EDGE('',*,*,#906,.T.);
#589=ORIENTED_EDGE('',*,*,#899,.F.);
#590=CARTESIAN_POINT('',(0.45,-1.5,0.0));
#591=DIRECTION('',(-1.0,0.0,0.0));
#592=DIRECTION('',(0.0,0.0,1.0));
#593=SURFACE_STYLE_FILL_AREA(#909);
#594=ORIENTED_EDGE('',*,*,#910,.F.);
#595=ORIENTED_EDGE('',*,*,#911,.F.);
#596=ORIENTED_EDGE('',*,*,#912,.F.);
#597=ORIENTED_EDGE('',*,*,#913,.F.);
#598=CARTESIAN_POINT('',(-5.53,-1.5,0.0));
#599=DIRECTION('',(1.0,0.0,0.0));
#600=DIRECTION('',(0.0,0.0,-1.0));
#601=SURFACE_STYLE_FILL_AREA(#914);
#602=ORIENTED_EDGE('',*,*,#915,.F.);
#603=ORIENTED_EDGE('',*,*,#916,.T.);
#604=ORIENTED_EDGE('',*,*,#917,.T.);
#605=ORIENTED_EDGE('',*,*,#911,.T.);
#606=CARTESIAN_POINT('',(-5.08,-1.5,-0.2));
#607=DIRECTION('',(0.0,0.0,1.0));
#608=DIRECTION('',(1.0,0.0,0.0));
#609=SURFACE_STYLE_FILL_AREA(#918);
#610=ORIENTED_EDGE('',*,*,#919,.F.);
#611=ORIENTED_EDGE('',*,*,#913,.T.);
#612=ORIENTED_EDGE('',*,*,#920,.T.);
#613=ORIENTED_EDGE('',*,*,#921,.T.);
#614=CARTESIAN_POINT('',(-5.08,-1.5,0.2));
#615=DIRECTION('',(0.0,0.0,1.0));
#616=DIRECTION('',(1.0,0.0,0.0));
#617=SURFACE_STYLE_FILL_AREA(#922);
#618=ORIENTED_EDGE('',*,*,#912,.T.);
#619=ORIENTED_EDGE('',*,*,#917,.F.);
#620=ORIENTED_EDGE('',*,*,#923,.F.);
#621=ORIENTED_EDGE('',*,*,#920,.F.);
#622=CARTESIAN_POINT('',(-5.08,-3.5,0.0));
#623=DIRECTION('',(0.0,1.0,0.0));
#624=DIRECTION('',(0.0,0.0,1.0));
#625=SURFACE_STYLE_FILL_AREA(#924);
#626=ORIENTED_EDGE('',*,*,#925,.F.);
#627=ORIENTED_EDGE('',*,*,#921,.F.);
#628=ORIENTED_EDGE('',*,*,#923,.T.);
#629=ORIENTED_EDGE('',*,*,#916,.F.);
#630=CARTESIAN_POINT('',(-4.63,-1.5,0.0));
#631=DIRECTION('',(-1.0,0.0,0.0));
#632=DIRECTION('',(0.0,0.0,1.0));
#633=SURFACE_STYLE_FILL_AREA(#926);
#634=ORIENTED_EDGE('',*,*,#927,.F.);
#635=ORIENTED_EDGE('',*,*,#928,.T.);
#636=ORIENTED_EDGE('',*,*,#929,.F.);
#637=ORIENTED_EDGE('',*,*,#930,.F.);
#638=ORIENTED_EDGE('',*,*,#865,.F.);
#639=ORIENTED_EDGE('',*,*,#931,.F.);
#640=ORIENTED_EDGE('',*,*,#932,.T.);
#641=ORIENTED_EDGE('',*,*,#860,.T.);
#642=ORIENTED_EDGE('',*,*,#933,.F.);
#643=ORIENTED_EDGE('',*,*,#934,.F.);
#644=CARTESIAN_POINT('',(1.61016534803504,11.6173234876206,-1.5));
#645=DIRECTION('',(0.0,0.0,1.0));
#646=DIRECTION('',(1.0,0.0,0.0));
#647=SURFACE_STYLE_FILL_AREA(#935);
#648=ORIENTED_EDGE('',*,*,#936,.F.);
#649=ORIENTED_EDGE('',*,*,#937,.T.);
#650=ORIENTED_EDGE('',*,*,#938,.F.);
#651=ORIENTED_EDGE('',*,*,#928,.F.);
#652=CARTESIAN_POINT('',(-5.34635271991066,6.2728129969701,-1.5));
#653=DIRECTION('',(-0.984298992969671,0.176509185140297,0.0));
#654=DIRECTION('',(-0.176509185140297,-0.984298992969671,-0.0));
#655=SURFACE_STYLE_FILL_AREA(#939);
#656=ORIENTED_EDGE('',*,*,#940,.T.);
#657=ORIENTED_EDGE('',*,*,#941,.F.);
#658=ORIENTED_EDGE('',*,*,#929,.T.);
#659=ORIENTED_EDGE('',*,*,#938,.T.);
#660=CARTESIAN_POINT('',(-0.480022008990767,9.96747563227877,-1.5));
#661=DIRECTION('',(-0.544639035015027,0.838670567945424,0.0));
#662=DIRECTION('',(-0.838670567945424,-0.544639035015027,0.0));
#663=SURFACE_STYLE_FILL_AREA(#942);
#664=ORIENTED_EDGE('',*,*,#862,.T.);
#665=ORIENTED_EDGE('',*,*,#930,.T.);
#666=ORIENTED_EDGE('',*,*,#941,.T.);
#667=ORIENTED_EDGE('',*,*,#943,.T.);
#668=CARTESIAN_POINT('',(6.55,14.1,-1.5));
#669=DIRECTION('',(0.0,0.0,1.0));
#670=DIRECTION('',(1.0,0.0,0.0));
#671=SURFACE_STYLE_FILL_AREA(#944);
#672=ORIENTED_EDGE('',*,*,#945,.T.);
#673=ORIENTED_EDGE('',*,*,#946,.F.);
#674=ORIENTED_EDGE('',*,*,#931,.T.);
#675=ORIENTED_EDGE('',*,*,#864,.T.);
#676=CARTESIAN_POINT('',(8.48585353978777,15.4322743054687,-1.5));
#677=DIRECTION('',(0.544639035015031,-0.838670567945422,0.0));
#678=DIRECTION('',(0.838670567945422,0.544639035015031,0.0));
#679=SURFACE_STYLE_FILL_AREA(#947);
#680=ORIENTED_EDGE('',*,*,#857,.T.);
#681=ORIENTED_EDGE('',*,*,#932,.F.);
#682=ORIENTED_EDGE('',*,*,#946,.T.);
#683=ORIENTED_EDGE('',*,*,#948,.T.);
#684=CARTESIAN_POINT('',(6.55,14.1,-1.5));
#685=DIRECTION('',(0.0,0.0,1.0));
#686=DIRECTION('',(1.0,0.0,0.0));
#687=SURFACE_STYLE_FILL_AREA(#949);
#688=ORIENTED_EDGE('',*,*,#950,.T.);
#689=ORIENTED_EDGE('',*,*,#951,.F.);
#690=ORIENTED_EDGE('',*,*,#933,.T.);
#691=ORIENTED_EDGE('',*,*,#859,.T.);
#692=CARTESIAN_POINT('',(-0.146963518610717,9.82605735705969,-1.5));
#693=DIRECTION('',(0.544639035015027,-0.838670567945424,0.0));
#694=DIRECTION('',(0.838670567945424,0.544639035015027,0.0));
#695=SURFACE_STYLE_FILL_AREA(#952);
#696=ORIENTED_EDGE('',*,*,#953,.F.);
#697=ORIENTED_EDGE('',*,*,#934,.T.);
#698=ORIENTED_EDGE('',*,*,#951,.T.);
#699=ORIENTED_EDGE('',*,*,#954,.T.);
#700=CARTESIAN_POINT('',(-5.06058360677267,6.15613464763477,-1.5));
#701=DIRECTION('',(0.984833262071146,-0.173503446416221,0.0));
#702=DIRECTION('',(0.173503446416221,0.984833262071146,0.0));
#703=SURFACE_STYLE_FILL_AREA(#955);
#704=ORIENTED_EDGE('',*,*,#956,.F.);
#705=ORIENTED_EDGE('',*,*,#954,.F.);
#706=ORIENTED_EDGE('',*,*,#950,.F.);
#707=ORIENTED_EDGE('',*,*,#858,.F.);
#708=ORIENTED_EDGE('',*,*,#948,.F.);
#709=ORIENTED_EDGE('',*,*,#945,.F.);
#710=ORIENTED_EDGE('',*,*,#863,.F.);
#711=ORIENTED_EDGE('',*,*,#943,.F.);
#712=ORIENTED_EDGE('',*,*,#940,.F.);
#713=ORIENTED_EDGE('',*,*,#937,.F.);
#714=CARTESIAN_POINT('',(1.61016534803504,11.6173234876206,1.5));
#715=DIRECTION('',(0.0,0.0,1.0));
#716=DIRECTION('',(1.0,0.0,0.0));
#717=SURFACE_STYLE_FILL_AREA(#957);
#718=ORIENTED_EDGE('',*,*,#958,.F.);
#719=ORIENTED_EDGE('',*,*,#959,.F.);
#720=ORIENTED_EDGE('',*,*,#960,.F.);
#721=ORIENTED_EDGE('',*,*,#961,.F.);
#722=CARTESIAN_POINT('',(-2.5,0.5,0.0));
#723=DIRECTION('',(0.0,1.0,0.0));
#724=DIRECTION('',(0.0,0.0,1.0));
#725=SURFACE_STYLE_FILL_AREA(#962);
#726=ORIENTED_EDGE('',*,*,#852,.T.);
#727=ORIENTED_EDGE('',*,*,#963,.F.);
#728=ORIENTED_EDGE('',*,*,#961,.T.);
#729=ORIENTED_EDGE('',*,*,#964,.F.);
#730=CARTESIAN_POINT('',(-3.25,1.5,0.0));
#731=DIRECTION('',(0.0,0.0,1.0));
#732=DIRECTION('',(1.0,0.0,0.0));
#733=SURFACE_STYLE_FILL_AREA(#965);
#734=ORIENTED_EDGE('',*,*,#966,.F.);
#735=ORIENTED_EDGE('',*,*,#854,.F.);
#736=ORIENTED_EDGE('',*,*,#967,.F.);
#737=ORIENTED_EDGE('',*,*,#849,.F.);
#738=CARTESIAN_POINT('',(-2.5,2.5,0.0));
#739=DIRECTION('',(0.0,-1.0,0.0));
#740=DIRECTION('',(0.0,0.0,-1.0));
#741=SURFACE_STYLE_FILL_AREA(#968);
#742=ORIENTED_EDGE('',*,*,#847,.T.);
#743=ORIENTED_EDGE('',*,*,#969,.F.);
#744=ORIENTED_EDGE('',*,*,#959,.T.);
#745=ORIENTED_EDGE('',*,*,#970,.F.);
#746=CARTESIAN_POINT('',(-3.25,1.5,0.0));
#747=DIRECTION('',(0.0,0.0,1.0));
#748=DIRECTION('',(1.0,0.0,0.0));
#749=SURFACE_STYLE_FILL_AREA(#971);
#750=ORIENTED_EDGE('',*,*,#842,.T.);
#751=ORIENTED_EDGE('',*,*,#972,.F.);
#752=ORIENTED_EDGE('',*,*,#844,.T.);
#753=ORIENTED_EDGE('',*,*,#973,.F.);
#754=CARTESIAN_POINT('',(3.25,1.5,0.0));
#755=DIRECTION('',(0.0,0.0,1.0));
#756=DIRECTION('',(1.0,0.0,0.0));
#757=SURFACE_STYLE_FILL_AREA(#974);
#758=ORIENTED_EDGE('',*,*,#966,.T.);
#759=ORIENTED_EDGE('',*,*,#848,.T.);
#760=ORIENTED_EDGE('',*,*,#970,.T.);
#761=ORIENTED_EDGE('',*,*,#958,.T.);
#762=ORIENTED_EDGE('',*,*,#963,.T.);
#763=ORIENTED_EDGE('',*,*,#855,.T.);
#764=ORIENTED_EDGE('',*,*,#843,.T.);
#765=ORIENTED_EDGE('',*,*,#973,.T.);
#766=ORIENTED_EDGE('',*,*,#975,.T.);
#767=ORIENTED_EDGE('',*,*,#976,.T.);
#768=ORIENTED_EDGE('',*,*,#977,.T.);
#769=ORIENTED_EDGE('',*,*,#978,.T.);
#770=CARTESIAN_POINT('',(0.0,3.25,2.9));
#771=DIRECTION('',(0.0,0.0,1.0));
#772=DIRECTION('',(1.0,0.0,0.0));
#773=SURFACE_STYLE_FILL_AREA(#979);
#774=ORIENTED_EDGE('',*,*,#967,.T.);
#775=ORIENTED_EDGE('',*,*,#853,.T.);
#776=ORIENTED_EDGE('',*,*,#964,.T.);
#777=ORIENTED_EDGE('',*,*,#960,.T.);
#778=ORIENTED_EDGE('',*,*,#969,.T.);
#779=ORIENTED_EDGE('',*,*,#850,.T.);
#780=ORIENTED_EDGE('',*,*,#972,.T.);
#781=ORIENTED_EDGE('',*,*,#845,.T.);
#782=ORIENTED_EDGE('',*,*,#980,.T.);
#783=ORIENTED_EDGE('',*,*,#981,.T.);
#784=ORIENTED_EDGE('',*,*,#982,.T.);
#785=ORIENTED_EDGE('',*,*,#983,.T.);
#786=CARTESIAN_POINT('',(0.0,3.25,-2.9));
#787=DIRECTION('',(0.0,0.0,1.0));
#788=DIRECTION('',(1.0,0.0,0.0));
#789=SURFACE_STYLE_FILL_AREA(#984);
#790=ORIENTED_EDGE('',*,*,#881,.T.);
#791=ORIENTED_EDGE('',*,*,#876,.T.);
#792=ORIENTED_EDGE('',*,*,#885,.T.);
#793=ORIENTED_EDGE('',*,*,#891,.T.);
#794=ORIENTED_EDGE('',*,*,#898,.T.);
#795=ORIENTED_EDGE('',*,*,#893,.T.);
#796=ORIENTED_EDGE('',*,*,#902,.T.);
#797=ORIENTED_EDGE('',*,*,#908,.T.);
#798=ORIENTED_EDGE('',*,*,#915,.T.);
#799=ORIENTED_EDGE('',*,*,#910,.T.);
#800=ORIENTED_EDGE('',*,*,#919,.T.);
#801=ORIENTED_EDGE('',*,*,#925,.T.);
#802=ORIENTED_EDGE('',*,*,#985,.T.);
#803=ORIENTED_EDGE('',*,*,#981,.F.);
#804=ORIENTED_EDGE('',*,*,#986,.F.);
#805=ORIENTED_EDGE('',*,*,#978,.F.);
#806=CARTESIAN_POINT('',(0.0,0.0,0.0));
#807=DIRECTION('',(0.0,1.0,0.0));
#808=DIRECTION('',(0.0,0.0,1.0));
#809=SURFACE_STYLE_FILL_AREA(#987);
#810=ORIENTED_EDGE('',*,*,#988,.T.);
#811=ORIENTED_EDGE('',*,*,#982,.F.);
#812=ORIENTED_EDGE('',*,*,#985,.F.);
#813=ORIENTED_EDGE('',*,*,#977,.F.);
#814=CARTESIAN_POINT('',(-6.4,3.25,0.0));
#815=DIRECTION('',(1.0,0.0,0.0));
#816=DIRECTION('',(0.0,0.0,-1.0));
#817=SURFACE_STYLE_FILL_AREA(#989);
#818=ORIENTED_EDGE('',*,*,#871,.T.);
#819=ORIENTED_EDGE('',*,*,#867,.T.);
#820=ORIENTED_EDGE('',*,*,#870,.T.);
#821=ORIENTED_EDGE('',*,*,#874,.T.);
#822=ORIENTED_EDGE('',*,*,#936,.T.);
#823=ORIENTED_EDGE('',*,*,#927,.T.);
#824=ORIENTED_EDGE('',*,*,#953,.T.);
#825=ORIENTED_EDGE('',*,*,#956,.T.);
#826=ORIENTED_EDGE('',*,*,#990,.T.);
#827=ORIENTED_EDGE('',*,*,#983,.F.);
#828=ORIENTED_EDGE('',*,*,#988,.F.);
#829=ORIENTED_EDGE('',*,*,#976,.F.);
#830=CARTESIAN_POINT('',(0.0,6.5,0.0));
#831=DIRECTION('',(0.0,-1.0,0.0));
#832=DIRECTION('',(0.0,0.0,-1.0));
#833=SURFACE_STYLE_FILL_AREA(#991);
#834=ORIENTED_EDGE('',*,*,#986,.T.);
#835=ORIENTED_EDGE('',*,*,#980,.F.);
#836=ORIENTED_EDGE('',*,*,#990,.F.);
#837=ORIENTED_EDGE('',*,*,#975,.F.);
#838=CARTESIAN_POINT('',(6.4,3.25,0.0));
#839=DIRECTION('',(-1.0,0.0,0.0));
#840=DIRECTION('',(0.0,0.0,1.0));
#841=FILL_AREA_STYLE('',(#992));
#842=EDGE_CURVE('',#993,#994,#995,.T.);
#843=EDGE_CURVE('',#996,#993,#997,.T.);
#844=EDGE_CURVE('',#998,#996,#999,.T.);
#845=EDGE_CURVE('',#994,#998,#1000,.T.);
#846=FILL_AREA_STYLE('',(#1001));
#847=EDGE_CURVE('',#1002,#1003,#1004,.T.);
#848=EDGE_CURVE('',#1005,#1002,#1006,.T.);
#849=EDGE_CURVE('',#1005,#1007,#1008,.T.);
#850=EDGE_CURVE('',#1003,#1007,#1009,.T.);
#851=FILL_AREA_STYLE('',(#1010));
#852=EDGE_CURVE('',#1011,#1012,#1013,.T.);
#853=EDGE_CURVE('',#1014,#1011,#1015,.T.);
#854=EDGE_CURVE('',#1014,#1016,#1017,.T.);
#855=EDGE_CURVE('',#1012,#1016,#1018,.T.);
#856=FILL_AREA_STYLE('',(#1019));
#857=EDGE_CURVE('',#1020,#1021,#1022,.T.);
#858=EDGE_CURVE('',#1020,#1023,#1024,.T.);
#859=EDGE_CURVE('',#1025,#1023,#1026,.T.);
#860=EDGE_CURVE('',#1021,#1025,#1027,.T.);
#861=FILL_AREA_STYLE('',(#1028));
#862=EDGE_CURVE('',#1029,#1030,#1031,.T.);
#863=EDGE_CURVE('',#1029,#1032,#1033,.T.);
#864=EDGE_CURVE('',#1034,#1032,#1035,.T.);
#865=EDGE_CURVE('',#1034,#1030,#1036,.T.);
#866=FILL_AREA_STYLE('',(#1037));
#867=EDGE_CURVE('',#1038,#1039,#1040,.T.);
#868=EDGE_CURVE('',#1038,#1039,#1041,.T.);
#869=FILL_AREA_STYLE('',(#1042));
#870=EDGE_CURVE('',#1039,#1043,#1044,.T.);
#871=EDGE_CURVE('',#1045,#1038,#1046,.T.);
#872=EDGE_CURVE('',#1043,#1045,#1047,.T.);
#873=FILL_AREA_STYLE('',(#1048));
#874=EDGE_CURVE('',#1043,#1045,#1049,.T.);
#875=FILL_AREA_STYLE('',(#1050));
#876=EDGE_CURVE('',#1051,#1052,#1053,.T.);
#877=EDGE_CURVE('',#1054,#1051,#1055,.T.);
#878=EDGE_CURVE('',#1056,#1054,#1057,.T.);
#879=EDGE_CURVE('',#1052,#1056,#1058,.T.);
#880=FILL_AREA_STYLE('',(#1059));
#881=EDGE_CURVE('',#1060,#1051,#1061,.T.);
#882=EDGE_CURVE('',#1060,#1062,#1063,.T.);
#883=EDGE_CURVE('',#1062,#1054,#1064,.T.);
#884=FILL_AREA_STYLE('',(#1065));
#885=EDGE_CURVE('',#1052,#1066,#1067,.T.);
#886=EDGE_CURVE('',#1056,#1068,#1069,.T.);
#887=EDGE_CURVE('',#1068,#1066,#1070,.T.);
#888=FILL_AREA_STYLE('',(#1071));
#889=EDGE_CURVE('',#1068,#1062,#1072,.T.);
#890=FILL_AREA_STYLE('',(#1073));
#891=EDGE_CURVE('',#1066,#1060,#1074,.T.);
#892=FILL_AREA_STYLE('',(#1075));
#893=EDGE_CURVE('',#1076,#1077,#1078,.T.);
#894=EDGE_CURVE('',#1079,#1076,#1080,.T.);
#895=EDGE_CURVE('',#1081,#1079,#1082,.T.);
#896=EDGE_CURVE('',#1077,#1081,#1083,.T.);
#897=FILL_AREA_STYLE('',(#1084));
#898=EDGE_CURVE('',#1085,#1076,#1086,.T.);
#899=EDGE_CURVE('',#1085,#1087,#1088,.T.);
#900=EDGE_CURVE('',#1087,#1079,#1089,.T.);
#901=FILL_AREA_STYLE('',(#1090));
#902=EDGE_CURVE('',#1077,#1091,#1092,.T.);
#903=EDGE_CURVE('',#1081,#1093,#1094,.T.);
#904=EDGE_CURVE('',#1093,#1091,#1095,.T.);
#905=FILL_AREA_STYLE('',(#1096));
#906=EDGE_CURVE('',#1093,#1087,#1097,.T.);
#907=FILL_AREA_STYLE('',(#1098));
#908=EDGE_CURVE('',#1091,#1085,#1099,.T.);
#909=FILL_AREA_STYLE('',(#1100));
#910=EDGE_CURVE('',#1101,#1102,#1103,.T.);
#911=EDGE_CURVE('',#1104,#1101,#1105,.T.);
#912=EDGE_CURVE('',#1106,#1104,#1107,.T.);
#913=EDGE_CURVE('',#1102,#1106,#1108,.T.);
#914=FILL_AREA_STYLE('',(#1109));
#915=EDGE_CURVE('',#1110,#1101,#1111,.T.);
#916=EDGE_CURVE('',#1110,#1112,#1113,.T.);
#917=EDGE_CURVE('',#1112,#1104,#1114,.T.);
#918=FILL_AREA_STYLE('',(#1115));
#919=EDGE_CURVE('',#1102,#1116,#1117,.T.);
#920=EDGE_CURVE('',#1106,#1118,#1119,.T.);
#921=EDGE_CURVE('',#1118,#1116,#1120,.T.);
#922=FILL_AREA_STYLE('',(#1121));
#923=EDGE_CURVE('',#1118,#1112,#1122,.T.);
#924=FILL_AREA_STYLE('',(#1123));
#925=EDGE_CURVE('',#1116,#1110,#1124,.T.);
#926=FILL_AREA_STYLE('',(#1125));
#927=EDGE_CURVE('',#1126,#1127,#1128,.T.);
#928=EDGE_CURVE('',#1126,#1129,#1130,.T.);
#929=EDGE_CURVE('',#1131,#1129,#1132,.T.);
#930=EDGE_CURVE('',#1030,#1131,#1133,.T.);
#931=EDGE_CURVE('',#1134,#1034,#1135,.T.);
#932=EDGE_CURVE('',#1134,#1021,#1136,.T.);
#933=EDGE_CURVE('',#1137,#1025,#1138,.T.);
#934=EDGE_CURVE('',#1127,#1137,#1139,.T.);
#935=FILL_AREA_STYLE('',(#1140));
#936=EDGE_CURVE('',#1141,#1126,#1142,.T.);
#937=EDGE_CURVE('',#1141,#1143,#1144,.T.);
#938=EDGE_CURVE('',#1129,#1143,#1145,.T.);
#939=FILL_AREA_STYLE('',(#1146));
#940=EDGE_CURVE('',#1143,#1147,#1148,.T.);
#941=EDGE_CURVE('',#1131,#1147,#1149,.T.);
#942=FILL_AREA_STYLE('',(#1150));
#943=EDGE_CURVE('',#1147,#1029,#1151,.T.);
#944=FILL_AREA_STYLE('',(#1152));
#945=EDGE_CURVE('',#1032,#1153,#1154,.T.);
#946=EDGE_CURVE('',#1134,#1153,#1155,.T.);
#947=FILL_AREA_STYLE('',(#1156));
#948=EDGE_CURVE('',#1153,#1020,#1157,.T.);
#949=FILL_AREA_STYLE('',(#1158));
#950=EDGE_CURVE('',#1023,#1159,#1160,.T.);
#951=EDGE_CURVE('',#1137,#1159,#1161,.T.);
#952=FILL_AREA_STYLE('',(#1162));
#953=EDGE_CURVE('',#1127,#1163,#1164,.T.);
#954=EDGE_CURVE('',#1159,#1163,#1165,.T.);
#955=FILL_AREA_STYLE('',(#1166));
#956=EDGE_CURVE('',#1163,#1141,#1167,.T.);
#957=FILL_AREA_STYLE('',(#1168));
#958=EDGE_CURVE('',#1169,#1170,#1171,.T.);
#959=EDGE_CURVE('',#1172,#1169,#1173,.T.);
#960=EDGE_CURVE('',#1174,#1172,#1175,.T.);
#961=EDGE_CURVE('',#1170,#1174,#1176,.T.);
#962=FILL_AREA_STYLE('',(#1177));
#963=EDGE_CURVE('',#1170,#1012,#1178,.T.);
#964=EDGE_CURVE('',#1011,#1174,#1179,.T.);
#965=FILL_AREA_STYLE('',(#1180));
#966=EDGE_CURVE('',#1016,#1005,#1181,.T.);
#967=EDGE_CURVE('',#1007,#1014,#1182,.T.);
#968=FILL_AREA_STYLE('',(#1183));
#969=EDGE_CURVE('',#1172,#1003,#1184,.T.);
#970=EDGE_CURVE('',#1002,#1169,#1185,.T.);
#971=FILL_AREA_STYLE('',(#1186));
#972=EDGE_CURVE('',#998,#994,#1187,.T.);
#973=EDGE_CURVE('',#993,#996,#1188,.T.);
#974=FILL_AREA_STYLE('',(#1189));
#975=EDGE_CURVE('',#1190,#1191,#1192,.T.);
#976=EDGE_CURVE('',#1191,#1193,#1194,.T.);
#977=EDGE_CURVE('',#1193,#1195,#1196,.T.);
#978=EDGE_CURVE('',#1195,#1190,#1197,.T.);
#979=FILL_AREA_STYLE('',(#1198));
#980=EDGE_CURVE('',#1199,#1200,#1201,.T.);
#981=EDGE_CURVE('',#1200,#1202,#1203,.T.);
#982=EDGE_CURVE('',#1202,#1204,#1205,.T.);
#983=EDGE_CURVE('',#1204,#1199,#1206,.T.);
#984=FILL_AREA_STYLE('',(#1207));
#985=EDGE_CURVE('',#1195,#1202,#1208,.T.);
#986=EDGE_CURVE('',#1190,#1200,#1209,.T.);
#987=FILL_AREA_STYLE('',(#1210));
#988=EDGE_CURVE('',#1193,#1204,#1211,.T.);
#989=FILL_AREA_STYLE('',(#1212));
#990=EDGE_CURVE('',#1191,#1199,#1213,.T.);
#991=FILL_AREA_STYLE('',(#1214));
#992=FILL_AREA_STYLE_COLOUR('',#1215);
#993=VERTEX_POINT('',#1216);
#994=VERTEX_POINT('',#1217);
#995=LINE('',#1218,#1219);
#996=VERTEX_POINT('',#1220);
#997=CIRCLE('',#1221,1.0);
#998=VERTEX_POINT('',#1222);
#999=LINE('',#1223,#1224);
#1000=CIRCLE('',#1225,1.0);
#1001=FILL_AREA_STYLE_COLOUR('',#1226);
#1002=VERTEX_POINT('',#1227);
#1003=VERTEX_POINT('',#1228);
#1004=LINE('',#1229,#1230);
#1005=VERTEX_POINT('',#1231);
#1006=CIRCLE('',#1232,1.1);
#1007=VERTEX_POINT('',#1233);
#1008=LINE('',#1234,#1235);
#1009=CIRCLE('',#1236,1.1);
#1010=FILL_AREA_STYLE_COLOUR('',#1237);
#1011=VERTEX_POINT('',#1238);
#1012=VERTEX_POINT('',#1239);
#1013=LINE('',#1240,#1241);
#1014=VERTEX_POINT('',#1242);
#1015=CIRCLE('',#1243,1.1);
#1016=VERTEX_POINT('',#1244);
#1017=LINE('',#1245,#1246);
#1018=CIRCLE('',#1247,1.1);
#1019=FILL_AREA_STYLE_COLOUR('',#1248);
#1020=VERTEX_POINT('',#1249);
#1021=VERTEX_POINT('',#1250);
#1022=LINE('',#1251,#1252);
#1023=VERTEX_POINT('',#1253);
#1024=CIRCLE('',#1254,2.2);
#1025=VERTEX_POINT('',#1255);
#1026=LINE('',#1256,#1257);
#1027=CIRCLE('',#1258,2.2);
#1028=FILL_AREA_STYLE_COLOUR('',#1259);
#1029=VERTEX_POINT('',#1260);
#1030=VERTEX_POINT('',#1261);
#1031=LINE('',#1262,#1263);
#1032=VERTEX_POINT('',#1264);
#1033=CIRCLE('',#1265,2.5);
#1034=VERTEX_POINT('',#1266);
#1035=LINE('',#1267,#1268);
#1036=CIRCLE('',#1269,2.5);
#1037=FILL_AREA_STYLE_COLOUR('',#1270);
#1038=VERTEX_POINT('',#1271);
#1039=VERTEX_POINT('',#1272);
#1040=LINE('',#1273,#1274);
#1041=CIRCLE('',#1275,0.61);
#1042=FILL_AREA_STYLE_COLOUR('',#1276);
#1043=VERTEX_POINT('',#1277);
#1044=LINE('',#1278,#1279);
#1045=VERTEX_POINT('',#1280);
#1046=LINE('',#1281,#1282);
#1047=CIRCLE('',#1283,0.61);
#1048=FILL_AREA_STYLE_COLOUR('',#1284);
#1049=LINE('',#1285,#1286);
#1050=FILL_AREA_STYLE_COLOUR('',#1287);
#1051=VERTEX_POINT('',#1288);
#1052=VERTEX_POINT('',#1289);
#1053=LINE('',#1290,#1291);
#1054=VERTEX_POINT('',#1292);
#1055=LINE('',#1293,#1294);
#1056=VERTEX_POINT('',#1295);
#1057=LINE('',#1296,#1297);
#1058=LINE('',#1298,#1299);
#1059=FILL_AREA_STYLE_COLOUR('',#1300);
#1060=VERTEX_POINT('',#1301);
#1061=LINE('',#1302,#1303);
#1062=VERTEX_POINT('',#1304);
#1063=LINE('',#1305,#1306);
#1064=LINE('',#1307,#1308);
#1065=FILL_AREA_STYLE_COLOUR('',#1309);
#1066=VERTEX_POINT('',#1310);
#1067=LINE('',#1311,#1312);
#1068=VERTEX_POINT('',#1313);
#1069=LINE('',#1314,#1315);
#1070=LINE('',#1316,#1317);
#1071=FILL_AREA_STYLE_COLOUR('',#1318);
#1072=LINE('',#1319,#1320);
#1073=FILL_AREA_STYLE_COLOUR('',#1321);
#1074=LINE('',#1322,#1323);
#1075=FILL_AREA_STYLE_COLOUR('',#1324);
#1076=VERTEX_POINT('',#1325);
#1077=VERTEX_POINT('',#1326);
#1078=LINE('',#1327,#1328);
#1079=VERTEX_POINT('',#1329);
#1080=LINE('',#1330,#1331);
#1081=VERTEX_POINT('',#1332);
#1082=LINE('',#1333,#1334);
#1083=LINE('',#1335,#1336);
#1084=FILL_AREA_STYLE_COLOUR('',#1337);
#1085=VERTEX_POINT('',#1338);
#1086=LINE('',#1339,#1340);
#1087=VERTEX_POINT('',#1341);
#1088=LINE('',#1342,#1343);
#1089=LINE('',#1344,#1345);
#1090=FILL_AREA_STYLE_COLOUR('',#1346);
#1091=VERTEX_POINT('',#1347);
#1092=LINE('',#1348,#1349);
#1093=VERTEX_POINT('',#1350);
#1094=LINE('',#1351,#1352);
#1095=LINE('',#1353,#1354);
#1096=FILL_AREA_STYLE_COLOUR('',#1355);
#1097=LINE('',#1356,#1357);
#1098=FILL_AREA_STYLE_COLOUR('',#1358);
#1099=LINE('',#1359,#1360);
#1100=FILL_AREA_STYLE_COLOUR('',#1361);
#1101=VERTEX_POINT('',#1362);
#1102=VERTEX_POINT('',#1363);
#1103=LINE('',#1364,#1365);
#1104=VERTEX_POINT('',#1366);
#1105=LINE('',#1367,#1368);
#1106=VERTEX_POINT('',#1369);
#1107=LINE('',#1370,#1371);
#1108=LINE('',#1372,#1373);
#1109=FILL_AREA_STYLE_COLOUR('',#1374);
#1110=VERTEX_POINT('',#1375);
#1111=LINE('',#1376,#1377);
#1112=VERTEX_POINT('',#1378);
#1113=LINE('',#1379,#1380);
#1114=LINE('',#1381,#1382);
#1115=FILL_AREA_STYLE_COLOUR('',#1383);
#1116=VERTEX_POINT('',#1384);
#1117=LINE('',#1385,#1386);
#1118=VERTEX_POINT('',#1387);
#1119=LINE('',#1388,#1389);
#1120=LINE('',#1390,#1391);
#1121=FILL_AREA_STYLE_COLOUR('',#1392);
#1122=LINE('',#1393,#1394);
#1123=FILL_AREA_STYLE_COLOUR('',#1395);
#1124=LINE('',#1396,#1397);
#1125=FILL_AREA_STYLE_COLOUR('',#1398);
#1126=VERTEX_POINT('',#1399);
#1127=VERTEX_POINT('',#1400);
#1128=LINE('',#1401,#1402);
#1129=VERTEX_POINT('',#1403);
#1130=LINE('',#1404,#1405);
#1131=VERTEX_POINT('',#1406);
#1132=LINE('',#1407,#1408);
#1133=CIRCLE('',#1409,2.5);
#1134=VERTEX_POINT('',#1410);
#1135=LINE('',#1411,#1412);
#1136=CIRCLE('',#1413,2.2);
#1137=VERTEX_POINT('',#1414);
#1138=LINE('',#1415,#1416);
#1139=LINE('',#1417,#1418);
#1140=FILL_AREA_STYLE_COLOUR('',#1419);
#1141=VERTEX_POINT('',#1420);
#1142=LINE('',#1421,#1422);
#1143=VERTEX_POINT('',#1423);
#1144=LINE('',#1424,#1425);
#1145=LINE('',#1426,#1427);
#1146=FILL_AREA_STYLE_COLOUR('',#1428);
#1147=VERTEX_POINT('',#1429);
#1148=LINE('',#1430,#1431);
#1149=LINE('',#1432,#1433);
#1150=FILL_AREA_STYLE_COLOUR('',#1434);
#1151=CIRCLE('',#1435,2.5);
#1152=FILL_AREA_STYLE_COLOUR('',#1436);
#1153=VERTEX_POINT('',#1437);
#1154=LINE('',#1438,#1439);
#1155=LINE('',#1440,#1441);
#1156=FILL_AREA_STYLE_COLOUR('',#1442);
#1157=CIRCLE('',#1443,2.2);
#1158=FILL_AREA_STYLE_COLOUR('',#1444);
#1159=VERTEX_POINT('',#1445);
#1160=LINE('',#1446,#1447);
#1161=LINE('',#1448,#1449);
#1162=FILL_AREA_STYLE_COLOUR('',#1450);
#1163=VERTEX_POINT('',#1451);
#1164=LINE('',#1452,#1453);
#1165=LINE('',#1454,#1455);
#1166=FILL_AREA_STYLE_COLOUR('',#1456);
#1167=LINE('',#1457,#1458);
#1168=FILL_AREA_STYLE_COLOUR('',#1459);
#1169=VERTEX_POINT('',#1460);
#1170=VERTEX_POINT('',#1461);
#1171=LINE('',#1462,#1463);
#1172=VERTEX_POINT('',#1464);
#1173=LINE('',#1465,#1466);
#1174=VERTEX_POINT('',#1467);
#1175=LINE('',#1468,#1469);
#1176=LINE('',#1470,#1471);
#1177=FILL_AREA_STYLE_COLOUR('',#1472);
#1178=CIRCLE('',#1473,1.1);
#1179=CIRCLE('',#1474,1.1);
#1180=FILL_AREA_STYLE_COLOUR('',#1475);
#1181=LINE('',#1476,#1477);
#1182=LINE('',#1478,#1479);
#1183=FILL_AREA_STYLE_COLOUR('',#1480);
#1184=CIRCLE('',#1481,1.1);
#1185=CIRCLE('',#1482,1.1);
#1186=FILL_AREA_STYLE_COLOUR('',#1483);
#1187=CIRCLE('',#1484,1.0);
#1188=CIRCLE('',#1485,1.0);
#1189=FILL_AREA_STYLE_COLOUR('',#1486);
#1190=VERTEX_POINT('',#1487);
#1191=VERTEX_POINT('',#1488);
#1192=LINE('',#1489,#1490);
#1193=VERTEX_POINT('',#1491);
#1194=LINE('',#1492,#1493);
#1195=VERTEX_POINT('',#1494);
#1196=LINE('',#1495,#1496);
#1197=LINE('',#1497,#1498);
#1198=FILL_AREA_STYLE_COLOUR('',#1499);
#1199=VERTEX_POINT('',#1500);
#1200=VERTEX_POINT('',#1501);
#1201=LINE('',#1502,#1503);
#1202=VERTEX_POINT('',#1504);
#1203=LINE('',#1505,#1506);
#1204=VERTEX_POINT('',#1507);
#1205=LINE('',#1508,#1509);
#1206=LINE('',#1510,#1511);
#1207=FILL_AREA_STYLE_COLOUR('',#1512);
#1208=LINE('',#1513,#1514);
#1209=LINE('',#1515,#1516);
#1210=FILL_AREA_STYLE_COLOUR('',#1517);
#1211=LINE('',#1518,#1519);
#1212=FILL_AREA_STYLE_COLOUR('',#1520);
#1213=LINE('',#1521,#1522);
#1214=FILL_AREA_STYLE_COLOUR('',#1523);
#1215=COLOUR_RGB('',0.121568627655506,0.121568627655506,0.121568627655506);
#1216=CARTESIAN_POINT('',(4.25,1.5,2.9));
#1217=CARTESIAN_POINT('',(4.25,1.5,-2.9));
#1218=CARTESIAN_POINT('',(4.25,1.5,0.0));
#1219=VECTOR('',#1524,1.0);
#1220=CARTESIAN_POINT('',(2.25,1.5,2.9));
#1221=AXIS2_PLACEMENT_3D('',#1525,#1526,#1527);
#1222=CARTESIAN_POINT('',(2.25,1.5,-2.9));
#1223=CARTESIAN_POINT('',(2.25,1.5,0.0));
#1224=VECTOR('',#1528,1.0);
#1225=AXIS2_PLACEMENT_3D('',#1529,#1530,#1531);
#1226=COLOUR_RGB('',0.121568627655506,0.121568627655506,0.121568627655506);
#1227=CARTESIAN_POINT('',(-2.15,1.5,2.9));
#1228=CARTESIAN_POINT('',(-2.15,1.5,-2.9));
#1229=CARTESIAN_POINT('',(-2.15,1.5,0.0));
#1230=VECTOR('',#1532,1.0);
#1231=CARTESIAN_POINT('',(-2.79174243050442,2.5,2.9));
#1232=AXIS2_PLACEMENT_3D('',#1533,#1534,#1535);
#1233=CARTESIAN_POINT('',(-2.79174243050442,2.5,-2.9));
#1234=CARTESIAN_POINT('',(-2.79174243050442,2.5,0.0));
#1235=VECTOR('',#1536,1.0);
#1236=AXIS2_PLACEMENT_3D('',#1537,#1538,#1539);
#1237=COLOUR_RGB('',0.121568627655506,0.121568627655506,0.121568627655506);
#1238=CARTESIAN_POINT('',(-4.35,1.5,-2.9));
#1239=CARTESIAN_POINT('',(-4.35,1.5,2.9));
#1240=CARTESIAN_POINT('',(-4.35,1.5,0.0));
#1241=VECTOR('',#1540,1.0);
#1242=CARTESIAN_POINT('',(-3.70825756949558,2.5,-2.9));
#1243=AXIS2_PLACEMENT_3D('',#1541,#1542,#1543);
#1244=CARTESIAN_POINT('',(-3.70825756949558,2.5,2.9));
#1245=CARTESIAN_POINT('',(-3.70825756949558,2.5,0.0));
#1246=VECTOR('',#1544,1.0);
#1247=AXIS2_PLACEMENT_3D('',#1545,#1546,#1547);
#1248=COLOUR_RGB('',0.811764717102051,0.811764717102051,0.811764717102051);
#1249=CARTESIAN_POINT('',(4.35,14.1,1.5));
#1250=CARTESIAN_POINT('',(4.35,14.1,-1.5));
#1251=CARTESIAN_POINT('',(4.35,14.1,-1.5));
#1252=VECTOR('',#1548,1.0);
#1253=CARTESIAN_POINT('',(4.6713702875824,12.9551199173618,1.5));
#1254=AXIS2_PLACEMENT_3D('',#1549,#1550,#1551);
#1255=CARTESIAN_POINT('',(4.6713702875824,12.9551199173618,-1.5));
#1256=CARTESIAN_POINT('',(4.6713702875824,12.9551199173618,-1.5));
#1257=VECTOR('',#1552,1.0);
#1258=AXIS2_PLACEMENT_3D('',#1553,#1554,#1555);
#1259=COLOUR_RGB('',0.811764717102051,0.811764717102051,0.811764717102051);
#1260=CARTESIAN_POINT('',(4.05,14.1,1.5));
#1261=CARTESIAN_POINT('',(4.05,14.1,-1.5));
#1262=CARTESIAN_POINT('',(4.05,14.1,-1.5));
#1263=VECTOR('',#1556,1.0);
#1264=CARTESIAN_POINT('',(8.6116995377247,15.5139996521024,1.5));
#1265=AXIS2_PLACEMENT_3D('',#1557,#1558,#1559);
#1266=CARTESIAN_POINT('',(8.6116995377247,15.5139996521024,-1.5));
#1267=CARTESIAN_POINT('',(8.6116995377247,15.5139996521024,-1.5));
#1268=VECTOR('',#1560,1.0);
#1269=AXIS2_PLACEMENT_3D('',#1561,#1562,#1563);
#1270=COLOUR_RGB('',0.811764717102051,0.811764717102051,0.811764717102051);
#1271=CARTESIAN_POINT('',(-1.35,6.5,1.45));
#1272=CARTESIAN_POINT('',(-2.55,6.5,1.45));
#1273=CARTESIAN_POINT('',(-0.975,6.5,1.45));
#1274=VECTOR('',#1564,1.0);
#1275=AXIS2_PLACEMENT_3D('',#1565,#1566,#1567);
#1276=COLOUR_RGB('',0.811764717102051,0.811764717102051,0.811764717102051);
#1277=CARTESIAN_POINT('',(-2.55,6.5,-1.45));
#1278=CARTESIAN_POINT('',(-2.55,6.5,0.0));
#1279=VECTOR('',#1568,1.0);
#1280=CARTESIAN_POINT('',(-1.35,6.5,-1.45));
#1281=CARTESIAN_POINT('',(-1.35,6.5,0.0));
#1282=VECTOR('',#1569,1.0);
#1283=AXIS2_PLACEMENT_3D('',#1570,#1571,#1572);
#1284=COLOUR_RGB('',0.811764717102051,0.811764717102051,0.811764717102051);
#1285=CARTESIAN_POINT('',(-0.975,6.5,-1.45));
#1286=VECTOR('',#1573,1.0);
#1287=COLOUR_RGB('',0.811764717102051,0.811764717102051,0.811764717102051);
#1288=CARTESIAN_POINT('',(4.63,0.0,-0.2));
#1289=CARTESIAN_POINT('',(4.63,0.0,0.2));
#1290=CARTESIAN_POINT('',(4.63,0.0,0.0));
#1291=VECTOR('',#1574,1.0);
#1292=CARTESIAN_POINT('',(4.63,-3.5,-0.2));
#1293=CARTESIAN_POINT('',(4.63,-1.5,-0.2));
#1294=VECTOR('',#1575,1.0);
#1295=CARTESIAN_POINT('',(4.63,-3.5,0.2));
#1296=CARTESIAN_POINT('',(4.63,-3.5,0.0));
#1297=VECTOR('',#1576,1.0);
#1298=CARTESIAN_POINT('',(4.63,-1.5,0.2));
#1299=VECTOR('',#1577,1.0);
#1300=COLOUR_RGB('',0.811764717102051,0.811764717102051,0.811764717102051);
#1301=CARTESIAN_POINT('',(5.53,0.0,-0.2));
#1302=CARTESIAN_POINT('',(2.54,0.0,-0.2));
#1303=VECTOR('',#1578,1.0);
#1304=CARTESIAN_POINT('',(5.53,-3.5,-0.2));
#1305=CARTESIAN_POINT('',(5.53,-1.5,-0.2));
#1306=VECTOR('',#1579,1.0);
#1307=CARTESIAN_POINT('',(5.08,-3.5,-0.2));
#1308=VECTOR('',#1580,1.0);
#1309=COLOUR_RGB('',0.811764717102051,0.811764717102051,0.811764717102051);
#1310=CARTESIAN_POINT('',(5.53,0.0,0.2));
#1311=CARTESIAN_POINT('',(2.54,0.0,0.2));
#1312=VECTOR('',#1581,1.0);
#1313=CARTESIAN_POINT('',(5.53,-3.5,0.2));
#1314=CARTESIAN_POINT('',(5.08,-3.5,0.2));
#1315=VECTOR('',#1582,1.0);
#1316=CARTESIAN_POINT('',(5.53,-1.5,0.2));
#1317=VECTOR('',#1583,1.0);
#1318=COLOUR_RGB('',0.811764717102051,0.811764717102051,0.811764717102051);
#1319=CARTESIAN_POINT('',(5.53,-3.5,0.0));
#1320=VECTOR('',#1584,1.0);
#1321=COLOUR_RGB('',0.811764717102051,0.811764717102051,0.811764717102051);
#1322=CARTESIAN_POINT('',(5.53,0.0,0.0));
#1323=VECTOR('',#1585,1.0);
#1324=COLOUR_RGB('',0.811764717102051,0.811764717102051,0.811764717102051);
#1325=CARTESIAN_POINT('',(-0.45,0.0,-0.2));
#1326=CARTESIAN_POINT('',(-0.45,0.0,0.2));
#1327=CARTESIAN_POINT('',(-0.45,0.0,0.0));
#1328=VECTOR('',#1586,1.0);
#1329=CARTESIAN_POINT('',(-0.45,-3.5,-0.2));
#1330=CARTESIAN_POINT('',(-0.45,-1.5,-0.2));
#1331=VECTOR('',#1587,1.0);
#1332=CARTESIAN_POINT('',(-0.45,-3.5,0.2));
#1333=CARTESIAN_POINT('',(-0.45,-3.5,0.0));
#1334=VECTOR('',#1588,1.0);
#1335=CARTESIAN_POINT('',(-0.45,-1.5,0.2));
#1336=VECTOR('',#1589,1.0);
#1337=COLOUR_RGB('',0.811764717102051,0.811764717102051,0.811764717102051);
#1338=CARTESIAN_POINT('',(0.45,0.0,-0.2));
#1339=CARTESIAN_POINT('',(0.0,0.0,-0.2));
#1340=VECTOR('',#1590,1.0);
#1341=CARTESIAN_POINT('',(0.45,-3.5,-0.2));
#1342=CARTESIAN_POINT('',(0.45,-1.5,-0.2));
#1343=VECTOR('',#1591,1.0);
#1344=CARTESIAN_POINT('',(0.0,-3.5,-0.2));
#1345=VECTOR('',#1592,1.0);
#1346=COLOUR_RGB('',0.811764717102051,0.811764717102051,0.811764717102051);
#1347=CARTESIAN_POINT('',(0.45,0.0,0.2));
#1348=CARTESIAN_POINT('',(0.0,0.0,0.2));
#1349=VECTOR('',#1593,1.0);
#1350=CARTESIAN_POINT('',(0.45,-3.5,0.2));
#1351=CARTESIAN_POINT('',(0.0,-3.5,0.2));
#1352=VECTOR('',#1594,1.0);
#1353=CARTESIAN_POINT('',(0.45,-1.5,0.2));
#1354=VECTOR('',#1595,1.0);
#1355=COLOUR_RGB('',0.811764717102051,0.811764717102051,0.811764717102051);
#1356=CARTESIAN_POINT('',(0.45,-3.5,0.0));
#1357=VECTOR('',#1596,1.0);
#1358=COLOUR_RGB('',0.811764717102051,0.811764717102051,0.811764717102051);
#1359=CARTESIAN_POINT('',(0.45,0.0,0.0));
#1360=VECTOR('',#1597,1.0);
#1361=COLOUR_RGB('',0.811764717102051,0.811764717102051,0.811764717102051);
#1362=CARTESIAN_POINT('',(-5.53,0.0,-0.2));
#1363=CARTESIAN_POINT('',(-5.53,0.0,0.2));
#1364=CARTESIAN_POINT('',(-5.53,0.0,0.0));
#1365=VECTOR('',#1598,1.0);
#1366=CARTESIAN_POINT('',(-5.53,-3.5,-0.2));
#1367=CARTESIAN_POINT('',(-5.53,-1.5,-0.2));
#1368=VECTOR('',#1599,1.0);
#1369=CARTESIAN_POINT('',(-5.53,-3.5,0.2));
#1370=CARTESIAN_POINT('',(-5.53,-3.5,0.0));
#1371=VECTOR('',#1600,1.0);
#1372=CARTESIAN_POINT('',(-5.53,-1.5,0.2));
#1373=VECTOR('',#1601,1.0);
#1374=COLOUR_RGB('',0.811764717102051,0.811764717102051,0.811764717102051);
#1375=CARTESIAN_POINT('',(-4.63,0.0,-0.2));
#1376=CARTESIAN_POINT('',(-2.54,0.0,-0.2));
#1377=VECTOR('',#1602,1.0);
#1378=CARTESIAN_POINT('',(-4.63,-3.5,-0.2));
#1379=CARTESIAN_POINT('',(-4.63,-1.5,-0.2));
#1380=VECTOR('',#1603,1.0);
#1381=CARTESIAN_POINT('',(-5.08,-3.5,-0.2));
#1382=VECTOR('',#1604,1.0);
#1383=COLOUR_RGB('',0.811764717102051,0.811764717102051,0.811764717102051);
#1384=CARTESIAN_POINT('',(-4.63,0.0,0.2));
#1385=CARTESIAN_POINT('',(-2.54,0.0,0.2));
#1386=VECTOR('',#1605,1.0);
#1387=CARTESIAN_POINT('',(-4.63,-3.5,0.2));
#1388=CARTESIAN_POINT('',(-5.08,-3.5,0.2));
#1389=VECTOR('',#1606,1.0);
#1390=CARTESIAN_POINT('',(-4.63,-1.5,0.2));
#1391=VECTOR('',#1607,1.0);
#1392=COLOUR_RGB('',0.811764717102051,0.811764717102051,0.811764717102051);
#1393=CARTESIAN_POINT('',(-4.63,-3.5,0.0));
#1394=VECTOR('',#1608,1.0);
#1395=COLOUR_RGB('',0.811764717102051,0.811764717102051,0.811764717102051);
#1396=CARTESIAN_POINT('',(-4.63,0.0,0.0));
#1397=VECTOR('',#1609,1.0);
#1398=COLOUR_RGB('',0.811764717102051,0.811764717102051,0.811764717102051);
#1399=CARTESIAN_POINT('',(-5.3056124640883,6.5,-1.5));
#1400=CARTESIAN_POINT('',(-5.00000297242953,6.5,-1.5));
#1401=CARTESIAN_POINT('',(0.805082674017518,6.5,-1.5));
#1402=VECTOR('',#1610,1.0);
#1403=CARTESIAN_POINT('',(-5.2378844330799,6.87768364668617,-1.5));
#1404=CARTESIAN_POINT('',(-5.45482100674143,5.66794234725403,-1.5));
#1405=VECTOR('',#1611,1.0);
#1406=CARTESIAN_POINT('',(4.27784041509836,13.0572676178714,-1.5));
#1407=CARTESIAN_POINT('',(4.27784041509836,13.0572676178714,-1.5));
#1408=VECTOR('',#1612,1.0);
#1409=AXIS2_PLACEMENT_3D('',#1613,#1614,#1615);
#1410=CARTESIAN_POINT('',(8.36000754185084,15.3505489588349,-1.5));
#1411=CARTESIAN_POINT('',(8.36000754185084,15.3505489588349,-1.5));
#1412=VECTOR('',#1616,1.0);
#1413=AXIS2_PLACEMENT_3D('',#1617,#1618,#1619);
#1414=CARTESIAN_POINT('',(-4.96529732480383,6.69699479675762,-1.5));
#1415=CARTESIAN_POINT('',(-4.96529732480383,6.69699479675762,-1.5));
#1416=VECTOR('',#1620,1.0);
#1417=CARTESIAN_POINT('',(-5.15586988874151,5.61527449851191,-1.5));
#1418=VECTOR('',#1621,1.0);
#1419=COLOUR_RGB('',0.811764717102051,0.811764717102051,0.811764717102051);
#1420=CARTESIAN_POINT('',(-5.3056124640883,6.5,1.5));
#1421=CARTESIAN_POINT('',(-5.3056124640883,6.5,-0.75));
#1422=VECTOR('',#1622,1.0);
#1423=CARTESIAN_POINT('',(-5.2378844330799,6.87768364668617,1.5));
#1424=CARTESIAN_POINT('',(-5.45482100674143,5.66794234725403,1.5));
#1425=VECTOR('',#1623,1.0);
#1426=CARTESIAN_POINT('',(-5.2378844330799,6.87768364668617,-1.5));
#1427=VECTOR('',#1624,1.0);
#1428=COLOUR_RGB('',0.811764717102051,0.811764717102051,0.811764717102051);
#1429=CARTESIAN_POINT('',(4.27784041509836,13.0572676178714,1.5));
#1430=CARTESIAN_POINT('',(4.27784041509836,13.0572676178714,1.5));
#1431=VECTOR('',#1625,1.0);
#1432=CARTESIAN_POINT('',(4.27784041509836,13.0572676178714,-1.5));
#1433=VECTOR('',#1626,1.0);
#1434=COLOUR_RGB('',0.811764717102051,0.811764717102051,0.811764717102051);
#1435=AXIS2_PLACEMENT_3D('',#1627,#1628,#1629);
#1436=COLOUR_RGB('',0.811764717102051,0.811764717102051,0.811764717102051);
#1437=CARTESIAN_POINT('',(8.36000754185084,15.3505489588349,1.5));
#1438=CARTESIAN_POINT('',(8.36000754185084,15.3505489588349,1.5));
#1439=VECTOR('',#1630,0.999999999999999);
#1440=CARTESIAN_POINT('',(8.36000754185084,15.3505489588349,-1.5));
#1441=VECTOR('',#1631,1.0);
#1442=COLOUR_RGB('',0.811764717102051,0.811764717102051,0.811764717102051);
#1443=AXIS2_PLACEMENT_3D('',#1632,#1633,#1634);
#1444=COLOUR_RGB('',0.811764717102051,0.811764717102051,0.811764717102051);
#1445=CARTESIAN_POINT('',(-4.96529732480383,6.69699479675762,1.5));
#1446=CARTESIAN_POINT('',(-4.96529732480383,6.69699479675762,1.5));
#1447=VECTOR('',#1635,1.0);
#1448=CARTESIAN_POINT('',(-4.96529732480383,6.69699479675762,-1.5));
#1449=VECTOR('',#1636,1.0);
#1450=COLOUR_RGB('',0.811764717102051,0.811764717102051,0.811764717102051);
#1451=CARTESIAN_POINT('',(-5.00000297242953,6.5,1.5));
#1452=CARTESIAN_POINT('',(-5.00000297242953,6.5,-0.75));
#1453=VECTOR('',#1637,1.0);
#1454=CARTESIAN_POINT('',(-5.15586988874151,5.61527449851191,1.5));
#1455=VECTOR('',#1638,1.0);
#1456=COLOUR_RGB('',0.811764717102051,0.811764717102051,0.811764717102051);
#1457=CARTESIAN_POINT('',(0.805082674017518,6.5,1.5));
#1458=VECTOR('',#1639,1.0);
#1459=COLOUR_RGB('',0.121568627655506,0.121568627655506,0.121568627655506);
#1460=CARTESIAN_POINT('',(-2.79174243050442,0.5,2.9));
#1461=CARTESIAN_POINT('',(-3.70825756949558,0.5,2.9));
#1462=CARTESIAN_POINT('',(-1.25,0.5,2.9));
#1463=VECTOR('',#1640,1.0);
#1464=CARTESIAN_POINT('',(-2.79174243050442,0.5,-2.9));
#1465=CARTESIAN_POINT('',(-2.79174243050442,0.5,0.0));
#1466=VECTOR('',#1641,1.0);
#1467=CARTESIAN_POINT('',(-3.70825756949558,0.5,-2.9));
#1468=CARTESIAN_POINT('',(-1.25,0.5,-2.9));
#1469=VECTOR('',#1642,1.0);
#1470=CARTESIAN_POINT('',(-3.70825756949558,0.5,0.0));
#1471=VECTOR('',#1643,1.0);
#1472=COLOUR_RGB('',0.121568627655506,0.121568627655506,0.121568627655506);
#1473=AXIS2_PLACEMENT_3D('',#1644,#1645,#1646);
#1474=AXIS2_PLACEMENT_3D('',#1647,#1648,#1649);
#1475=COLOUR_RGB('',0.121568627655506,0.121568627655506,0.121568627655506);
#1476=CARTESIAN_POINT('',(-1.25,2.5,2.9));
#1477=VECTOR('',#1650,1.0);
#1478=CARTESIAN_POINT('',(-1.25,2.5,-2.9));
#1479=VECTOR('',#1651,1.0);
#1480=COLOUR_RGB('',0.121568627655506,0.121568627655506,0.121568627655506);
#1481=AXIS2_PLACEMENT_3D('',#1652,#1653,#1654);
#1482=AXIS2_PLACEMENT_3D('',#1655,#1656,#1657);
#1483=COLOUR_RGB('',0.121568627655506,0.121568627655506,0.121568627655506);
#1484=AXIS2_PLACEMENT_3D('',#1658,#1659,#1660);
#1485=AXIS2_PLACEMENT_3D('',#1661,#1662,#1663);
#1486=COLOUR_RGB('',0.121568627655506,0.121568627655506,0.121568627655506);
#1487=CARTESIAN_POINT('',(6.4,0.0,2.9));
#1488=CARTESIAN_POINT('',(6.4,6.5,2.9));
#1489=CARTESIAN_POINT('',(6.4,3.25,2.9));
#1490=VECTOR('',#1664,1.0);
#1491=CARTESIAN_POINT('',(-6.4,6.5,2.9));
#1492=CARTESIAN_POINT('',(0.0,6.5,2.9));
#1493=VECTOR('',#1665,1.0);
#1494=CARTESIAN_POINT('',(-6.4,0.0,2.9));
#1495=CARTESIAN_POINT('',(-6.4,3.25,2.9));
#1496=VECTOR('',#1666,1.0);
#1497=CARTESIAN_POINT('',(0.0,0.0,2.9));
#1498=VECTOR('',#1667,1.0);
#1499=COLOUR_RGB('',0.121568627655506,0.121568627655506,0.121568627655506);
#1500=CARTESIAN_POINT('',(6.4,6.5,-2.9));
#1501=CARTESIAN_POINT('',(6.4,0.0,-2.9));
#1502=CARTESIAN_POINT('',(6.4,3.25,-2.9));
#1503=VECTOR('',#1668,1.0);
#1504=CARTESIAN_POINT('',(-6.4,0.0,-2.9));
#1505=CARTESIAN_POINT('',(0.0,0.0,-2.9));
#1506=VECTOR('',#1669,1.0);
#1507=CARTESIAN_POINT('',(-6.4,6.5,-2.9));
#1508=CARTESIAN_POINT('',(-6.4,3.25,-2.9));
#1509=VECTOR('',#1670,1.0);
#1510=CARTESIAN_POINT('',(0.0,6.5,-2.9));
#1511=VECTOR('',#1671,1.0);
#1512=COLOUR_RGB('',0.121568627655506,0.121568627655506,0.121568627655506);
#1513=CARTESIAN_POINT('',(-6.4,0.0,0.0));
#1514=VECTOR('',#1672,1.0);
#1515=CARTESIAN_POINT('',(6.4,0.0,0.0));
#1516=VECTOR('',#1673,1.0);
#1517=COLOUR_RGB('',0.121568627655506,0.121568627655506,0.121568627655506);
#1518=CARTESIAN_POINT('',(-6.4,6.5,0.0));
#1519=VECTOR('',#1674,1.0);
#1520=COLOUR_RGB('',0.121568627655506,0.121568627655506,0.121568627655506);
#1521=CARTESIAN_POINT('',(6.4,6.5,0.0));
#1522=VECTOR('',#1675,1.0);
#1523=COLOUR_RGB('',0.121568627655506,0.121568627655506,0.121568627655506);
#1524=DIRECTION('',(-0.0,0.0,-1.0));
#1525=CARTESIAN_POINT('',(3.25,1.5,2.9));
#1526=DIRECTION('',(0.0,0.0,-1.0));
#1527=DIRECTION('',(1.0,0.0,0.0));
#1528=DIRECTION('',(-0.0,0.0,1.0));
#1529=CARTESIAN_POINT('',(3.25,1.5,-2.9));
#1530=DIRECTION('',(0.0,0.0,1.0));
#1531=DIRECTION('',(1.0,0.0,0.0));
#1532=DIRECTION('',(-0.0,0.0,-1.0));
#1533=CARTESIAN_POINT('',(-3.25,1.5,2.9));
#1534=DIRECTION('',(0.0,0.0,-1.0));
#1535=DIRECTION('',(1.0,0.0,0.0));
#1536=DIRECTION('',(-0.0,-0.0,-1.0));
#1537=CARTESIAN_POINT('',(-3.25,1.5,-2.9));
#1538=DIRECTION('',(0.0,0.0,1.0));
#1539=DIRECTION('',(1.0,0.0,0.0));
#1540=DIRECTION('',(-0.0,0.0,1.0));
#1541=CARTESIAN_POINT('',(-3.25,1.5,-2.9));
#1542=DIRECTION('',(0.0,0.0,1.0));
#1543=DIRECTION('',(1.0,0.0,0.0));
#1544=DIRECTION('',(0.0,0.0,1.0));
#1545=CARTESIAN_POINT('',(-3.25,1.5,2.9));
#1546=DIRECTION('',(0.0,0.0,-1.0));
#1547=DIRECTION('',(1.0,0.0,0.0));
#1548=DIRECTION('',(-0.0,0.0,-1.0));
#1549=CARTESIAN_POINT('',(6.55,14.1,1.5));
#1550=DIRECTION('',(0.0,0.0,1.0));
#1551=DIRECTION('',(1.0,0.0,0.0));
#1552=DIRECTION('',(0.0,0.0,1.0));
#1553=CARTESIAN_POINT('',(6.55,14.1,-1.5));
#1554=DIRECTION('',(0.0,0.0,1.0));
#1555=DIRECTION('',(1.0,0.0,0.0));
#1556=DIRECTION('',(-0.0,-0.0,-1.0));
#1557=CARTESIAN_POINT('',(6.55,14.1,1.5));
#1558=DIRECTION('',(0.0,0.0,-1.0));
#1559=DIRECTION('',(1.0,0.0,0.0));
#1560=DIRECTION('',(0.0,0.0,1.0));
#1561=CARTESIAN_POINT('',(6.55,14.1,-1.5));
#1562=DIRECTION('',(0.0,0.0,1.0));
#1563=DIRECTION('',(1.0,0.0,0.0));
#1564=DIRECTION('',(-1.0,0.0,0.0));
#1565=CARTESIAN_POINT('',(-1.95,6.39,1.45));
#1566=DIRECTION('',(0.0,0.0,1.0));
#1567=DIRECTION('',(1.0,0.0,0.0));
#1568=DIRECTION('',(-0.0,-0.0,-1.0));
#1569=DIRECTION('',(0.0,0.0,1.0));
#1570=CARTESIAN_POINT('',(-1.95,6.39,-1.45));
#1571=DIRECTION('',(0.0,0.0,-1.0));
#1572=DIRECTION('',(1.0,0.0,0.0));
#1573=DIRECTION('',(1.0,0.0,0.0));
#1574=DIRECTION('',(0.0,0.0,1.0));
#1575=DIRECTION('',(0.0,1.0,0.0));
#1576=DIRECTION('',(0.0,0.0,-1.0));
#1577=DIRECTION('',(0.0,-1.0,0.0));
#1578=DIRECTION('',(-1.0,0.0,0.0));
#1579=DIRECTION('',(0.0,-1.0,0.0));
#1580=DIRECTION('',(-1.0,0.0,0.0));
#1581=DIRECTION('',(1.0,0.0,0.0));
#1582=DIRECTION('',(1.0,0.0,0.0));
#1583=DIRECTION('',(0.0,1.0,0.0));
#1584=DIRECTION('',(0.0,0.0,-1.0));
#1585=DIRECTION('',(0.0,0.0,-1.0));
#1586=DIRECTION('',(0.0,0.0,1.0));
#1587=DIRECTION('',(0.0,1.0,0.0));
#1588=DIRECTION('',(0.0,0.0,-1.0));
#1589=DIRECTION('',(0.0,-1.0,0.0));
#1590=DIRECTION('',(-1.0,0.0,0.0));
#1591=DIRECTION('',(0.0,-1.0,0.0));
#1592=DIRECTION('',(-1.0,0.0,0.0));
#1593=DIRECTION('',(1.0,0.0,0.0));
#1594=DIRECTION('',(1.0,0.0,0.0));
#1595=DIRECTION('',(0.0,1.0,0.0));
#1596=DIRECTION('',(0.0,0.0,-1.0));
#1597=DIRECTION('',(0.0,0.0,-1.0));
#1598=DIRECTION('',(0.0,0.0,1.0));
#1599=DIRECTION('',(0.0,1.0,0.0));
#1600=DIRECTION('',(0.0,0.0,-1.0));
#1601=DIRECTION('',(0.0,-1.0,0.0));
#1602=DIRECTION('',(-1.0,0.0,0.0));
#1603=DIRECTION('',(0.0,-1.0,0.0));
#1604=DIRECTION('',(-1.0,0.0,0.0));
#1605=DIRECTION('',(1.0,0.0,0.0));
#1606=DIRECTION('',(1.0,0.0,0.0));
#1607=DIRECTION('',(0.0,1.0,0.0));
#1608=DIRECTION('',(0.0,0.0,-1.0));
#1609=DIRECTION('',(0.0,0.0,-1.0));
#1610=DIRECTION('',(1.0,0.0,-0.0));
#1611=DIRECTION('',(0.176509185140297,0.984298992969671,0.0));
#1612=DIRECTION('',(-0.838670567945424,-0.544639035015027,0.0));
#1613=CARTESIAN_POINT('',(6.55,14.1,-1.5));
#1614=DIRECTION('',(0.0,0.0,1.0));
#1615=DIRECTION('',(1.0,0.0,0.0));
#1616=DIRECTION('',(0.838670567945422,0.544639035015031,0.0));
#1617=CARTESIAN_POINT('',(6.55,14.1,-1.5));
#1618=DIRECTION('',(0.0,0.0,1.0));
#1619=DIRECTION('',(1.0,0.0,0.0));
#1620=DIRECTION('',(0.838670567945424,0.544639035015027,0.0));
#1621=DIRECTION('',(0.173503446416221,0.984833262071146,0.0));
#1622=DIRECTION('',(-0.0,-0.0,-1.0));
#1623=DIRECTION('',(0.176509185140297,0.984298992969671,0.0));
#1624=DIRECTION('',(0.0,0.0,1.0));
#1625=DIRECTION('',(0.838670567945424,0.544639035015027,0.0));
#1626=DIRECTION('',(0.0,0.0,1.0));
#1627=CARTESIAN_POINT('',(6.55,14.1,1.5));
#1628=DIRECTION('',(0.0,0.0,-1.0));
#1629=DIRECTION('',(1.0,0.0,0.0));
#1630=DIRECTION('',(-0.838670567945422,-0.544639035015031,-0.0));
#1631=DIRECTION('',(0.0,0.0,1.0));
#1632=CARTESIAN_POINT('',(6.55,14.1,1.5));
#1633=DIRECTION('',(0.0,0.0,1.0));
#1634=DIRECTION('',(1.0,0.0,0.0));
#1635=DIRECTION('',(-0.838670567945424,-0.544639035015027,-0.0));
#1636=DIRECTION('',(0.0,0.0,1.0));
#1637=DIRECTION('',(0.0,0.0,1.0));
#1638=DIRECTION('',(-0.173503446416221,-0.984833262071146,-0.0));
#1639=DIRECTION('',(-1.0,0.0,0.0));
#1640=DIRECTION('',(-1.0,0.0,0.0));
#1641=DIRECTION('',(0.0,0.0,1.0));
#1642=DIRECTION('',(1.0,0.0,0.0));
#1643=DIRECTION('',(-0.0,-0.0,-1.0));
#1644=CARTESIAN_POINT('',(-3.25,1.5,2.9));
#1645=DIRECTION('',(0.0,0.0,-1.0));
#1646=DIRECTION('',(1.0,0.0,0.0));
#1647=CARTESIAN_POINT('',(-3.25,1.5,-2.9));
#1648=DIRECTION('',(0.0,0.0,1.0));
#1649=DIRECTION('',(1.0,0.0,0.0));
#1650=DIRECTION('',(1.0,0.0,-0.0));
#1651=DIRECTION('',(-1.0,0.0,0.0));
#1652=CARTESIAN_POINT('',(-3.25,1.5,-2.9));
#1653=DIRECTION('',(0.0,0.0,1.0));
#1654=DIRECTION('',(1.0,0.0,0.0));
#1655=CARTESIAN_POINT('',(-3.25,1.5,2.9));
#1656=DIRECTION('',(0.0,0.0,-1.0));
#1657=DIRECTION('',(1.0,0.0,0.0));
#1658=CARTESIAN_POINT('',(3.25,1.5,-2.9));
#1659=DIRECTION('',(0.0,0.0,1.0));
#1660=DIRECTION('',(1.0,0.0,0.0));
#1661=CARTESIAN_POINT('',(3.25,1.5,2.9));
#1662=DIRECTION('',(0.0,0.0,-1.0));
#1663=DIRECTION('',(1.0,0.0,0.0));
#1664=DIRECTION('',(0.0,1.0,0.0));
#1665=DIRECTION('',(-1.0,0.0,0.0));
#1666=DIRECTION('',(0.0,-1.0,0.0));
#1667=DIRECTION('',(1.0,0.0,0.0));
#1668=DIRECTION('',(0.0,-1.0,0.0));
#1669=DIRECTION('',(-1.0,0.0,0.0));
#1670=DIRECTION('',(0.0,1.0,0.0));
#1671=DIRECTION('',(1.0,0.0,0.0));
#1672=DIRECTION('',(0.0,0.0,-1.0));
#1673=DIRECTION('',(0.0,0.0,-1.0));
#1674=DIRECTION('',(0.0,0.0,-1.0));
#1675=DIRECTION('',(0.0,0.0,-1.0));
ENDSEC;
END-ISO-10303-21;
